<?xml version="1.0" standalone="no"?>
<!DOCTYPE svg PUBLIC "-//W3C//DTD SVG 1.1//EN" "http://www.w3.org/Graphics/SVG/1.1/DTD/svg11.dtd" >
<svg xmlns="http://www.w3.org/2000/svg" xmlns:xlink="http://www.w3.org/1999/xlink" version="1.1">
<metadata>
Created by FontForge 20161003 at Mon Dec 24 06:44:31 2018
 By www-data
Brought to you by The Institute for Applied Piracy.  For personal / evaluation use only.  Never use pirated fonts in commercial works.  Please buy a license if you like this typeface and/or if you plan to use it commercially.
</metadata>
<defs>
<font id="AcuminPro-Light" horiz-adv-x="400" >
  <font-face 
    font-family="Acumin Pro"
    font-weight="300"
    font-stretch="normal"
    units-per-em="1000"
    panose-1="2 11 4 4 2 2 2 2 2 4"
    ascent="735"
    descent="-265"
    x-height="503"
    cap-height="698"
    bbox="-171 -262 1200 1038"
    underline-thickness="50"
    underline-position="-100"
    stemh="63"
    stemv="67"
    unicode-range="U+0020-FB02"
  />
<missing-glyph horiz-adv-x="500" 
d="M0 0v700h500v-700h-500zM250 395l170 255h-340zM280 350l170 -255v510zM80 50h340l-170 255zM50 605v-510l170 255z" />
    <glyph glyph-name="f_f" unicode="ff" horiz-adv-x="526" 
d="M353 445h-193v-445h-67v445h-84v58h84v65c0 90 24 178 138 178c16 0 35 -2 47 -7v-59c-13 5 -32 6 -45 6c-53 0 -73 -34 -73 -112v-71h193v65c0 90 26 178 138 178c17 0 35 -2 47 -7v-59c-13 5 -31 6 -45 6c-53 0 -73 -34 -73 -112v-71h103v-58h-103v-445h-67v445z" />
    <glyph glyph-name=".notdef" horiz-adv-x="500" 
d="M0 0v700h500v-700h-500zM250 395l170 255h-340zM280 350l170 -255v510zM80 50h340l-170 255zM50 605v-510l170 255z" />
    <glyph glyph-name="space" unicode=" " horiz-adv-x="257" 
 />
    <glyph glyph-name="A" unicode="A" horiz-adv-x="649" 
d="M465 227h-287l-83 -227h-72l253 698h87l263 -698h-77zM199 290h245c-73 197 -111 295 -125 345h-1c-17 -56 -61 -177 -119 -345z" />
    <glyph glyph-name="B" unicode="B" horiz-adv-x="636" 
d="M95 0v698h255c139 0 210 -74 210 -173c0 -82 -49 -135 -104 -152c49 -15 128 -64 128 -170c0 -136 -103 -203 -229 -203h-260zM165 402h167c112 0 155 43 155 118c0 66 -47 116 -137 116h-185v-234zM165 341v-279h186c90 0 159 44 159 139c0 83 -53 140 -183 140h-162z
" />
    <glyph glyph-name="C" unicode="C" horiz-adv-x="677" 
d="M562 192h72c-33 -115 -117 -200 -270 -200c-204 0 -309 159 -309 356c0 189 104 360 311 360c157 0 246 -88 268 -205h-71c-29 84 -84 143 -200 143c-165 0 -233 -150 -233 -297c0 -144 66 -295 237 -295c111 0 164 60 195 138z" />
    <glyph glyph-name="D" unicode="D" horiz-adv-x="715" 
d="M95 0v698h240c193 0 326 -134 326 -342s-130 -356 -328 -356h-238zM166 635v-572h159c175 0 260 124 260 290c0 146 -77 282 -260 282h-159z" />
    <glyph glyph-name="E" unicode="E" horiz-adv-x="589" 
d="M518 399v-63h-352v-273h386l-10 -63h-447v698h440v-63h-369v-236h352z" />
    <glyph glyph-name="F" unicode="F" horiz-adv-x="555" 
d="M95 0v698h435v-63h-364v-247h341v-63h-341v-325h-71z" />
    <glyph glyph-name="G" unicode="G" horiz-adv-x="720" 
d="M646 372v-372h-57c-4 10 -6 44 -7 104c-28 -49 -85 -113 -222 -113c-201 0 -305 153 -305 352c0 208 111 365 319 365c156 0 256 -83 277 -210h-71c-27 90 -90 148 -208 148c-169 0 -242 -133 -242 -300c0 -152 71 -292 236 -292c167 0 211 109 211 247v8h-213v63h282z
" />
    <glyph glyph-name="H" unicode="H" horiz-adv-x="727" 
d="M95 0v698h71v-298h394v298h72v-698h-72v337h-394v-337h-71z" />
    <glyph glyph-name="I" unicode="I" horiz-adv-x="262" 
d="M95 698h71v-698h-71v698z" />
    <glyph glyph-name="J" unicode="J" horiz-adv-x="355" 
d="M264 698v-502c0 -156 -66 -206 -170 -206c-29 0 -47 3 -66 6v62c14 -3 41 -5 63 -5c90 0 101 68 101 143v502h72z" />
    <glyph glyph-name="K" unicode="K" horiz-adv-x="625" 
d="M95 0v698h71v-354c54 54 244 236 362 354h91l-307 -296l324 -402h-88l-287 356l-95 -85v-271h-71z" />
    <glyph glyph-name="L" unicode="L" horiz-adv-x="552" 
d="M95 0v698h71v-635h370l-11 -63h-430z" />
    <glyph glyph-name="M" unicode="M" horiz-adv-x="861" 
d="M696 0v310c0 134 1 265 4 337h-3c-29 -103 -158 -427 -243 -647h-66c-64 174 -197 536 -229 648h-2c5 -80 7 -240 7 -359v-289h-69v698h107c88 -229 198 -527 223 -610h2c16 58 144 387 235 610h104v-698h-70z" />
    <glyph glyph-name="N" unicode="N" horiz-adv-x="740" 
d="M165 0h-70v698h99c105 -166 343 -536 385 -612h1c-6 96 -5 202 -5 316v296h69v-698h-92c-99 157 -343 548 -390 626h-2c5 -86 5 -196 5 -322v-304z" />
    <glyph glyph-name="O" unicode="O" horiz-adv-x="746" 
d="M377 708c194 0 315 -149 315 -354c0 -192 -105 -364 -322 -364c-201 0 -315 159 -315 359c0 199 113 359 322 359zM374 645c-169 0 -244 -139 -244 -293c0 -156 84 -299 243 -299c172 0 243 141 243 299c0 157 -80 293 -242 293z" />
    <glyph glyph-name="P" unicode="P" horiz-adv-x="620" 
d="M95 0v698h257c131 0 221 -73 221 -198c0 -131 -92 -204 -228 -204h-178v-296h-72zM167 636v-277h179c105 0 152 54 152 139c0 89 -60 138 -148 138h-183z" />
    <glyph glyph-name="Q" unicode="Q" horiz-adv-x="755" 
d="M377 708c194 0 315 -149 315 -354c0 -123 -43 -238 -132 -305l175 -125l-45 -51l-195 139c-37 -14 -78 -22 -125 -22c-201 0 -315 159 -315 359c0 199 113 359 322 359zM374 645c-169 0 -244 -139 -244 -293c0 -156 84 -299 243 -299c172 0 243 141 243 299
c0 157 -80 293 -242 293z" />
    <glyph glyph-name="R" unicode="R" horiz-adv-x="634" 
d="M325 318h-158v-318h-72v698h261c140 0 214 -76 214 -185c0 -90 -52 -146 -125 -164c65 -16 114 -61 114 -181v-28c0 -48 -4 -112 9 -140h-71c-13 30 -11 85 -11 148v16c0 108 -31 154 -161 154zM167 636v-256h161c115 0 167 43 167 129c0 81 -52 127 -154 127h-174z" />
    <glyph glyph-name="S" unicode="S" horiz-adv-x="596" 
d="M44 191h74c20 -89 79 -140 188 -140c119 0 165 58 165 130c0 75 -34 119 -182 155c-155 39 -216 90 -216 190c0 97 71 182 224 182c159 0 226 -95 235 -183h-73c-15 69 -59 122 -165 122c-94 0 -146 -43 -146 -116c0 -71 43 -99 169 -130c198 -49 230 -127 230 -214
c0 -107 -79 -195 -245 -195c-175 0 -244 99 -258 199z" />
    <glyph glyph-name="T" unicode="T" horiz-adv-x="547" 
d="M237 0v635h-230v63h533v-63h-231v-635h-72z" />
    <glyph glyph-name="U" unicode="U" horiz-adv-x="710" 
d="M90 698h73v-422c0 -176 98 -222 193 -222c111 0 192 48 192 222v422h72v-418c0 -222 -120 -288 -266 -288c-141 0 -264 72 -264 280v426z" />
    <glyph glyph-name="V" unicode="V" horiz-adv-x="631" 
d="M353 0h-84l-257 698h76l130 -357c38 -105 78 -215 93 -276h2c15 54 59 170 97 272l135 361h74z" />
    <glyph glyph-name="W" unicode="W" horiz-adv-x="930" 
d="M293 0h-78l-191 698h75c50 -195 142 -537 157 -618h1c15 76 122 436 169 618h73c44 -164 149 -549 162 -616h1c22 109 130 460 174 616h71l-209 -698h-79c-44 163 -144 535 -158 605h-1c-20 -97 -119 -437 -167 -605z" />
    <glyph glyph-name="X" unicode="X" horiz-adv-x="566" 
d="M565 0h-84l-200 302h-1l-198 -302h-81l238 354l-228 344h83l189 -286h1l193 286h80l-233 -338z" />
    <glyph glyph-name="Y" unicode="Y" horiz-adv-x="580" 
d="M322 0h-73v259c0 7 -1 14 -4 18l-248 421h83c67 -116 179 -311 210 -367c30 56 144 250 215 367h77l-257 -424c-2 -4 -3 -8 -3 -17v-257z" />
    <glyph glyph-name="Z" unicode="Z" horiz-adv-x="589" 
d="M31 0v57l440 578h-418v63h501v-60l-435 -575h446l-11 -63h-523z" />
    <glyph glyph-name="a" unicode="a" horiz-adv-x="517" 
d="M437 354v-252c0 -45 4 -87 7 -102h-64c-4 12 -7 35 -8 72c-18 -35 -60 -84 -161 -84c-118 0 -168 76 -168 152c0 112 87 162 237 162h91v48c0 48 -15 109 -120 109c-94 0 -108 -48 -118 -88h-66c6 61 44 144 186 144c118 0 184 -49 184 -161zM372 234v17h-91
c-106 0 -169 -28 -169 -107c0 -59 41 -100 108 -100c134 0 152 89 152 190z" />
    <glyph glyph-name="b" unicode="b" horiz-adv-x="559" 
d="M79 171v565h67v-312c23 47 71 91 167 91c122 0 206 -100 206 -253c0 -156 -78 -274 -220 -274c-82 0 -128 32 -154 86c0 -30 -1 -60 -2 -74h-65c1 57 1 114 1 171zM449 261c0 118 -57 195 -148 195c-118 0 -159 -79 -159 -206c0 -112 37 -203 153 -203
c96 0 154 81 154 214z" />
    <glyph glyph-name="c" unicode="c" horiz-adv-x="494" 
d="M394 151h67c-23 -88 -81 -163 -201 -163c-131 0 -219 96 -219 261c0 140 77 266 225 266c136 0 187 -96 195 -164h-67c-14 55 -49 105 -129 105c-98 0 -154 -84 -154 -204c0 -118 53 -205 150 -205c69 0 109 35 133 104z" />
    <glyph glyph-name="d" unicode="d" horiz-adv-x="559" 
d="M414 736h67v-592c0 -48 0 -94 1 -144h-64c-3 13 -4 56 -4 79c-25 -58 -79 -91 -164 -91c-130 0 -209 106 -209 258c0 155 85 269 223 269c96 0 136 -40 150 -70v291zM111 248c0 -130 65 -201 148 -201c126 0 158 90 158 215c0 121 -28 194 -150 194
c-94 0 -156 -75 -156 -208z" />
    <glyph glyph-name="e" unicode="e" horiz-adv-x="512" 
d="M472 241h-363c0 -117 59 -194 151 -194c88 0 117 48 134 87h68c-21 -66 -74 -146 -204 -146c-156 0 -217 130 -217 259c0 146 73 268 222 268c159 0 210 -132 210 -232c0 -15 0 -29 -1 -42zM112 293h292c-1 92 -49 165 -142 165c-97 0 -140 -67 -150 -165z" />
    <glyph glyph-name="f" unicode="f" horiz-adv-x="265" 
d="M160 0h-67v445h-84v58h84v67c0 88 29 176 141 176c17 0 40 -3 52 -7v-60c-13 4 -35 5 -49 5c-56 0 -77 -37 -77 -118v-63h106v-58h-106v-445z" />
    <glyph glyph-name="g" unicode="g" horiz-adv-x="555" 
d="M477 358v-319c0 -161 -69 -249 -224 -249c-140 0 -191 79 -202 152h68c17 -63 68 -94 137 -94c124 0 156 79 156 201v47c-27 -61 -75 -95 -163 -95c-121 0 -208 98 -208 250c0 167 96 264 216 264c100 0 142 -47 155 -84c1 26 3 61 4 72h63c0 -23 -2 -97 -2 -145z
M111 254c0 -113 59 -193 150 -193c118 0 153 78 153 200c0 124 -36 195 -150 195c-106 0 -153 -90 -153 -202z" />
    <glyph glyph-name="h" unicode="h" horiz-adv-x="556" 
d="M79 736h67v-313c27 49 75 92 162 92c75 0 170 -40 170 -194v-321h-67v308c0 94 -41 146 -120 146c-96 0 -145 -61 -145 -176v-278h-67v736z" />
    <glyph glyph-name="i" unicode="i" horiz-adv-x="225" 
d="M79 0v503h67v-503h-67zM146 633h-67v103h67v-103z" />
    <glyph glyph-name="j" unicode="j" horiz-adv-x="225" 
d="M79 503h67v-530c0 -137 -33 -183 -131 -183c-4 0 -24 1 -31 2v60c7 -1 15 -1 21 -1c67 0 74 36 74 112v540zM146 633h-67v103h67v-103z" />
    <glyph glyph-name="k" unicode="k" horiz-adv-x="485" 
d="M146 736v-484c44 50 171 181 239 251h82l-194 -198l218 -305h-80l-185 262l-80 -77v-185h-67v736h67z" />
    <glyph glyph-name="l" unicode="l" horiz-adv-x="225" 
d="M146 0h-67v736h67v-736z" />
    <glyph glyph-name="m" unicode="m" horiz-adv-x="837" 
d="M79 0v373c0 44 0 90 -1 130h65c1 -16 3 -56 2 -84c22 48 68 96 149 96c71 0 124 -35 143 -95c26 50 75 95 163 95c79 0 158 -46 158 -184v-331h-66v323c0 63 -23 131 -110 131c-90 0 -131 -71 -131 -165v-289h-65v321c0 70 -21 133 -107 133c-90 0 -134 -77 -134 -176
v-278h-66z" />
    <glyph glyph-name="n" unicode="n" horiz-adv-x="556" 
d="M79 0v376c0 44 0 88 -1 127h65c2 -15 4 -75 3 -90c21 48 62 102 163 102c92 0 169 -53 169 -190v-325h-67v316c0 83 -34 138 -117 138c-108 0 -148 -87 -148 -193v-261h-67z" />
    <glyph glyph-name="o" unicode="o" horiz-adv-x="538" 
d="M271 515c137 0 227 -104 227 -262c0 -143 -80 -265 -232 -265c-140 0 -225 112 -225 263c0 146 82 264 230 264zM268 456c-106 0 -158 -86 -158 -204c0 -116 61 -205 160 -205c101 0 158 83 158 204c0 117 -56 205 -160 205z" />
    <glyph glyph-name="p" unicode="p" horiz-adv-x="559" 
d="M146 -200h-67v580c0 41 0 85 -1 123h65c2 -18 3 -48 3 -85c29 56 82 97 171 97c118 0 201 -98 201 -250c0 -181 -97 -277 -219 -277c-85 0 -129 37 -153 81v-269zM448 262c0 112 -53 193 -146 193c-114 0 -160 -72 -160 -202c0 -127 37 -206 153 -206
c99 0 153 83 153 215z" />
    <glyph glyph-name="q" unicode="q" horiz-adv-x="559" 
d="M415 -200v280c-25 -56 -72 -92 -166 -92c-115 0 -208 93 -208 258c0 172 101 269 220 269c99 0 142 -47 154 -82c-1 20 1 47 2 70h64c-1 -56 -1 -93 -1 -139v-564h-65zM111 249c0 -106 48 -202 152 -202c118 0 154 80 154 207s-32 201 -150 201
c-102 0 -156 -86 -156 -206z" />
    <glyph glyph-name="r" unicode="r" horiz-adv-x="337" 
d="M79 0v366c0 78 -1 116 -1 137h65c2 -15 3 -51 3 -108c28 72 90 117 172 120v-69c-104 -5 -172 -69 -172 -192v-254h-67z" />
    <glyph glyph-name="s" unicode="s" horiz-adv-x="457" 
d="M31 141h67c16 -60 60 -97 134 -97c82 0 115 37 115 89c0 53 -23 78 -128 103c-137 33 -168 75 -168 142c0 70 53 137 173 137c121 0 175 -72 183 -143h-66c-8 38 -38 87 -119 87c-80 0 -103 -39 -103 -76c0 -42 22 -63 118 -86c147 -35 180 -84 180 -159
c0 -90 -72 -150 -187 -150c-122 0 -186 63 -199 153z" />
    <glyph glyph-name="t" unicode="t" horiz-adv-x="302" 
d="M8 445v58h91v153h67v-153h116v-58h-116v-312c0 -53 12 -82 59 -82c14 0 33 1 48 5v-54c-19 -7 -45 -9 -68 -9c-71 0 -106 36 -106 118v334h-91z" />
    <glyph glyph-name="u" unicode="u" horiz-adv-x="546" 
d="M468 503v-356c0 -49 1 -123 1 -147h-65c-2 13 -3 45 -3 82c-23 -58 -73 -94 -158 -94c-78 0 -166 35 -166 183v332h67v-317c0 -70 22 -137 114 -137c103 0 143 58 143 194v260h67z" />
    <glyph glyph-name="v" unicode="v" horiz-adv-x="470" 
d="M14 503h72c75 -219 128 -375 146 -438h1c11 46 66 196 154 438h69l-188 -503h-76z" />
    <glyph glyph-name="w" unicode="w" horiz-adv-x="753" 
d="M28 503h71c69 -249 108 -391 117 -439h1c8 43 52 187 127 439h69c86 -299 112 -385 121 -427h1c13 54 35 130 121 427h70l-158 -503h-73c-51 181 -109 377 -119 427h-1c-10 -52 -62 -220 -123 -427h-77z" />
    <glyph glyph-name="x" unicode="x" horiz-adv-x="438" 
d="M11 503h77c78 -118 111 -170 130 -199h1c23 33 70 102 136 199h76l-173 -243l175 -260h-78c-68 103 -115 176 -138 210h-1c-18 -29 -61 -97 -136 -210h-76l174 254z" />
    <glyph glyph-name="y" unicode="y" horiz-adv-x="467" 
d="M12 503h73c93 -266 137 -392 153 -445h1c18 60 56 176 147 445h68l-185 -529c-53 -149 -89 -184 -186 -184c-17 0 -32 1 -50 3v62c14 -2 29 -3 44 -3c68 0 92 32 126 127z" />
    <glyph glyph-name="z" unicode="z" horiz-adv-x="437" 
d="M23 0v57l306 387h-290v59h366v-59l-301 -385h314l-13 -59h-382z" />
    <glyph glyph-name="Agrave" unicode="&#xc0;" horiz-adv-x="649" 
d="M465 227h-287l-83 -227h-72l253 698h87l263 -698h-77zM199 290h245c-73 197 -111 295 -125 345h-1c-17 -56 -61 -177 -119 -345zM123 898h94l142 -137h-74z" />
    <glyph glyph-name="Aacute" unicode="&#xc1;" horiz-adv-x="649" 
d="M465 227h-287l-83 -227h-72l253 698h87l263 -698h-77zM199 290h245c-73 197 -111 295 -125 345h-1c-17 -56 -61 -177 -119 -345zM431 898h94l-169 -137h-76z" />
    <glyph glyph-name="Acircumflex" unicode="&#xc2;" horiz-adv-x="649" 
d="M465 227h-287l-83 -227h-72l253 698h87l263 -698h-77zM199 290h245c-73 197 -111 295 -125 345h-1c-17 -56 -61 -177 -119 -345zM284 890h74l131 -129h-78l-90 88l-98 -88h-76z" />
    <glyph glyph-name="Atilde" unicode="&#xc3;" horiz-adv-x="649" 
d="M465 227h-287l-83 -227h-72l253 698h87l263 -698h-77zM199 290h245c-73 197 -111 295 -125 345h-1c-17 -56 -61 -177 -119 -345zM205 770h-54v17c0 69 32 94 81 94c61 0 126 -55 165 -55c21 0 34 10 34 46v13h51v-20c0 -72 -30 -96 -81 -96c-58 0 -121 56 -166 56
c-18 0 -30 -10 -30 -38v-17z" />
    <glyph glyph-name="Adieresis" unicode="&#xc4;" horiz-adv-x="649" 
d="M465 227h-287l-83 -227h-72l253 698h87l263 -698h-77zM199 290h245c-73 197 -111 295 -125 345h-1c-17 -56 -61 -177 -119 -345zM250 774h-62v103h62v-103zM444 774h-61v103h61v-103z" />
    <glyph glyph-name="Amacron" unicode="&#x100;" horiz-adv-x="649" 
d="M465 227h-287l-83 -227h-72l253 698h87l263 -698h-77zM199 290h245c-73 197 -111 295 -125 345h-1c-17 -56 -61 -177 -119 -345zM184 839h270v-58h-270v58z" />
    <glyph glyph-name="Abreve" unicode="&#x102;" horiz-adv-x="649" 
d="M465 227h-287l-83 -227h-72l253 698h87l263 -698h-77zM199 290h245c-73 197 -111 295 -125 345h-1c-17 -56 -61 -177 -119 -345zM172 883h56c8 -42 40 -71 92 -71c61 0 85 33 94 71h54c-11 -74 -62 -126 -148 -126c-98 0 -142 63 -148 126z" />
    <glyph glyph-name="Aring" unicode="&#xc5;" horiz-adv-x="649" 
d="M465 227h-287l-83 -227h-72l253 698h87l263 -698h-77zM199 290h245c-73 197 -111 295 -125 345h-1c-17 -56 -61 -177 -119 -345zM319 736c-62 0 -101 43 -101 95s38 97 100 97c63 0 101 -43 101 -95c0 -54 -41 -97 -100 -97zM319 777c35 0 54 27 54 55
c0 27 -18 56 -54 56c-37 0 -54 -27 -54 -54c0 -29 17 -57 54 -57z" />
    <glyph glyph-name="uni01CD" unicode="&#x1cd;" horiz-adv-x="649" 
d="M465 227h-287l-83 -227h-72l253 698h87l263 -698h-77zM199 290h245c-73 197 -111 295 -125 345h-1c-17 -56 -61 -177 -119 -345zM354 761h-72l-132 129h78l90 -88l98 88h76z" />
    <glyph glyph-name="uni1EA0" unicode="&#x1ea0;" horiz-adv-x="649" 
d="M465 227h-287l-83 -227h-72l253 698h87l263 -698h-77zM199 290h245c-73 197 -111 295 -125 345h-1c-17 -56 -61 -177 -119 -345zM360 -178h-73v97h73v-97z" />
    <glyph glyph-name="uni1EA2" unicode="&#x1ea2;" horiz-adv-x="649" 
d="M465 227h-287l-83 -227h-72l253 698h87l263 -698h-77zM199 290h245c-73 197 -111 295 -125 345h-1c-17 -56 -61 -177 -119 -345zM357 761h-71c42 34 63 60 63 88c0 21 -13 40 -45 40c-28 0 -46 -9 -62 -18l-18 43c21 15 53 29 93 29c63 0 94 -41 94 -85
c0 -48 -30 -76 -54 -97z" />
    <glyph glyph-name="uni1EA4" unicode="&#x1ea4;" horiz-adv-x="649" 
d="M465 227h-287l-83 -227h-72l253 698h87l263 -698h-77zM199 290h245c-73 197 -111 295 -125 345h-1c-17 -56 -61 -177 -119 -345zM287 879h71l133 -118h-83l-86 74l-84 -74h-80zM537 975h87l-124 -113h-69z" />
    <glyph glyph-name="uni1EA6" unicode="&#x1ea6;" horiz-adv-x="649" 
d="M465 227h-287l-83 -227h-72l253 698h87l263 -698h-77zM199 290h245c-73 197 -111 295 -125 345h-1c-17 -56 -61 -177 -119 -345zM287 879h71l133 -118h-83l-86 74l-84 -74h-80zM384 960h91l108 -109h-67z" />
    <glyph glyph-name="uni1EA8" unicode="&#x1ea8;" horiz-adv-x="649" 
d="M465 227h-287l-83 -227h-72l253 698h87l263 -698h-77zM199 290h245c-73 197 -111 295 -125 345h-1c-17 -56 -61 -177 -119 -345zM516 858h-66c42 31 58 55 58 78c0 18 -11 34 -40 34c-23 0 -44 -9 -59 -19l-19 41c20 14 49 29 87 29c56 0 88 -33 88 -77
c0 -36 -23 -68 -49 -86zM287 879h71l133 -118h-83l-86 74l-84 -74h-80z" />
    <glyph glyph-name="uni1EAA" unicode="&#x1eaa;" horiz-adv-x="649" 
d="M465 227h-287l-83 -227h-72l253 698h87l263 -698h-77zM199 290h245c-73 197 -111 295 -125 345h-1c-17 -56 -61 -177 -119 -345zM219 885h-46v10c0 58 31 79 70 79c55 0 117 -36 156 -36c17 0 30 4 30 27v8h46v-12c0 -55 -27 -76 -72 -76c-46 0 -115 37 -156 37
c-15 0 -28 -8 -28 -30v-7zM285 846h76l128 -93h-83l-84 56l-82 -56h-82z" />
    <glyph glyph-name="uni1EAC" unicode="&#x1eac;" horiz-adv-x="649" 
d="M465 227h-287l-83 -227h-72l253 698h87l263 -698h-77zM199 290h245c-73 197 -111 295 -125 345h-1c-17 -56 -61 -177 -119 -345zM360 -178h-73v97h73v-97zM282 884h74l131 -129h-78l-90 88l-98 -88h-76z" />
    <glyph glyph-name="uni1EAE" unicode="&#x1eae;" horiz-adv-x="649" 
d="M465 227h-287l-83 -227h-72l253 698h87l263 -698h-77zM199 290h245c-73 197 -111 295 -125 345h-1c-17 -56 -61 -177 -119 -345zM164 865h60c13 -30 42 -57 96 -57c64 0 87 31 99 57h57c-16 -59 -60 -111 -156 -112c-110 -1 -146 72 -156 112zM381 992h91l-123 -107h-67z
" />
    <glyph glyph-name="uni1EB0" unicode="&#x1eb0;" horiz-adv-x="649" 
d="M465 227h-287l-83 -227h-72l253 698h87l263 -698h-77zM199 290h245c-73 197 -111 295 -125 345h-1c-17 -56 -61 -177 -119 -345zM164 865h60c13 -30 42 -57 96 -57c64 0 87 31 99 57h57c-16 -59 -60 -112 -156 -112c-109 0 -146 72 -156 112zM180 992h89l100 -107h-69z
" />
    <glyph glyph-name="uni1EB2" unicode="&#x1eb2;" horiz-adv-x="649" 
d="M465 227h-287l-83 -227h-72l253 698h87l263 -698h-77zM199 290h245c-73 197 -111 295 -125 345h-1c-17 -56 -61 -177 -119 -345zM348 878h-65c39 30 58 54 58 77c0 18 -10 32 -40 32c-24 0 -44 -9 -58 -20l-20 39c20 16 48 32 89 32c56 0 85 -32 85 -75
c0 -40 -26 -67 -49 -85zM165 865h58c13 -29 40 -57 98 -57c64 0 86 31 99 57h57c-17 -56 -61 -112 -156 -112c-109 0 -146 72 -156 112z" />
    <glyph glyph-name="uni1EB4" unicode="&#x1eb4;" horiz-adv-x="649" 
d="M465 227h-287l-83 -227h-72l253 698h87l263 -698h-77zM199 290h245c-73 197 -111 295 -125 345h-1c-17 -56 -61 -177 -119 -345zM216 893h-46v10c0 57 31 79 70 79c55 0 117 -36 156 -36c17 0 30 4 30 27v7h46v-11c0 -55 -27 -77 -72 -77c-46 0 -115 38 -156 38
c-15 0 -28 -9 -28 -31v-6zM169 847h58c11 -22 40 -45 93 -45c61 0 83 19 95 45h56c-15 -51 -57 -97 -151 -97c-100 0 -141 56 -151 97z" />
    <glyph glyph-name="uni1EB6" unicode="&#x1eb6;" horiz-adv-x="649" 
d="M465 227h-287l-83 -227h-72l253 698h87l263 -698h-77zM199 290h245c-73 197 -111 295 -125 345h-1c-17 -56 -61 -177 -119 -345zM360 -178h-73v97h73v-97zM172 883h56c8 -42 40 -71 92 -71c61 0 85 33 94 71h54c-11 -74 -62 -126 -148 -126c-98 0 -142 63 -148 126z" />
    <glyph glyph-name="Aogonek" unicode="&#x104;" horiz-adv-x="649" 
d="M465 227h-287l-83 -227h-72l253 698h87l263 -698h-2c-31 -29 -67 -66 -67 -113c0 -35 25 -56 58 -56c26 0 45 4 61 10v-56c-19 -12 -49 -17 -76 -17c-69 0 -112 41 -112 108c0 45 30 90 62 124h-1zM199 290h245c-73 197 -111 295 -125 345h-1c-17 -56 -61 -177 -119 -345
z" />
    <glyph glyph-name="AE" unicode="&#xc6;" horiz-adv-x="960" 
d="M427 698h479v-63h-369v-235h352v-64h-352v-273h386l-10 -63h-447v252h-243l-161 -252h-79zM259 316h207v324h-2z" />
    <glyph glyph-name="Ccedilla" unicode="&#xc7;" horiz-adv-x="677" 
d="M562 192h72c-31 -107 -105 -188 -238 -199l-36 -46c37 -5 101 -25 101 -93c0 -77 -67 -95 -117 -95c-35 0 -59 7 -72 13v54c18 -8 52 -13 69 -13c38 0 57 13 57 38c0 40 -54 49 -110 50v25l49 67c-186 13 -282 167 -282 355c0 189 104 360 311 360
c157 0 246 -88 268 -205h-71c-29 84 -84 143 -200 143c-165 0 -233 -150 -233 -297c0 -144 66 -295 237 -295c111 0 164 60 195 138z" />
    <glyph glyph-name="Cacute" unicode="&#x106;" horiz-adv-x="677" 
d="M562 192h72c-33 -115 -117 -200 -270 -200c-204 0 -309 159 -309 356c0 189 104 360 311 360c157 0 246 -88 268 -205h-71c-29 84 -84 143 -200 143c-165 0 -233 -150 -233 -297c0 -144 66 -295 237 -295c111 0 164 60 195 138zM451 906h94l-169 -137h-76z" />
    <glyph glyph-name="Ccircumflex" unicode="&#x108;" horiz-adv-x="677" 
d="M562 192h72c-33 -115 -117 -200 -270 -200c-204 0 -309 159 -309 356c0 189 104 360 311 360c157 0 246 -88 268 -205h-71c-29 84 -84 143 -200 143c-165 0 -233 -150 -233 -297c0 -144 66 -295 237 -295c111 0 164 60 195 138zM324 893h74l131 -129h-78l-90 88l-98 -88
h-76z" />
    <glyph glyph-name="Ccaron" unicode="&#x10c;" horiz-adv-x="677" 
d="M562 192h72c-33 -115 -117 -200 -270 -200c-204 0 -309 159 -309 356c0 189 104 360 311 360c157 0 246 -88 268 -205h-71c-29 84 -84 143 -200 143c-165 0 -233 -150 -233 -297c0 -144 66 -295 237 -295c111 0 164 60 195 138zM397 764h-72l-132 129h78l90 -88l98 88h76
z" />
    <glyph glyph-name="Cdotaccent" unicode="&#x10a;" horiz-adv-x="677" 
d="M562 192h72c-33 -115 -117 -200 -270 -200c-204 0 -309 159 -309 356c0 189 104 360 311 360c157 0 246 -88 268 -205h-71c-29 84 -84 143 -200 143c-165 0 -233 -150 -233 -297c0 -144 66 -295 237 -295c111 0 164 60 195 138zM391 781h-70v103h70v-103z" />
    <glyph glyph-name="Dcaron" unicode="&#x10e;" horiz-adv-x="715" 
d="M95 0v698h240c193 0 326 -134 326 -342s-130 -356 -328 -356h-238zM166 635v-572h159c175 0 260 124 260 290c0 146 -77 282 -260 282h-159zM352 767h-72l-132 129h78l90 -88l98 88h76z" />
    <glyph glyph-name="uni1E0C" unicode="&#x1e0c;" horiz-adv-x="715" 
d="M95 0v698h240c193 0 326 -134 326 -342s-130 -356 -328 -356h-238zM166 635v-572h159c175 0 260 124 260 290c0 146 -77 282 -260 282h-159zM365 -178h-73v97h73v-97z" />
    <glyph glyph-name="uni1E0E" unicode="&#x1e0e;" horiz-adv-x="715" 
d="M95 0v698h240c193 0 326 -134 326 -342s-130 -356 -328 -356h-238zM166 635v-572h159c175 0 260 124 260 290c0 146 -77 282 -260 282h-159zM194 -106h269v-59h-269v59z" />
    <glyph glyph-name="Dcroat" unicode="&#x110;" horiz-adv-x="724" 
d="M18 389h87v309h240c193 0 326 -134 326 -342s-130 -356 -328 -356h-238v331h-87v58zM176 635v-246h193v-58h-193v-268h159c175 0 260 124 260 290c0 146 -77 282 -260 282h-159z" />
    <glyph glyph-name="Egrave" unicode="&#xc8;" horiz-adv-x="589" 
d="M518 399v-63h-352v-273h386l-10 -63h-447v698h440v-63h-369v-236h352zM131 911h94l142 -137h-74z" />
    <glyph glyph-name="Eacute" unicode="&#xc9;" horiz-adv-x="589" 
d="M518 399v-63h-352v-273h386l-10 -63h-447v698h440v-63h-369v-236h352zM415 909h94l-169 -137h-76z" />
    <glyph glyph-name="Ecircumflex" unicode="&#xca;" horiz-adv-x="589" 
d="M518 399v-63h-352v-273h386l-10 -63h-447v698h440v-63h-369v-236h352zM280 898h74l131 -129h-78l-90 88l-98 -88h-76z" />
    <glyph glyph-name="Ecaron" unicode="&#x11a;" horiz-adv-x="589" 
d="M518 399v-63h-352v-273h386l-10 -63h-447v698h440v-63h-369v-236h352zM355 761h-72l-132 129h78l90 -88l98 88h76z" />
    <glyph glyph-name="Edieresis" unicode="&#xcb;" horiz-adv-x="589" 
d="M518 399v-63h-352v-273h386l-10 -63h-447v698h440v-63h-369v-236h352zM249 781h-62v103h62v-103zM443 781h-61v103h61v-103z" />
    <glyph glyph-name="Emacron" unicode="&#x112;" horiz-adv-x="589" 
d="M518 399v-63h-352v-273h386l-10 -63h-447v698h440v-63h-369v-236h352zM183 856h270v-58h-270v58z" />
    <glyph glyph-name="Ebreve" unicode="&#x114;" horiz-adv-x="589" 
d="M518 399v-63h-352v-273h386l-10 -63h-447v698h440v-63h-369v-236h352zM172 888h56c8 -42 40 -71 92 -71c61 0 85 33 94 71h54c-11 -74 -62 -126 -148 -126c-98 0 -142 63 -148 126z" />
    <glyph glyph-name="Edotaccent" unicode="&#x116;" horiz-adv-x="589" 
d="M518 399v-63h-352v-273h386l-10 -63h-447v698h440v-63h-369v-236h352zM350 782h-70v103h70v-103z" />
    <glyph glyph-name="uni1EB8" unicode="&#x1eb8;" horiz-adv-x="589" 
d="M518 399v-63h-352v-273h386l-10 -63h-447v698h440v-63h-369v-236h352zM359 -178h-73v97h73v-97z" />
    <glyph glyph-name="uni1EBA" unicode="&#x1eba;" horiz-adv-x="589" 
d="M518 399v-63h-352v-273h386l-10 -63h-447v698h440v-63h-369v-236h352zM351 764h-71c42 34 63 60 63 88c0 21 -13 40 -45 40c-28 0 -46 -9 -62 -18l-18 43c21 15 53 29 93 29c63 0 94 -41 94 -85c0 -48 -30 -76 -54 -97z" />
    <glyph glyph-name="uni1EBC" unicode="&#x1ebc;" horiz-adv-x="589" 
d="M518 399v-63h-352v-273h386l-10 -63h-447v698h440v-63h-369v-236h352zM203 783h-54v17c0 69 32 94 81 94c61 0 126 -55 165 -55c21 0 34 10 34 46v13h51v-20c0 -72 -30 -96 -81 -96c-58 0 -121 56 -166 56c-18 0 -30 -10 -30 -38v-17z" />
    <glyph glyph-name="uni1EBE" unicode="&#x1ebe;" horiz-adv-x="589" 
d="M518 399v-63h-352v-273h386l-10 -63h-447v698h440v-63h-369v-236h352zM277 881h71l133 -118h-83l-86 74l-84 -74h-80zM527 977h87l-124 -113h-69z" />
    <glyph glyph-name="uni1EC0" unicode="&#x1ec0;" horiz-adv-x="589" 
d="M518 399v-63h-352v-273h386l-10 -63h-447v698h440v-63h-369v-236h352zM277 884h71l133 -118h-83l-86 74l-84 -74h-80zM374 965h91l108 -109h-67z" />
    <glyph glyph-name="uni1EC2" unicode="&#x1ec2;" horiz-adv-x="589" 
d="M518 399v-63h-352v-273h386l-10 -63h-447v698h440v-63h-369v-236h352zM504 864h-66c42 31 58 55 58 78c0 18 -11 34 -40 34c-23 0 -44 -9 -59 -19l-19 41c20 14 49 29 87 29c56 0 88 -33 88 -77c0 -36 -23 -68 -49 -86zM275 885h71l133 -118h-83l-86 74l-84 -74h-80z" />
    <glyph glyph-name="uni1EC4" unicode="&#x1ec4;" horiz-adv-x="589" 
d="M518 399v-63h-352v-273h386l-10 -63h-447v698h440v-63h-369v-236h352zM209 897h-46v10c0 58 31 79 70 79c55 0 117 -36 156 -36c17 0 30 4 30 27v8h46v-12c0 -55 -27 -76 -72 -76c-46 0 -115 37 -156 37c-15 0 -28 -8 -28 -30v-7zM275 858h76l128 -93h-83l-84 56l-82 -56
h-82z" />
    <glyph glyph-name="uni1EC6" unicode="&#x1ec6;" horiz-adv-x="589" 
d="M518 399v-63h-352v-273h386l-10 -63h-447v698h440v-63h-369v-236h352zM352 -178h-73v97h73v-97zM277 897h74l131 -129h-78l-90 88l-98 -88h-76z" />
    <glyph glyph-name="Eogonek" unicode="&#x118;" horiz-adv-x="589" 
d="M518 399v-63h-352v-273h386l-10 -63h-39c-31 -29 -67 -66 -67 -113c0 -35 25 -56 58 -56c26 0 45 4 61 10v-56c-19 -12 -49 -17 -76 -17c-69 0 -112 41 -112 108c0 45 30 90 62 124h-334v698h440v-63h-369v-236h352z" />
    <glyph glyph-name="Gcircumflex" unicode="&#x11c;" horiz-adv-x="720" 
d="M646 372v-372h-57c-4 10 -6 44 -7 104c-28 -49 -85 -113 -222 -113c-201 0 -305 153 -305 352c0 208 111 365 319 365c156 0 256 -83 277 -210h-71c-27 90 -90 148 -208 148c-169 0 -242 -133 -242 -300c0 -152 71 -292 236 -292c167 0 211 109 211 247v8h-213v63h282z
M334 890h74l131 -129h-78l-90 88l-98 -88h-76z" />
    <glyph glyph-name="Gbreve" unicode="&#x11e;" horiz-adv-x="720" 
d="M646 372v-372h-57c-4 10 -6 44 -7 104c-28 -49 -85 -113 -222 -113c-201 0 -305 153 -305 352c0 208 111 365 319 365c156 0 256 -83 277 -210h-71c-27 90 -90 148 -208 148c-169 0 -242 -133 -242 -300c0 -152 71 -292 236 -292c167 0 211 109 211 247v8h-213v63h282z
M221 893h56c8 -42 40 -71 92 -71c61 0 85 33 94 71h54c-11 -74 -62 -126 -148 -126c-98 0 -142 63 -148 126z" />
    <glyph glyph-name="Gdotaccent" unicode="&#x120;" horiz-adv-x="720" 
d="M646 372v-372h-57c-4 10 -6 44 -7 104c-28 -49 -85 -113 -222 -113c-201 0 -305 153 -305 352c0 208 111 365 319 365c156 0 256 -83 277 -210h-71c-27 90 -90 148 -208 148c-169 0 -242 -133 -242 -300c0 -152 71 -292 236 -292c167 0 211 109 211 247v8h-213v63h282z
M403 774h-70v103h70v-103z" />
    <glyph glyph-name="uni0122" unicode="&#x122;" horiz-adv-x="720" 
d="M646 372v-372h-57c-4 10 -6 44 -7 104c-28 -49 -85 -113 -222 -113c-201 0 -305 153 -305 352c0 208 111 365 319 365c156 0 256 -83 277 -210h-71c-27 90 -90 148 -208 148c-169 0 -242 -133 -242 -300c0 -152 71 -292 236 -292c167 0 211 109 211 247v8h-213v63h282z
M348 -249h-60c33 66 53 135 57 194h70c-4 -72 -36 -152 -67 -194z" />
    <glyph glyph-name="Gcaron" unicode="&#x1e6;" horiz-adv-x="720" 
d="M646 372v-372h-57c-4 10 -6 44 -7 104c-28 -49 -85 -113 -222 -113c-201 0 -305 153 -305 352c0 208 111 365 319 365c156 0 256 -83 277 -210h-71c-27 90 -90 148 -208 148c-169 0 -242 -133 -242 -300c0 -152 71 -292 236 -292c167 0 211 109 211 247v8h-213v63h282z
M401 769h-72l-132 129h78l90 -88l98 88h76z" />
    <glyph glyph-name="uni1E20" unicode="&#x1e20;" horiz-adv-x="720" 
d="M646 372v-372h-57c-4 10 -6 44 -7 104c-28 -49 -85 -113 -222 -113c-201 0 -305 153 -305 352c0 208 111 365 319 365c156 0 256 -83 277 -210h-71c-27 90 -90 148 -208 148c-169 0 -242 -133 -242 -300c0 -152 71 -292 236 -292c167 0 211 109 211 247v8h-213v63h282z
M233 855h270v-58h-270v58z" />
    <glyph glyph-name="uni00470303" horiz-adv-x="720" 
d="M646 372v-372h-57c-4 10 -6 44 -7 104c-28 -49 -85 -113 -222 -113c-201 0 -305 153 -305 352c0 208 111 365 319 365c156 0 256 -83 277 -210h-71c-27 90 -90 148 -208 148c-169 0 -242 -133 -242 -300c0 -152 71 -292 236 -292c167 0 211 109 211 247v8h-213v63h282z
M249 770h-54v17c0 69 32 94 81 94c61 0 126 -55 165 -55c21 0 34 10 34 46v13h51v-20c0 -72 -30 -96 -81 -96c-58 0 -121 56 -166 56c-18 0 -30 -10 -30 -38v-17z" />
    <glyph glyph-name="Hcircumflex" unicode="&#x124;" horiz-adv-x="727" 
d="M95 0v698h71v-298h394v298h72v-698h-72v337h-394v-337h-71zM329 890h74l131 -129h-78l-90 88l-98 -88h-76z" />
    <glyph glyph-name="uni1E24" unicode="&#x1e24;" horiz-adv-x="727" 
d="M95 0v698h71v-298h394v298h72v-698h-72v337h-394v-337h-71zM399 -178h-73v97h73v-97z" />
    <glyph glyph-name="uni1E2A" unicode="&#x1e2a;" horiz-adv-x="727" 
d="M95 0v698h71v-298h394v298h72v-698h-72v337h-394v-337h-71zM224 -65h52c9 -41 36 -75 86 -75c61 0 79 39 88 75h52c-10 -74 -57 -131 -140 -131c-94 0 -133 67 -138 131z" />
    <glyph glyph-name="Hbar" unicode="&#x126;" horiz-adv-x="727" 
d="M28 579h67v119h71v-119h394v119h72v-119h66v-57h-66v-522h-72v336h-394v-336h-71v522h-67v57zM166 400h394v122h-394v-122z" />
    <glyph glyph-name="Igrave" unicode="&#xcc;" horiz-adv-x="262" 
d="M95 698h71v-698h-71v698zM-63 902h94l142 -137h-74z" />
    <glyph glyph-name="Iacute" unicode="&#xcd;" horiz-adv-x="262" 
d="M95 698h71v-698h-71v698zM243 898h94l-169 -137h-76z" />
    <glyph glyph-name="Icircumflex" unicode="&#xce;" horiz-adv-x="262" 
d="M95 698h71v-698h-71v698zM97 890h74l131 -129h-78l-90 88l-98 -88h-76z" />
    <glyph glyph-name="Itilde" unicode="&#x128;" horiz-adv-x="262" 
d="M95 698h71v-698h-71v698zM20 770h-54v17c0 69 32 94 81 94c61 0 126 -55 165 -55c21 0 34 10 34 46v13h51v-20c0 -72 -30 -96 -81 -96c-58 0 -121 56 -166 56c-18 0 -30 -10 -30 -38v-17z" />
    <glyph glyph-name="Idieresis" unicode="&#xcf;" horiz-adv-x="262" 
d="M95 698h71v-698h-71v698zM65 774h-62v103h62v-103zM259 774h-61v103h61v-103z" />
    <glyph glyph-name="Imacron" unicode="&#x12a;" horiz-adv-x="262" 
d="M95 698h71v-698h-71v698zM-4 839h270v-58h-270v58z" />
    <glyph glyph-name="Idotaccent" unicode="&#x130;" horiz-adv-x="262" 
d="M95 698h71v-698h-71v698zM166 774h-70v103h70v-103z" />
    <glyph glyph-name="uni01CF" unicode="&#x1cf;" horiz-adv-x="262" 
d="M95 698h71v-698h-71v698zM168 761h-72l-132 129h78l90 -88l98 88h76z" />
    <glyph glyph-name="uni1EC8" unicode="&#x1ec8;" horiz-adv-x="262" 
d="M95 698h71v-698h-71v698zM167 761h-71c42 34 63 60 63 88c0 21 -13 40 -45 40c-28 0 -46 -9 -62 -18l-18 43c21 15 53 29 93 29c63 0 94 -41 94 -85c0 -48 -30 -76 -54 -97z" />
    <glyph glyph-name="uni1ECA" unicode="&#x1eca;" horiz-adv-x="262" 
d="M95 698h71v-698h-71v698zM167 -178h-73v97h73v-97z" />
    <glyph glyph-name="Iogonek" unicode="&#x12e;" horiz-adv-x="262" 
d="M95 698h71v-698h-1c-31 -29 -67 -66 -67 -113c0 -35 25 -56 58 -56c26 0 45 4 61 10v-56c-19 -12 -49 -17 -76 -17c-69 0 -112 41 -112 108c0 47 32 93 66 128v694z" />
    <glyph glyph-name="Jcircumflex" unicode="&#x134;" horiz-adv-x="355" 
d="M264 698v-502c0 -156 -66 -206 -170 -206c-29 0 -47 3 -66 6v62c14 -3 41 -5 63 -5c90 0 101 68 101 143v502h72zM193 890h74l131 -129h-78l-90 88l-98 -88h-76z" />
    <glyph glyph-name="uni0136" unicode="&#x136;" horiz-adv-x="625" 
d="M95 0v698h71v-354c54 54 244 236 362 354h91l-307 -296l324 -402h-88l-287 356l-95 -85v-271h-71zM306 -249h-60c33 66 53 135 57 194h70c-4 -72 -36 -152 -67 -194z" />
    <glyph glyph-name="Lacute" unicode="&#x139;" horiz-adv-x="552" 
d="M95 0v698h71v-635h370l-11 -63h-430zM243 900h94l-169 -137h-76z" />
    <glyph glyph-name="Lcaron" unicode="&#x13d;" horiz-adv-x="552" 
d="M95 0v698h71v-635h370l-11 -63h-430zM404 460h-55l-4 240h62z" />
    <glyph glyph-name="uni013B" unicode="&#x13b;" horiz-adv-x="552" 
d="M95 0v698h71v-635h370l-11 -63h-430zM291 -249h-60c33 66 53 135 57 194h70c-4 -72 -36 -152 -67 -194z" />
    <glyph glyph-name="Ldot" unicode="&#x13f;" horiz-adv-x="552" 
d="M416 309h-67v136h67v-136zM95 0v698h71v-635h370l-11 -63h-430z" />
    <glyph glyph-name="uni1E36" unicode="&#x1e36;" horiz-adv-x="552" 
d="M95 0v698h71v-635h370l-11 -63h-430zM343 -178h-73v97h73v-97z" />
    <glyph glyph-name="uni1E38" unicode="&#x1e38;" horiz-adv-x="552" 
d="M95 0v698h71v-635h370l-11 -63h-430zM343 -178h-73v97h73v-97zM2 838h270v-58h-270v58z" />
    <glyph glyph-name="uni1E3A" unicode="&#x1e3a;" horiz-adv-x="552" 
d="M95 0v698h71v-635h370l-11 -63h-430zM179 -106h269v-59h-269v59z" />
    <glyph glyph-name="Lslash" unicode="&#x141;" horiz-adv-x="562" 
d="M334 429l-158 -77v-289h370l-11 -63h-430v318l-95 -46v59l95 47v320h71v-285l158 78v-62z" />
    <glyph glyph-name="uni1E42" unicode="&#x1e42;" horiz-adv-x="861" 
d="M696 0v310c0 134 1 265 4 337h-3c-29 -103 -158 -427 -243 -647h-66c-64 174 -197 536 -229 648h-2c5 -80 7 -240 7 -359v-289h-69v698h107c88 -229 198 -527 223 -610h2c16 58 144 387 235 610h104v-698h-70zM459 -178h-73v97h73v-97z" />
    <glyph glyph-name="Nacute" unicode="&#x143;" horiz-adv-x="740" 
d="M165 0h-70v698h99c105 -166 343 -536 385 -612h1c-6 96 -5 202 -5 316v296h69v-698h-92c-99 157 -343 548 -390 626h-2c5 -86 5 -196 5 -322v-304zM472 898h94l-169 -137h-76z" />
    <glyph glyph-name="Ncaron" unicode="&#x147;" horiz-adv-x="740" 
d="M165 0h-70v698h99c105 -166 343 -536 385 -612h1c-6 96 -5 202 -5 316v296h69v-698h-92c-99 157 -343 548 -390 626h-2c5 -86 5 -196 5 -322v-304zM404 761h-72l-132 129h78l90 -88l98 88h76z" />
    <glyph glyph-name="Ntilde" unicode="&#xd1;" horiz-adv-x="740" 
d="M165 0h-70v698h99c105 -166 343 -536 385 -612h1c-6 96 -5 202 -5 316v296h69v-698h-92c-99 157 -343 548 -390 626h-2c5 -86 5 -196 5 -322v-304zM259 770h-54v17c0 69 32 94 81 94c61 0 126 -55 165 -55c21 0 34 10 34 46v13h51v-20c0 -72 -30 -96 -81 -96
c-58 0 -121 56 -166 56c-18 0 -30 -10 -30 -38v-17z" />
    <glyph glyph-name="uni0145" unicode="&#x145;" horiz-adv-x="740" 
d="M165 0h-70v698h99c105 -166 343 -536 385 -612h1c-6 96 -5 202 -5 316v296h69v-698h-92c-99 157 -343 548 -390 626h-2c5 -86 5 -196 5 -322v-304zM355 -249h-60c33 66 53 135 57 194h70c-4 -72 -36 -152 -67 -194z" />
    <glyph glyph-name="uni1E44" unicode="&#x1e44;" horiz-adv-x="740" 
d="M165 0h-70v698h99c105 -166 343 -536 385 -612h1c-6 96 -5 202 -5 316v296h69v-698h-92c-99 157 -343 548 -390 626h-2c5 -86 5 -196 5 -322v-304zM406 773h-70v103h70v-103z" />
    <glyph glyph-name="uni1E46" unicode="&#x1e46;" horiz-adv-x="740" 
d="M165 0h-70v698h99c105 -166 343 -536 385 -612h1c-6 96 -5 202 -5 316v296h69v-698h-92c-99 157 -343 548 -390 626h-2c5 -86 5 -196 5 -322v-304zM406 -178h-73v97h73v-97z" />
    <glyph glyph-name="uni1E48" unicode="&#x1e48;" horiz-adv-x="740" 
d="M165 0h-70v698h99c105 -166 343 -536 385 -612h1c-6 96 -5 202 -5 316v296h69v-698h-92c-99 157 -343 548 -390 626h-2c5 -86 5 -196 5 -322v-304zM235 -106h269v-59h-269v59z" />
    <glyph glyph-name="Ograve" unicode="&#xd2;" horiz-adv-x="746" 
d="M377 708c194 0 315 -149 315 -354c0 -192 -105 -364 -322 -364c-201 0 -315 159 -315 359c0 199 113 359 322 359zM374 645c-169 0 -244 -139 -244 -293c0 -156 84 -299 243 -299c172 0 243 141 243 299c0 157 -80 293 -242 293zM192 912h94l142 -137h-74z" />
    <glyph glyph-name="Oacute" unicode="&#xd3;" horiz-adv-x="746" 
d="M377 708c194 0 315 -149 315 -354c0 -192 -105 -364 -322 -364c-201 0 -315 159 -315 359c0 199 113 359 322 359zM374 645c-169 0 -244 -139 -244 -293c0 -156 84 -299 243 -299c172 0 243 141 243 299c0 157 -80 293 -242 293zM475 904h94l-169 -137h-76z" />
    <glyph glyph-name="Ocircumflex" unicode="&#xd4;" horiz-adv-x="746" 
d="M377 708c194 0 315 -149 315 -354c0 -192 -105 -364 -322 -364c-201 0 -315 159 -315 359c0 199 113 359 322 359zM374 645c-169 0 -244 -139 -244 -293c0 -156 84 -299 243 -299c172 0 243 141 243 299c0 157 -80 293 -242 293zM339 895h74l131 -129h-78l-90 88l-98 -88
h-76z" />
    <glyph glyph-name="Otilde" unicode="&#xd5;" horiz-adv-x="746" 
d="M377 708c194 0 315 -149 315 -354c0 -192 -105 -364 -322 -364c-201 0 -315 159 -315 359c0 199 113 359 322 359zM374 645c-169 0 -244 -139 -244 -293c0 -156 84 -299 243 -299c172 0 243 141 243 299c0 157 -80 293 -242 293zM262 776h-54v17c0 69 32 94 81 94
c61 0 126 -55 165 -55c21 0 34 10 34 46v13h51v-20c0 -72 -30 -96 -81 -96c-58 0 -121 56 -166 56c-18 0 -30 -10 -30 -38v-17z" />
    <glyph glyph-name="Odieresis" unicode="&#xd6;" horiz-adv-x="746" 
d="M377 708c194 0 315 -149 315 -354c0 -192 -105 -364 -322 -364c-201 0 -315 159 -315 359c0 199 113 359 322 359zM374 645c-169 0 -244 -139 -244 -293c0 -156 84 -299 243 -299c172 0 243 141 243 299c0 157 -80 293 -242 293zM307 780h-62v103h62v-103zM501 780h-61
v103h61v-103z" />
    <glyph glyph-name="Omacron" unicode="&#x14c;" horiz-adv-x="746" 
d="M377 708c194 0 315 -149 315 -354c0 -192 -105 -364 -322 -364c-201 0 -315 159 -315 359c0 199 113 359 322 359zM374 645c-169 0 -244 -139 -244 -293c0 -156 84 -299 243 -299c172 0 243 141 243 299c0 157 -80 293 -242 293zM238 855h270v-58h-270v58z" />
    <glyph glyph-name="Ohungarumlaut" unicode="&#x150;" horiz-adv-x="746" 
d="M377 708c194 0 315 -149 315 -354c0 -192 -105 -364 -322 -364c-201 0 -315 159 -315 359c0 199 113 359 322 359zM374 645c-169 0 -244 -139 -244 -293c0 -156 84 -299 243 -299c172 0 243 141 243 299c0 157 -80 293 -242 293zM354 901h81l-128 -137h-65zM523 901h80
l-128 -137h-65z" />
    <glyph glyph-name="uni01D1" unicode="&#x1d1;" horiz-adv-x="746" 
d="M377 708c194 0 315 -149 315 -354c0 -192 -105 -364 -322 -364c-201 0 -315 159 -315 359c0 199 113 359 322 359zM374 645c-169 0 -244 -139 -244 -293c0 -156 84 -299 243 -299c172 0 243 141 243 299c0 157 -80 293 -242 293zM406 768h-72l-132 129h78l90 -88l98 88
h76z" />
    <glyph glyph-name="uni1ECC" unicode="&#x1ecc;" horiz-adv-x="746" 
d="M377 708c194 0 315 -149 315 -354c0 -192 -105 -364 -322 -364c-201 0 -315 159 -315 359c0 199 113 359 322 359zM374 645c-169 0 -244 -139 -244 -293c0 -156 84 -299 243 -299c172 0 243 141 243 299c0 157 -80 293 -242 293zM409 -180h-73v97h73v-97z" />
    <glyph glyph-name="uni1ECE" unicode="&#x1ece;" horiz-adv-x="746" 
d="M377 708c194 0 315 -149 315 -354c0 -192 -105 -364 -322 -364c-201 0 -315 159 -315 359c0 199 113 359 322 359zM374 645c-169 0 -244 -139 -244 -293c0 -156 84 -299 243 -299c172 0 243 141 243 299c0 157 -80 293 -242 293zM409 761h-71c42 34 63 60 63 88
c0 21 -13 40 -45 40c-28 0 -46 -9 -62 -18l-18 43c21 15 53 29 93 29c63 0 94 -41 94 -85c0 -48 -30 -76 -54 -97z" />
    <glyph glyph-name="uni1ED0" unicode="&#x1ed0;" horiz-adv-x="746" 
d="M377 708c194 0 315 -149 315 -354c0 -192 -105 -364 -322 -364c-201 0 -315 159 -315 359c0 199 113 359 322 359zM374 645c-169 0 -244 -139 -244 -293c0 -156 84 -299 243 -299c172 0 243 141 243 299c0 157 -80 293 -242 293zM336 879h71l133 -118h-83l-86 74l-84 -74
h-80zM586 975h87l-124 -113h-69z" />
    <glyph glyph-name="uni1ED2" unicode="&#x1ed2;" horiz-adv-x="746" 
d="M377 708c194 0 315 -149 315 -354c0 -192 -105 -364 -322 -364c-201 0 -315 159 -315 359c0 199 113 359 322 359zM374 645c-169 0 -244 -139 -244 -293c0 -156 84 -299 243 -299c172 0 243 141 243 299c0 157 -80 293 -242 293zM336 879h71l133 -118h-83l-86 74l-84 -74
h-80zM433 960h91l108 -109h-67z" />
    <glyph glyph-name="uni1ED4" unicode="&#x1ed4;" horiz-adv-x="746" 
d="M377 708c194 0 315 -149 315 -354c0 -192 -105 -364 -322 -364c-201 0 -315 159 -315 359c0 199 113 359 322 359zM374 645c-169 0 -244 -139 -244 -293c0 -156 84 -299 243 -299c172 0 243 141 243 299c0 157 -80 293 -242 293zM565 858h-66c42 31 58 55 58 78
c0 18 -11 34 -40 34c-23 0 -44 -9 -59 -19l-19 41c20 14 49 29 87 29c56 0 88 -33 88 -77c0 -36 -23 -68 -49 -86zM336 879h71l133 -118h-83l-86 74l-84 -74h-80z" />
    <glyph glyph-name="uni1ED6" unicode="&#x1ed6;" horiz-adv-x="746" 
d="M377 708c194 0 315 -149 315 -354c0 -192 -105 -364 -322 -364c-201 0 -315 159 -315 359c0 199 113 359 322 359zM374 645c-169 0 -244 -139 -244 -293c0 -156 84 -299 243 -299c172 0 243 141 243 299c0 157 -80 293 -242 293zM268 892h-46v10c0 58 31 79 70 79
c55 0 117 -36 156 -36c17 0 30 4 30 27v8h46v-12c0 -55 -27 -76 -72 -76c-46 0 -115 37 -156 37c-15 0 -28 -8 -28 -30v-7zM334 853h76l128 -93h-83l-84 56l-82 -56h-82z" />
    <glyph glyph-name="uni1ED8" unicode="&#x1ed8;" horiz-adv-x="746" 
d="M377 708c194 0 315 -149 315 -354c0 -192 -105 -364 -322 -364c-201 0 -315 159 -315 359c0 199 113 359 322 359zM374 645c-169 0 -244 -139 -244 -293c0 -156 84 -299 243 -299c172 0 243 141 243 299c0 157 -80 293 -242 293zM409 -179h-73v97h73v-97zM339 889h74
l131 -129h-78l-90 88l-98 -88h-76z" />
    <glyph glyph-name="Oslash" unicode="&#xd8;" horiz-adv-x="746" 
d="M377 708c66 0 123 -18 170 -49l27 39h60l-48 -69c68 -64 106 -162 106 -275c0 -199 -105 -364 -322 -364c-75 0 -139 23 -188 62l-37 -52h-61l61 87c-59 65 -90 159 -90 262c0 197 117 359 322 359zM127 352c0 -77 20 -151 60 -206l322 460c-36 25 -81 40 -135 40
c-162 0 -247 -127 -247 -294zM373 52c171 0 246 133 246 300c0 87 -24 167 -73 221l-325 -465c39 -35 90 -56 152 -56z" />
    <glyph glyph-name="OE" unicode="&#x152;" horiz-adv-x="1014" 
d="M960 698v-65h-351v-233h333v-66h-333v-269h368l-10 -65h-415c-30 -4 -78 -10 -134 -10c-233 1 -363 150 -363 360c0 202 138 356 372 356c61 0 112 -5 134 -8h399zM536 62v573c-27 7 -82 9 -109 9c-173 0 -297 -100 -297 -291c0 -200 125 -301 292 -301c41 0 97 5 114 10
z" />
    <glyph glyph-name="Ohorn" unicode="&#x1a0;" horiz-adv-x="746" 
d="M377 708c79 0 146 -25 198 -68c38 13 52 37 52 67c0 20 -5 41 -11 56h66c3 -10 7 -32 7 -53c0 -51 -25 -93 -72 -113c48 -62 75 -147 75 -243c0 -192 -105 -364 -322 -364c-201 0 -315 159 -315 359c0 199 113 359 322 359zM374 645c-169 0 -244 -139 -244 -293
c0 -156 84 -299 243 -299c172 0 243 141 243 299c0 157 -80 293 -242 293z" />
    <glyph glyph-name="uni1EDA" unicode="&#x1eda;" horiz-adv-x="746" 
d="M377 708c79 0 146 -25 198 -68c38 13 52 37 52 67c0 20 -5 41 -11 56h66c3 -10 7 -32 7 -53c0 -51 -25 -93 -72 -113c48 -62 75 -147 75 -243c0 -192 -105 -364 -322 -364c-201 0 -315 159 -315 359c0 199 113 359 322 359zM374 645c-169 0 -244 -139 -244 -293
c0 -156 84 -299 243 -299c172 0 243 141 243 299c0 157 -80 293 -242 293zM474 899h94l-169 -137h-76z" />
    <glyph glyph-name="uni1EDC" unicode="&#x1edc;" horiz-adv-x="746" 
d="M377 708c79 0 146 -25 198 -68c38 13 52 37 52 67c0 20 -5 41 -11 56h66c3 -10 7 -32 7 -53c0 -51 -25 -93 -72 -113c48 -62 75 -147 75 -243c0 -192 -105 -364 -322 -364c-201 0 -315 159 -315 359c0 199 113 359 322 359zM374 645c-169 0 -244 -139 -244 -293
c0 -156 84 -299 243 -299c172 0 243 141 243 299c0 157 -80 293 -242 293zM195 899h94l142 -137h-74z" />
    <glyph glyph-name="uni1EDE" unicode="&#x1ede;" horiz-adv-x="746" 
d="M377 708c79 0 146 -25 198 -68c38 13 52 37 52 67c0 20 -5 41 -11 56h66c3 -10 7 -32 7 -53c0 -51 -25 -93 -72 -113c48 -62 75 -147 75 -243c0 -192 -105 -364 -322 -364c-201 0 -315 159 -315 359c0 199 113 359 322 359zM374 645c-169 0 -244 -139 -244 -293
c0 -156 84 -299 243 -299c172 0 243 141 243 299c0 157 -80 293 -242 293zM409 761h-71c42 34 63 60 63 88c0 21 -13 40 -45 40c-28 0 -46 -9 -62 -18l-18 43c21 15 53 29 93 29c63 0 94 -41 94 -85c0 -48 -30 -76 -54 -97z" />
    <glyph glyph-name="uni1EE0" unicode="&#x1ee0;" horiz-adv-x="746" 
d="M377 708c79 0 146 -25 198 -68c38 13 52 37 52 67c0 20 -5 41 -11 56h66c3 -10 7 -32 7 -53c0 -51 -25 -93 -72 -113c48 -62 75 -147 75 -243c0 -192 -105 -364 -322 -364c-201 0 -315 159 -315 359c0 199 113 359 322 359zM374 645c-169 0 -244 -139 -244 -293
c0 -156 84 -299 243 -299c172 0 243 141 243 299c0 157 -80 293 -242 293zM262 770h-54v17c0 69 32 94 81 94c61 0 126 -55 165 -55c21 0 34 10 34 46v13h51v-20c0 -72 -30 -96 -81 -96c-58 0 -121 56 -166 56c-18 0 -30 -10 -30 -38v-17z" />
    <glyph glyph-name="uni1EE2" unicode="&#x1ee2;" horiz-adv-x="746" 
d="M377 708c79 0 146 -25 198 -68c38 13 52 37 52 67c0 20 -5 41 -11 56h66c3 -10 7 -32 7 -53c0 -51 -25 -93 -72 -113c48 -62 75 -147 75 -243c0 -192 -105 -364 -322 -364c-201 0 -315 159 -315 359c0 199 113 359 322 359zM374 645c-169 0 -244 -139 -244 -293
c0 -156 84 -299 243 -299c172 0 243 141 243 299c0 157 -80 293 -242 293zM409 -179h-73v97h73v-97z" />
    <glyph glyph-name="Racute" unicode="&#x154;" horiz-adv-x="634" 
d="M325 318h-158v-318h-72v698h261c140 0 214 -76 214 -185c0 -90 -52 -146 -125 -164c65 -16 114 -61 114 -181v-28c0 -48 -4 -112 9 -140h-71c-13 30 -11 85 -11 148v16c0 108 -31 154 -161 154zM167 636v-256h161c115 0 167 43 167 129c0 81 -52 127 -154 127h-174z
M419 898h94l-169 -137h-76z" />
    <glyph glyph-name="Rcaron" unicode="&#x158;" horiz-adv-x="634" 
d="M325 318h-158v-318h-72v698h261c140 0 214 -76 214 -185c0 -90 -52 -146 -125 -164c65 -16 114 -61 114 -181v-28c0 -48 -4 -112 9 -140h-71c-13 30 -11 85 -11 148v16c0 108 -31 154 -161 154zM167 636v-256h161c115 0 167 43 167 129c0 81 -52 127 -154 127h-174z
M351 761h-72l-132 129h78l90 -88l98 88h76z" />
    <glyph glyph-name="uni0156" unicode="&#x156;" horiz-adv-x="634" 
d="M325 318h-158v-318h-72v698h261c140 0 214 -76 214 -185c0 -90 -52 -146 -125 -164c65 -16 114 -61 114 -181v-28c0 -48 -4 -112 9 -140h-71c-13 30 -11 85 -11 148v16c0 108 -31 154 -161 154zM167 636v-256h161c115 0 167 43 167 129c0 81 -52 127 -154 127h-174z
M304 -249h-60c33 66 53 135 57 194h70c-4 -72 -36 -152 -67 -194z" />
    <glyph glyph-name="uni1E5A" unicode="&#x1e5a;" horiz-adv-x="634" 
d="M325 318h-158v-318h-72v698h261c140 0 214 -76 214 -185c0 -90 -52 -146 -125 -164c65 -16 114 -61 114 -181v-28c0 -48 -4 -112 9 -140h-71c-13 30 -11 85 -11 148v16c0 108 -31 154 -161 154zM167 636v-256h161c115 0 167 43 167 129c0 81 -52 127 -154 127h-174z
M362 -170h-73v97h73v-97z" />
    <glyph glyph-name="uni1E5C" unicode="&#x1e5c;" horiz-adv-x="634" 
d="M325 318h-158v-318h-72v698h261c140 0 214 -76 214 -185c0 -90 -52 -146 -125 -164c65 -16 114 -61 114 -181v-28c0 -48 -4 -112 9 -140h-71c-13 30 -11 85 -11 148v16c0 108 -31 154 -161 154zM167 636v-256h161c115 0 167 43 167 129c0 81 -52 127 -154 127h-174z
M363 -168h-73v97h73v-97zM180 843h270v-58h-270v58z" />
    <glyph glyph-name="uni1E5E" unicode="&#x1e5e;" horiz-adv-x="634" 
d="M325 318h-158v-318h-72v698h261c140 0 214 -76 214 -185c0 -90 -52 -146 -125 -164c65 -16 114 -61 114 -181v-28c0 -48 -4 -112 9 -140h-71c-13 30 -11 85 -11 148v16c0 108 -31 154 -161 154zM167 636v-256h161c115 0 167 43 167 129c0 81 -52 127 -154 127h-174z
M192 -100h269v-59h-269v59z" />
    <glyph glyph-name="Sacute" unicode="&#x15a;" horiz-adv-x="596" 
d="M44 191h74c20 -89 79 -140 188 -140c119 0 165 58 165 130c0 75 -34 119 -182 155c-155 39 -216 90 -216 190c0 97 71 182 224 182c159 0 226 -95 235 -183h-73c-15 69 -59 122 -165 122c-94 0 -146 -43 -146 -116c0 -71 43 -99 169 -130c198 -49 230 -127 230 -214
c0 -107 -79 -195 -245 -195c-175 0 -244 99 -258 199zM399 906h94l-169 -137h-76z" />
    <glyph glyph-name="Scircumflex" unicode="&#x15c;" horiz-adv-x="596" 
d="M44 191h74c20 -89 79 -140 188 -140c119 0 165 58 165 130c0 75 -34 119 -182 155c-155 39 -216 90 -216 190c0 97 71 182 224 182c159 0 226 -95 235 -183h-73c-15 69 -59 122 -165 122c-94 0 -146 -43 -146 -116c0 -71 43 -99 169 -130c198 -49 230 -127 230 -214
c0 -107 -79 -195 -245 -195c-175 0 -244 99 -258 199zM263 890h74l131 -129h-78l-90 88l-98 -88h-76z" />
    <glyph glyph-name="Scaron" unicode="&#x160;" horiz-adv-x="596" 
d="M44 191h74c20 -89 79 -140 188 -140c119 0 165 58 165 130c0 75 -34 119 -182 155c-155 39 -216 90 -216 190c0 97 71 182 224 182c159 0 226 -95 235 -183h-73c-15 69 -59 122 -165 122c-94 0 -146 -43 -146 -116c0 -71 43 -99 169 -130c198 -49 230 -127 230 -214
c0 -107 -79 -195 -245 -195c-175 0 -244 99 -258 199zM330 761h-72l-132 129h78l90 -88l98 88h76z" />
    <glyph glyph-name="uni015E" unicode="&#x15e;" horiz-adv-x="596" 
d="M44 191h74c20 -89 79 -140 188 -140c119 0 165 58 165 130c0 75 -34 119 -182 155c-155 39 -216 90 -216 190c0 97 71 182 224 182c159 0 226 -95 235 -183h-73c-15 69 -59 122 -165 122c-94 0 -146 -43 -146 -116c0 -71 43 -99 169 -130c198 -49 230 -127 230 -214
c0 -101 -70 -185 -216 -194l-36 -46c37 -5 101 -25 101 -93c0 -77 -67 -95 -117 -95c-35 0 -59 7 -72 13v54c18 -8 52 -13 69 -13c38 0 57 13 57 38c0 40 -54 49 -110 50v25l49 67c-153 11 -215 104 -228 198z" />
    <glyph glyph-name="uni0218" unicode="&#x218;" horiz-adv-x="596" 
d="M44 191h74c20 -89 79 -140 188 -140c119 0 165 58 165 130c0 75 -34 119 -182 155c-155 39 -216 90 -216 190c0 97 71 182 224 182c159 0 226 -95 235 -183h-73c-15 69 -59 122 -165 122c-94 0 -146 -43 -146 -116c0 -71 43 -99 169 -130c198 -49 230 -127 230 -214
c0 -107 -79 -195 -245 -195c-175 0 -244 99 -258 199zM283 -250h-60c33 66 53 135 57 194h70c-4 -72 -36 -152 -67 -194z" />
    <glyph glyph-name="uni1E60" unicode="&#x1e60;" horiz-adv-x="596" 
d="M44 191h74c20 -89 79 -140 188 -140c119 0 165 58 165 130c0 75 -34 119 -182 155c-155 39 -216 90 -216 190c0 97 71 182 224 182c159 0 226 -95 235 -183h-73c-15 69 -59 122 -165 122c-94 0 -146 -43 -146 -116c0 -71 43 -99 169 -130c198 -49 230 -127 230 -214
c0 -107 -79 -195 -245 -195c-175 0 -244 99 -258 199zM332 774h-70v103h70v-103z" />
    <glyph glyph-name="uni1E62" unicode="&#x1e62;" horiz-adv-x="596" 
d="M44 191h74c20 -89 79 -140 188 -140c119 0 165 58 165 130c0 75 -34 119 -182 155c-155 39 -216 90 -216 190c0 97 71 182 224 182c159 0 226 -95 235 -183h-73c-15 69 -59 122 -165 122c-94 0 -146 -43 -146 -116c0 -71 43 -99 169 -130c198 -49 230 -127 230 -214
c0 -107 -79 -195 -245 -195c-175 0 -244 99 -258 199zM333 -178h-73v97h73v-97z" />
    <glyph glyph-name="uni1E9E" unicode="&#x1e9e;" horiz-adv-x="634" 
d="M166 491v-491h-70v513c0 142 99 195 232 195c180 0 238 -99 238 -174c0 -8 -1 -24 -2 -29l-178 -110v-5l80 -46c108 -64 139 -114 139 -183c0 -101 -72 -171 -201 -171c-77 0 -134 26 -167 57v78c44 -49 109 -77 167 -77c95 0 131 54 131 107c0 54 -24 84 -108 133
l-113 65c-25 15 -26 46 1 64l176 113c1 40 -25 120 -163 120c-100 0 -162 -28 -162 -159z" />
    <glyph glyph-name="Tcaron" unicode="&#x164;" horiz-adv-x="547" 
d="M237 0v635h-230v63h533v-63h-231v-635h-72zM306 761h-72l-132 129h78l90 -88l98 88h76z" />
    <glyph glyph-name="uni0162" unicode="&#x162;" horiz-adv-x="547" 
d="M237 0v635h-230v63h533v-63h-231v-635h-3l-41 -53c37 -5 101 -25 101 -93c0 -77 -67 -95 -117 -95c-35 0 -59 7 -72 13v54c18 -8 52 -13 69 -13c38 0 57 13 57 38c0 40 -54 49 -110 50v25l55 74h-11z" />
    <glyph glyph-name="uni021A" unicode="&#x21a;" horiz-adv-x="547" 
d="M237 0v635h-230v63h533v-63h-231v-635h-72zM241 -249h-60c33 66 53 135 57 194h70c-4 -72 -36 -152 -67 -194z" />
    <glyph glyph-name="uni1E6C" unicode="&#x1e6c;" horiz-adv-x="547" 
d="M237 0v635h-230v63h533v-63h-231v-635h-72zM309 -178h-73v97h73v-97z" />
    <glyph glyph-name="uni1E6E" unicode="&#x1e6e;" horiz-adv-x="547" 
d="M237 0v635h-230v63h533v-63h-231v-635h-72zM138 -106h269v-59h-269v59z" />
    <glyph glyph-name="Ugrave" unicode="&#xd9;" horiz-adv-x="710" 
d="M90 698h73v-422c0 -176 98 -222 193 -222c111 0 192 48 192 222v422h72v-418c0 -222 -120 -288 -266 -288c-141 0 -264 72 -264 280v426zM176 898h94l142 -137h-74z" />
    <glyph glyph-name="Uacute" unicode="&#xda;" horiz-adv-x="710" 
d="M90 698h73v-422c0 -176 98 -222 193 -222c111 0 192 48 192 222v422h72v-418c0 -222 -120 -288 -266 -288c-141 0 -264 72 -264 280v426zM456 898h94l-169 -137h-76z" />
    <glyph glyph-name="Ucircumflex" unicode="&#xdb;" horiz-adv-x="710" 
d="M90 698h73v-422c0 -176 98 -222 193 -222c111 0 192 48 192 222v422h72v-418c0 -222 -120 -288 -266 -288c-141 0 -264 72 -264 280v426zM321 900h74l131 -129h-78l-90 88l-98 -88h-76z" />
    <glyph glyph-name="Utilde" unicode="&#x168;" horiz-adv-x="710" 
d="M90 698h73v-422c0 -176 98 -222 193 -222c111 0 192 48 192 222v422h72v-418c0 -222 -120 -288 -266 -288c-141 0 -264 72 -264 280v426zM244 777h-54v17c0 69 32 94 81 94c61 0 126 -55 165 -55c21 0 34 10 34 46v13h51v-20c0 -72 -30 -96 -81 -96
c-58 0 -121 56 -166 56c-18 0 -30 -10 -30 -38v-17z" />
    <glyph glyph-name="Udieresis" unicode="&#xdc;" horiz-adv-x="710" 
d="M90 698h73v-422c0 -176 98 -222 193 -222c111 0 192 48 192 222v422h72v-418c0 -222 -120 -288 -266 -288c-141 0 -264 72 -264 280v426zM289 774h-62v103h62v-103zM483 774h-61v103h61v-103z" />
    <glyph glyph-name="Umacron" unicode="&#x16a;" horiz-adv-x="710" 
d="M90 698h73v-422c0 -176 98 -222 193 -222c111 0 192 48 192 222v422h72v-418c0 -222 -120 -288 -266 -288c-141 0 -264 72 -264 280v426zM220 851h270v-58h-270v58z" />
    <glyph glyph-name="Ubreve" unicode="&#x16c;" horiz-adv-x="710" 
d="M90 698h73v-422c0 -176 98 -222 193 -222c111 0 192 48 192 222v422h72v-418c0 -222 -120 -288 -266 -288c-141 0 -264 72 -264 280v426zM207 889h56c8 -42 40 -71 92 -71c61 0 85 33 94 71h54c-11 -74 -62 -126 -148 -126c-98 0 -142 63 -148 126z" />
    <glyph glyph-name="Uring" unicode="&#x16e;" horiz-adv-x="710" 
d="M90 698h73v-422c0 -176 98 -222 193 -222c111 0 192 48 192 222v422h72v-418c0 -222 -120 -288 -266 -288c-141 0 -264 72 -264 280v426zM355 742c-62 0 -101 43 -101 95s38 97 100 97c63 0 101 -43 101 -95c0 -54 -41 -97 -100 -97zM355 783c35 0 54 27 54 55
c0 27 -18 56 -54 56c-37 0 -54 -27 -54 -54c0 -29 17 -57 54 -57z" />
    <glyph glyph-name="Uhungarumlaut" unicode="&#x170;" horiz-adv-x="710" 
d="M90 698h73v-422c0 -176 98 -222 193 -222c111 0 192 48 192 222v422h72v-418c0 -222 -120 -288 -266 -288c-141 0 -264 72 -264 280v426zM336 906h81l-128 -137h-65zM505 906h80l-128 -137h-65z" />
    <glyph glyph-name="uni01D3" unicode="&#x1d3;" horiz-adv-x="710" 
d="M90 698h73v-422c0 -176 98 -222 193 -222c111 0 192 48 192 222v422h72v-418c0 -222 -120 -288 -266 -288c-141 0 -264 72 -264 280v426zM388 769h-72l-132 129h78l90 -88l98 88h76z" />
    <glyph glyph-name="uni01D5" unicode="&#x1d5;" horiz-adv-x="710" 
d="M90 698h73v-422c0 -176 98 -222 193 -222c111 0 192 48 192 222v422h72v-418c0 -222 -120 -288 -266 -288c-141 0 -264 72 -264 280v426zM284 762h-63v81h63v-81zM480 892h-251v56h251v-56zM489 762h-63v81h63v-81z" />
    <glyph glyph-name="uni01D7" unicode="&#x1d7;" horiz-adv-x="710" 
d="M90 698h73v-422c0 -176 98 -222 193 -222c111 0 192 48 192 222v422h72v-418c0 -222 -120 -288 -266 -288c-141 0 -264 72 -264 280v426zM221 840h63v-80h-63v80zM316 872l99 120h89l-121 -120h-67zM489 760h-63v80h63v-80z" />
    <glyph glyph-name="uni01D9" unicode="&#x1d9;" horiz-adv-x="710" 
d="M90 698h73v-422c0 -176 98 -222 193 -222c111 0 192 48 192 222v422h72v-418c0 -222 -120 -288 -266 -288c-141 0 -264 72 -264 280v426zM386 866h-69l-110 121h71l74 -80l74 80h69zM286 758h-63v80h63v-80zM491 758h-63v80h63v-80z" />
    <glyph glyph-name="uni01DB" unicode="&#x1db;" horiz-adv-x="710" 
d="M90 698h73v-422c0 -176 98 -222 193 -222c111 0 192 48 192 222v422h72v-418c0 -222 -120 -288 -266 -288c-141 0 -264 72 -264 280v426zM221 840h63v-80h-63v80zM394 872h-65l-119 120h85zM489 760h-63v80h63v-80z" />
    <glyph glyph-name="uni1EE4" unicode="&#x1ee4;" horiz-adv-x="710" 
d="M90 698h73v-422c0 -176 98 -222 193 -222c111 0 192 48 192 222v422h72v-418c0 -222 -120 -288 -266 -288c-141 0 -264 72 -264 280v426zM391 -179h-73v97h73v-97z" />
    <glyph glyph-name="uni1EE6" unicode="&#x1ee6;" horiz-adv-x="710" 
d="M90 698h73v-422c0 -176 98 -222 193 -222c111 0 192 48 192 222v422h72v-418c0 -222 -120 -288 -266 -288c-141 0 -264 72 -264 280v426zM390 759h-71c42 34 63 60 63 88c0 21 -13 40 -45 40c-28 0 -46 -9 -62 -18l-18 43c21 15 53 29 93 29c63 0 94 -41 94 -85
c0 -48 -30 -76 -54 -97z" />
    <glyph glyph-name="Uogonek" unicode="&#x172;" horiz-adv-x="710" 
d="M90 698h73v-422c0 -176 98 -222 193 -222c111 0 192 48 192 222v422h72v-418c0 -155 -59 -234 -144 -268c-30 -28 -65 -65 -65 -111c0 -35 25 -56 58 -56c26 0 45 4 61 10v-56c-19 -12 -49 -17 -76 -17c-69 0 -112 41 -112 108c0 37 19 73 44 103c-11 -1 -21 -1 -32 -1
c-141 0 -264 72 -264 280v426z" />
    <glyph glyph-name="Uhorn" unicode="&#x1af;" horiz-adv-x="710" 
d="M90 698h73v-422c0 -176 98 -222 193 -222c111 0 192 48 192 222v422h35c49 11 67 37 67 71c0 20 -5 41 -11 56h66c3 -10 7 -32 7 -53c0 -57 -32 -104 -92 -120v-372c0 -222 -120 -288 -266 -288c-141 0 -264 72 -264 280v426z" />
    <glyph glyph-name="uni1EE8" unicode="&#x1ee8;" horiz-adv-x="710" 
d="M90 698h73v-422c0 -176 98 -222 193 -222c111 0 192 48 192 222v422h35c49 11 67 37 67 71c0 20 -5 41 -11 56h66c3 -10 7 -32 7 -53c0 -57 -32 -104 -92 -120v-372c0 -222 -120 -288 -266 -288c-141 0 -264 72 -264 280v426zM457 898h94l-169 -137h-76z" />
    <glyph glyph-name="uni1EEA" unicode="&#x1eea;" horiz-adv-x="710" 
d="M90 698h73v-422c0 -176 98 -222 193 -222c111 0 192 48 192 222v422h35c49 11 67 37 67 71c0 20 -5 41 -11 56h66c3 -10 7 -32 7 -53c0 -57 -32 -104 -92 -120v-372c0 -222 -120 -288 -266 -288c-141 0 -264 72 -264 280v426zM176 896h94l142 -137h-74z" />
    <glyph glyph-name="uni1EEC" unicode="&#x1eec;" horiz-adv-x="710" 
d="M90 698h73v-422c0 -176 98 -222 193 -222c111 0 192 48 192 222v422h35c49 11 67 37 67 71c0 20 -5 41 -11 56h66c3 -10 7 -32 7 -53c0 -57 -32 -104 -92 -120v-372c0 -222 -120 -288 -266 -288c-141 0 -264 72 -264 280v426zM390 760h-71c42 34 63 60 63 88
c0 21 -13 40 -45 40c-28 0 -46 -9 -62 -18l-18 43c21 15 53 29 93 29c63 0 94 -41 94 -85c0 -48 -30 -76 -54 -97z" />
    <glyph glyph-name="uni1EEE" unicode="&#x1eee;" horiz-adv-x="710" 
d="M90 698h73v-422c0 -176 98 -222 193 -222c111 0 192 48 192 222v422h35c49 11 67 37 67 71c0 20 -5 41 -11 56h66c3 -10 7 -32 7 -53c0 -57 -32 -104 -92 -120v-372c0 -222 -120 -288 -266 -288c-141 0 -264 72 -264 280v426zM244 770h-54v17c0 69 32 94 81 94
c61 0 126 -55 165 -55c21 0 34 10 34 46v13h51v-20c0 -72 -30 -96 -81 -96c-58 0 -121 56 -166 56c-18 0 -30 -10 -30 -38v-17z" />
    <glyph glyph-name="uni1EF0" unicode="&#x1ef0;" horiz-adv-x="710" 
d="M90 698h73v-422c0 -176 98 -222 193 -222c111 0 192 48 192 222v422h35c49 11 67 37 67 71c0 20 -5 41 -11 56h66c3 -10 7 -32 7 -53c0 -57 -32 -104 -92 -120v-372c0 -222 -120 -288 -266 -288c-141 0 -264 72 -264 280v426zM391 -178h-73v97h73v-97z" />
    <glyph glyph-name="Wgrave" unicode="&#x1e80;" horiz-adv-x="930" 
d="M293 0h-78l-191 698h75c50 -195 142 -537 157 -618h1c15 76 122 436 169 618h73c44 -164 149 -549 162 -616h1c22 109 130 460 174 616h71l-209 -698h-79c-44 163 -144 535 -158 605h-1c-20 -97 -119 -437 -167 -605zM268 898h94l142 -137h-74z" />
    <glyph glyph-name="Wacute" unicode="&#x1e82;" horiz-adv-x="930" 
d="M293 0h-78l-191 698h75c50 -195 142 -537 157 -618h1c15 76 122 436 169 618h73c44 -164 149 -549 162 -616h1c22 109 130 460 174 616h71l-209 -698h-79c-44 163 -144 535 -158 605h-1c-20 -97 -119 -437 -167 -605zM572 897h94l-169 -137h-76z" />
    <glyph glyph-name="Wcircumflex" unicode="&#x174;" horiz-adv-x="930" 
d="M293 0h-78l-191 698h75c50 -195 142 -537 157 -618h1c15 76 122 436 169 618h73c44 -164 149 -549 162 -616h1c22 109 130 460 174 616h71l-209 -698h-79c-44 163 -144 535 -158 605h-1c-20 -97 -119 -437 -167 -605zM430 890h74l131 -129h-78l-90 88l-98 -88h-76z" />
    <glyph glyph-name="Wdieresis" unicode="&#x1e84;" horiz-adv-x="930" 
d="M293 0h-78l-191 698h75c50 -195 142 -537 157 -618h1c15 76 122 436 169 618h73c44 -164 149 -549 162 -616h1c22 109 130 460 174 616h71l-209 -698h-79c-44 163 -144 535 -158 605h-1c-20 -97 -119 -437 -167 -605zM398 773h-62v103h62v-103zM592 773h-61v103h61v-103z
" />
    <glyph glyph-name="Ygrave" unicode="&#x1ef2;" horiz-adv-x="580" 
d="M322 0h-73v259c0 7 -1 14 -4 18l-248 421h83c67 -116 179 -311 210 -367c30 56 144 250 215 367h77l-257 -424c-2 -4 -3 -8 -3 -17v-257zM110 897h94l142 -137h-74z" />
    <glyph glyph-name="Yacute" unicode="&#xdd;" horiz-adv-x="580" 
d="M322 0h-73v259c0 7 -1 14 -4 18l-248 421h83c67 -116 179 -311 210 -367c30 56 144 250 215 367h77l-257 -424c-2 -4 -3 -8 -3 -17v-257zM391 897h94l-169 -137h-76z" />
    <glyph glyph-name="Ycircumflex" unicode="&#x176;" horiz-adv-x="580" 
d="M322 0h-73v259c0 7 -1 14 -4 18l-248 421h83c67 -116 179 -311 210 -367c30 56 144 250 215 367h77l-257 -424c-2 -4 -3 -8 -3 -17v-257zM255 890h74l131 -129h-78l-90 88l-98 -88h-76z" />
    <glyph glyph-name="Ydieresis" unicode="&#x178;" horiz-adv-x="580" 
d="M322 0h-73v259c0 7 -1 14 -4 18l-248 421h83c67 -116 179 -311 210 -367c30 56 144 250 215 367h77l-257 -424c-2 -4 -3 -8 -3 -17v-257zM223 773h-62v103h62v-103zM417 773h-61v103h61v-103z" />
    <glyph glyph-name="uni1E8E" unicode="&#x1e8e;" horiz-adv-x="580" 
d="M322 0h-73v259c0 7 -1 14 -4 18l-248 421h83c67 -116 179 -311 210 -367c30 56 144 250 215 367h77l-257 -424c-2 -4 -3 -8 -3 -17v-257zM324 772h-70v103h70v-103z" />
    <glyph glyph-name="uni1EF4" unicode="&#x1ef4;" horiz-adv-x="580" 
d="M322 0h-73v259c0 7 -1 14 -4 18l-248 421h83c67 -116 179 -311 210 -367c30 56 144 250 215 367h77l-257 -424c-2 -4 -3 -8 -3 -17v-257zM322 -178h-73v97h73v-97z" />
    <glyph glyph-name="uni1EF6" unicode="&#x1ef6;" horiz-adv-x="580" 
d="M322 0h-73v259c0 7 -1 14 -4 18l-248 421h83c67 -116 179 -311 210 -367c30 56 144 250 215 367h77l-257 -424c-2 -4 -3 -8 -3 -17v-257zM325 751h-71c42 34 63 60 63 88c0 21 -13 40 -45 40c-28 0 -46 -9 -62 -18l-18 43c21 15 53 29 93 29c63 0 94 -41 94 -85
c0 -48 -30 -76 -54 -97z" />
    <glyph glyph-name="uni1EF8" unicode="&#x1ef8;" horiz-adv-x="580" 
d="M322 0h-73v259c0 7 -1 14 -4 18l-248 421h83c67 -116 179 -311 210 -367c30 56 144 250 215 367h77l-257 -424c-2 -4 -3 -8 -3 -17v-257zM178 770h-54v17c0 69 32 94 81 94c61 0 126 -55 165 -55c21 0 34 10 34 46v13h51v-20c0 -72 -30 -96 -81 -96
c-58 0 -121 56 -166 56c-18 0 -30 -10 -30 -38v-17z" />
    <glyph glyph-name="Zacute" unicode="&#x179;" horiz-adv-x="589" 
d="M31 0v57l440 578h-418v63h501v-60l-435 -575h446l-11 -63h-523zM395 906h94l-169 -137h-76z" />
    <glyph glyph-name="Zcaron" unicode="&#x17d;" horiz-adv-x="589" 
d="M31 0v57l440 578h-418v63h501v-60l-435 -575h446l-11 -63h-523zM327 770h-72l-132 129h78l90 -88l98 88h76z" />
    <glyph glyph-name="Zdotaccent" unicode="&#x17b;" horiz-adv-x="589" 
d="M31 0v57l440 578h-418v63h501v-60l-435 -575h446l-11 -63h-523zM329 787h-70v103h70v-103z" />
    <glyph glyph-name="uni1E92" unicode="&#x1e92;" horiz-adv-x="589" 
d="M31 0v57l440 578h-418v63h501v-60l-435 -575h446l-11 -63h-523zM330 -178h-73v97h73v-97z" />
    <glyph glyph-name="Eth" unicode="&#xd0;" horiz-adv-x="724" 
d="M18 389h87v309h240c193 0 326 -134 326 -342s-130 -356 -328 -356h-238v331h-87v58zM176 635v-246h193v-58h-193v-268h159c175 0 260 124 260 290c0 146 -77 282 -260 282h-159z" />
    <glyph glyph-name="Thorn" unicode="&#xde;" horiz-adv-x="617" 
d="M95 0v698h71v-139h167c160 0 233 -86 233 -198c0 -132 -93 -204 -241 -204h-159v-157h-71zM166 496v-276h158c95 0 168 30 168 141c0 90 -61 135 -163 135h-163z" />
    <glyph glyph-name="uni018F" unicode="&#x18f;" horiz-adv-x="710" 
d="M656 361c0 -216 -111 -371 -308 -371c-191 0 -298 132 -298 333c0 16 1 33 1 46h530c-2 175 -93 276 -235 276c-130 0 -184 -67 -216 -137h-70c28 93 117 200 290 200c208 0 306 -167 306 -347zM580 310h-455c-2 -166 92 -258 226 -258c132 0 215 96 229 258z" />
    <glyph glyph-name="agrave" unicode="&#xe0;" horiz-adv-x="517" 
d="M437 354v-252c0 -45 4 -87 7 -102h-64c-4 12 -7 35 -8 72c-18 -35 -60 -84 -161 -84c-118 0 -168 76 -168 152c0 112 87 162 237 162h91v48c0 48 -15 109 -120 109c-94 0 -108 -48 -118 -88h-66c6 61 44 144 186 144c118 0 184 -49 184 -161zM372 234v17h-91
c-106 0 -169 -28 -169 -107c0 -59 41 -100 108 -100c134 0 152 89 152 190zM85 746h86l133 -156h-67z" />
    <glyph glyph-name="aacute" unicode="&#xe1;" horiz-adv-x="517" 
d="M437 354v-252c0 -45 4 -87 7 -102h-64c-4 12 -7 35 -8 72c-18 -35 -60 -84 -161 -84c-118 0 -168 76 -168 152c0 112 87 162 237 162h91v48c0 48 -15 109 -120 109c-94 0 -108 -48 -118 -88h-66c6 61 44 144 186 144c118 0 184 -49 184 -161zM372 234v17h-91
c-106 0 -169 -28 -169 -107c0 -59 41 -100 108 -100c134 0 152 89 152 190zM338 746h85l-151 -156h-67z" />
    <glyph glyph-name="acircumflex" unicode="&#xe2;" horiz-adv-x="517" 
d="M437 354v-252c0 -45 4 -87 7 -102h-64c-4 12 -7 35 -8 72c-18 -35 -60 -84 -161 -84c-118 0 -168 76 -168 152c0 112 87 162 237 162h91v48c0 48 -15 109 -120 109c-94 0 -108 -48 -118 -88h-66c6 61 44 144 186 144c118 0 184 -49 184 -161zM372 234v17h-91
c-106 0 -169 -28 -169 -107c0 -59 41 -100 108 -100c134 0 152 89 152 190zM225 736h68l110 -153h-70l-74 111l-73 -111h-69z" />
    <glyph glyph-name="atilde" unicode="&#xe3;" horiz-adv-x="517" 
d="M437 354v-252c0 -45 4 -87 7 -102h-64c-4 12 -7 35 -8 72c-18 -35 -60 -84 -161 -84c-118 0 -168 76 -168 152c0 112 87 162 237 162h91v48c0 48 -15 109 -120 109c-94 0 -108 -48 -118 -88h-66c6 61 44 144 186 144c118 0 184 -49 184 -161zM372 234v17h-91
c-106 0 -169 -28 -169 -107c0 -59 41 -100 108 -100c134 0 152 89 152 190zM162 611h-51v19c0 67 30 91 77 91c54 0 104 -52 141 -52c20 0 30 10 30 45v11h50v-19c0 -69 -30 -95 -77 -95c-55 0 -97 53 -142 53c-18 0 -28 -10 -28 -36v-17z" />
    <glyph glyph-name="adieresis" unicode="&#xe4;" horiz-adv-x="517" 
d="M437 354v-252c0 -45 4 -87 7 -102h-64c-4 12 -7 35 -8 72c-18 -35 -60 -84 -161 -84c-118 0 -168 76 -168 152c0 112 87 162 237 162h91v48c0 48 -15 109 -120 109c-94 0 -108 -48 -118 -88h-66c6 61 44 144 186 144c118 0 184 -49 184 -161zM372 234v17h-91
c-106 0 -169 -28 -169 -107c0 -59 41 -100 108 -100c134 0 152 89 152 190zM202 634h-62v102h62v-102zM379 634h-62v102h62v-102z" />
    <glyph glyph-name="amacron" unicode="&#x101;" horiz-adv-x="517" 
d="M437 354v-252c0 -45 4 -87 7 -102h-64c-4 12 -7 35 -8 72c-18 -35 -60 -84 -161 -84c-118 0 -168 76 -168 152c0 112 87 162 237 162h91v48c0 48 -15 109 -120 109c-94 0 -108 -48 -118 -88h-66c6 61 44 144 186 144c118 0 184 -49 184 -161zM372 234v17h-91
c-106 0 -169 -28 -169 -107c0 -59 41 -100 108 -100c134 0 152 89 152 190zM125 696h269v-59h-269v59z" />
    <glyph glyph-name="abreve" unicode="&#x103;" horiz-adv-x="517" 
d="M437 354v-252c0 -45 4 -87 7 -102h-64c-4 12 -7 35 -8 72c-18 -35 -60 -84 -161 -84c-118 0 -168 76 -168 152c0 112 87 162 237 162h91v48c0 48 -15 109 -120 109c-94 0 -108 -48 -118 -88h-66c6 61 44 144 186 144c118 0 184 -49 184 -161zM372 234v17h-91
c-106 0 -169 -28 -169 -107c0 -59 41 -100 108 -100c134 0 152 89 152 190zM121 721h52c9 -41 36 -75 86 -75c61 0 79 39 88 75h52c-10 -74 -57 -131 -140 -131c-94 0 -133 67 -138 131z" />
    <glyph glyph-name="aring" unicode="&#xe5;" horiz-adv-x="517" 
d="M437 354v-252c0 -45 4 -87 7 -102h-64c-4 12 -7 35 -8 72c-18 -35 -60 -84 -161 -84c-118 0 -168 76 -168 152c0 112 87 162 237 162h91v48c0 48 -15 109 -120 109c-94 0 -108 -48 -118 -88h-66c6 61 44 144 186 144c118 0 184 -49 184 -161zM372 234v17h-91
c-106 0 -169 -28 -169 -107c0 -59 41 -100 108 -100c134 0 152 89 152 190zM260 564c-62 0 -101 43 -101 95s38 97 100 97c63 0 101 -43 101 -95c0 -54 -41 -97 -100 -97zM260 605c35 0 54 27 54 55c0 27 -18 56 -54 56c-37 0 -54 -27 -54 -54c0 -29 17 -57 54 -57z" />
    <glyph glyph-name="uni01CE" unicode="&#x1ce;" horiz-adv-x="517" 
d="M437 354v-252c0 -45 4 -87 7 -102h-64c-4 12 -7 35 -8 72c-18 -35 -60 -84 -161 -84c-118 0 -168 76 -168 152c0 112 87 162 237 162h91v48c0 48 -15 109 -120 109c-94 0 -108 -48 -118 -88h-66c6 61 44 144 186 144c118 0 184 -49 184 -161zM372 234v17h-91
c-106 0 -169 -28 -169 -107c0 -59 41 -100 108 -100c134 0 152 89 152 190zM296 583h-71l-108 153h70l74 -110l72 110h70z" />
    <glyph glyph-name="uni1EA1" unicode="&#x1ea1;" horiz-adv-x="517" 
d="M437 354v-252c0 -45 4 -87 7 -102h-64c-4 12 -7 35 -8 72c-18 -35 -60 -84 -161 -84c-118 0 -168 76 -168 152c0 112 87 162 237 162h91v48c0 48 -15 109 -120 109c-94 0 -108 -48 -118 -88h-66c6 61 44 144 186 144c118 0 184 -49 184 -161zM372 234v17h-91
c-106 0 -169 -28 -169 -107c0 -59 41 -100 108 -100c134 0 152 89 152 190zM296 -178h-73v97h73v-97z" />
    <glyph glyph-name="uni1EA3" unicode="&#x1ea3;" horiz-adv-x="517" 
d="M437 354v-252c0 -45 4 -87 7 -102h-64c-4 12 -7 35 -8 72c-18 -35 -60 -84 -161 -84c-118 0 -168 76 -168 152c0 112 87 162 237 162h91v48c0 48 -15 109 -120 109c-94 0 -108 -48 -118 -88h-66c6 61 44 144 186 144c118 0 184 -49 184 -161zM372 234v17h-91
c-106 0 -169 -28 -169 -107c0 -59 41 -100 108 -100c134 0 152 89 152 190zM296 586h-71c42 34 63 60 63 88c0 21 -13 40 -45 40c-28 0 -46 -9 -62 -18l-18 43c21 15 53 29 93 29c63 0 94 -41 94 -85c0 -48 -30 -76 -54 -97z" />
    <glyph glyph-name="uni1EA5" unicode="&#x1ea5;" horiz-adv-x="517" 
d="M437 354v-252c0 -45 4 -87 7 -102h-64c-4 12 -7 35 -8 72c-18 -35 -60 -84 -161 -84c-118 0 -168 76 -168 152c0 112 87 162 237 162h91v48c0 48 -15 109 -120 109c-94 0 -108 -48 -118 -88h-66c6 61 44 144 186 144c118 0 184 -49 184 -161zM372 234v17h-91
c-106 0 -169 -28 -169 -107c0 -59 41 -100 108 -100c134 0 152 89 152 190zM223 702h73l107 -135h-69l-75 95l-73 -95h-69zM474 812h79l-128 -129h-62z" />
    <glyph glyph-name="uni1EA7" unicode="&#x1ea7;" horiz-adv-x="517" 
d="M437 354v-252c0 -45 4 -87 7 -102h-64c-4 12 -7 35 -8 72c-18 -35 -60 -84 -161 -84c-118 0 -168 76 -168 152c0 112 87 162 237 162h91v48c0 48 -15 109 -120 109c-94 0 -108 -48 -118 -88h-66c6 61 44 144 186 144c118 0 184 -49 184 -161zM372 234v17h-91
c-106 0 -169 -28 -169 -107c0 -59 41 -100 108 -100c134 0 152 89 152 190zM223 702h73l107 -135h-69l-75 95l-73 -95h-69zM315 805h80l101 -133h-60z" />
    <glyph glyph-name="uni1EA9" unicode="&#x1ea9;" horiz-adv-x="517" 
d="M437 354v-252c0 -45 4 -87 7 -102h-64c-4 12 -7 35 -8 72c-18 -35 -60 -84 -161 -84c-118 0 -168 76 -168 152c0 112 87 162 237 162h91v48c0 48 -15 109 -120 109c-94 0 -108 -48 -118 -88h-66c6 61 44 144 186 144c118 0 184 -49 184 -161zM372 234v17h-91
c-106 0 -169 -28 -169 -107c0 -59 41 -100 108 -100c134 0 152 89 152 190zM445 671h-64c39 30 57 55 57 78c0 20 -12 33 -38 33c-22 0 -44 -8 -58 -20l-19 38c19 17 50 31 87 31c56 0 84 -28 84 -74c0 -36 -24 -66 -49 -86zM223 702h73l107 -135h-69l-75 95l-73 -95h-69z
" />
    <glyph glyph-name="uni1EAB" unicode="&#x1eab;" horiz-adv-x="517" 
d="M437 354v-252c0 -45 4 -87 7 -102h-64c-4 12 -7 35 -8 72c-18 -35 -60 -84 -161 -84c-118 0 -168 76 -168 152c0 112 87 162 237 162h91v48c0 48 -15 109 -120 109c-94 0 -108 -48 -118 -88h-66c6 61 44 144 186 144c118 0 184 -49 184 -161zM372 234v17h-91
c-106 0 -169 -28 -169 -107c0 -59 41 -100 108 -100c134 0 152 89 152 190zM169 710h-45v10c0 58 30 79 68 79c53 0 93 -38 124 -38c17 0 28 6 28 29v8h46v-12c0 -55 -28 -76 -72 -76c-46 0 -85 39 -120 39c-16 0 -29 -11 -29 -33v-6zM217 666h76l111 -100h-77l-72 65
l-71 -65h-75z" />
    <glyph glyph-name="uni1EAD" unicode="&#x1ead;" horiz-adv-x="517" 
d="M437 354v-252c0 -45 4 -87 7 -102h-64c-4 12 -7 35 -8 72c-18 -35 -60 -84 -161 -84c-118 0 -168 76 -168 152c0 112 87 162 237 162h91v48c0 48 -15 109 -120 109c-94 0 -108 -48 -118 -88h-66c6 61 44 144 186 144c118 0 184 -49 184 -161zM372 234v17h-91
c-106 0 -169 -28 -169 -107c0 -59 41 -100 108 -100c134 0 152 89 152 190zM296 -178h-73v97h73v-97zM225 736h68l110 -153h-70l-74 111l-73 -111h-69z" />
    <glyph glyph-name="uni1EAF" unicode="&#x1eaf;" horiz-adv-x="517" 
d="M437 354v-252c0 -45 4 -87 7 -102h-64c-4 12 -7 35 -8 72c-18 -35 -60 -84 -161 -84c-118 0 -168 76 -168 152c0 112 87 162 237 162h91v48c0 48 -15 109 -120 109c-94 0 -108 -48 -118 -88h-66c6 61 44 144 186 144c118 0 184 -49 184 -161zM372 234v17h-91
c-106 0 -169 -28 -169 -107c0 -59 41 -100 108 -100c134 0 152 89 152 190zM115 682h55c11 -32 37 -59 87 -59c58 0 78 29 89 59h52c-14 -68 -61 -113 -141 -113c-89 0 -131 57 -142 113zM318 827h76l-112 -120h-64z" />
    <glyph glyph-name="uni1EB1" unicode="&#x1eb1;" horiz-adv-x="517" 
d="M437 354v-252c0 -45 4 -87 7 -102h-64c-4 12 -7 35 -8 72c-18 -35 -60 -84 -161 -84c-118 0 -168 76 -168 152c0 112 87 162 237 162h91v48c0 48 -15 109 -120 109c-94 0 -108 -48 -118 -88h-66c6 61 44 144 186 144c118 0 184 -49 184 -161zM372 234v17h-91
c-106 0 -169 -28 -169 -107c0 -59 41 -100 108 -100c134 0 152 89 152 190zM116 684h55c11 -32 37 -59 87 -59c58 0 78 29 89 59h52c-14 -68 -61 -113 -141 -113c-89 0 -131 57 -142 113zM118 829h80l99 -120h-64z" />
    <glyph glyph-name="uni1EB3" unicode="&#x1eb3;" horiz-adv-x="517" 
d="M437 354v-252c0 -45 4 -87 7 -102h-64c-4 12 -7 35 -8 72c-18 -35 -60 -84 -161 -84c-118 0 -168 76 -168 152c0 112 87 162 237 162h91v48c0 48 -15 109 -120 109c-94 0 -108 -48 -118 -88h-66c6 61 44 144 186 144c118 0 184 -49 184 -161zM372 234v17h-91
c-106 0 -169 -28 -169 -107c0 -59 41 -100 108 -100c134 0 152 89 152 190zM282 703h-62c41 31 63 55 63 79c0 21 -12 32 -38 32c-23 0 -44 -9 -59 -21l-17 37c18 17 47 34 85 34c56 0 83 -30 83 -75c0 -35 -25 -67 -55 -86zM118 685h55c11 -32 37 -59 87 -59
c58 0 78 29 89 59h52c-14 -68 -61 -113 -141 -113c-89 0 -131 57 -142 113z" />
    <glyph glyph-name="uni1EB5" unicode="&#x1eb5;" horiz-adv-x="517" 
d="M437 354v-252c0 -45 4 -87 7 -102h-64c-4 12 -7 35 -8 72c-18 -35 -60 -84 -161 -84c-118 0 -168 76 -168 152c0 112 87 162 237 162h91v48c0 48 -15 109 -120 109c-94 0 -108 -48 -118 -88h-66c6 61 44 144 186 144c118 0 184 -49 184 -161zM372 234v17h-91
c-106 0 -169 -28 -169 -107c0 -59 41 -100 108 -100c134 0 152 89 152 190zM173 725h-45v10c0 57 30 79 68 79c54 0 91 -36 122 -36c17 0 30 4 30 27v7h46v-11c0 -55 -28 -77 -72 -77c-46 0 -85 38 -120 38c-16 0 -29 -9 -29 -31v-6zM127 675h52c13 -27 35 -51 81 -51
c55 0 71 25 83 51h51c-10 -61 -57 -105 -134 -105c-84 0 -126 56 -133 105z" />
    <glyph glyph-name="uni1EB7" unicode="&#x1eb7;" horiz-adv-x="517" 
d="M437 354v-252c0 -45 4 -87 7 -102h-64c-4 12 -7 35 -8 72c-18 -35 -60 -84 -161 -84c-118 0 -168 76 -168 152c0 112 87 162 237 162h91v48c0 48 -15 109 -120 109c-94 0 -108 -48 -118 -88h-66c6 61 44 144 186 144c118 0 184 -49 184 -161zM372 234v17h-91
c-106 0 -169 -28 -169 -107c0 -59 41 -100 108 -100c134 0 152 89 152 190zM121 721h52c9 -41 36 -75 86 -75c61 0 79 39 88 75h52c-10 -74 -57 -131 -140 -131c-94 0 -133 67 -138 131zM298 -178h-73v97h73v-97z" />
    <glyph glyph-name="aogonek" unicode="&#x105;" horiz-adv-x="517" 
d="M437 354v-252c0 -45 4 -87 7 -102c-31 -29 -67 -66 -67 -113c0 -35 25 -56 58 -56c26 0 45 4 61 10v-56c-19 -12 -49 -17 -76 -17c-69 0 -112 41 -112 108c0 49 34 97 70 132c-3 13 -5 34 -6 64c-18 -35 -60 -84 -161 -84c-118 0 -168 76 -168 152c0 112 87 162 237 162
h91v48c0 48 -15 109 -120 109c-94 0 -108 -48 -118 -88h-66c6 61 44 144 186 144c118 0 184 -49 184 -161zM372 234v17h-91c-106 0 -169 -28 -169 -107c0 -59 41 -100 108 -100c134 0 152 89 152 190z" />
    <glyph glyph-name="ae" unicode="&#xe6;" horiz-adv-x="841" 
d="M728 136h67c-22 -73 -76 -146 -205 -146c-100 0 -161 54 -188 109c-38 -82 -108 -109 -186 -109c-116 0 -173 73 -173 152c0 141 142 156 266 156h65v46c0 50 -19 114 -115 114c-80 0 -110 -32 -120 -92h-70c7 88 69 147 187 147c82 0 145 -27 166 -90
c34 53 92 90 177 90c144 0 203 -116 203 -222c0 -15 -1 -33 -1 -45h-363c0 -126 62 -199 156 -199c79 0 112 34 134 89zM375 236v10h-70c-114 0 -193 -14 -193 -101c0 -55 47 -96 112 -96c109 0 151 61 151 187zM440 298h296c-1 91 -50 158 -141 159
c-85 1 -144 -52 -155 -159z" />
    <glyph glyph-name="ccedilla" unicode="&#xe7;" horiz-adv-x="494" 
d="M394 151h67c-21 -79 -69 -147 -164 -160l-34 -44c37 -5 101 -25 101 -93c0 -77 -67 -95 -117 -95c-35 0 -59 7 -72 13v54c18 -8 52 -13 69 -13c38 0 57 13 57 38c0 40 -54 49 -110 50v25l46 63c-118 10 -196 105 -196 260c0 140 77 266 225 266c136 0 187 -96 195 -164
h-67c-14 55 -49 105 -129 105c-98 0 -154 -84 -154 -204c0 -118 53 -205 150 -205c69 0 109 35 133 104z" />
    <glyph glyph-name="cacute" unicode="&#x107;" horiz-adv-x="494" 
d="M394 151h67c-23 -88 -81 -163 -201 -163c-131 0 -219 96 -219 261c0 140 77 266 225 266c136 0 187 -96 195 -164h-67c-14 55 -49 105 -129 105c-98 0 -154 -84 -154 -204c0 -118 53 -205 150 -205c69 0 109 35 133 104zM342 746h85l-151 -156h-67z" />
    <glyph glyph-name="ccircumflex" unicode="&#x109;" horiz-adv-x="494" 
d="M394 151h67c-23 -88 -81 -163 -201 -163c-131 0 -219 96 -219 261c0 140 77 266 225 266c136 0 187 -96 195 -164h-67c-14 55 -49 105 -129 105c-98 0 -154 -84 -154 -204c0 -118 53 -205 150 -205c69 0 109 35 133 104zM224 736h68l110 -153h-70l-74 111l-73 -111h-69z
" />
    <glyph glyph-name="ccaron" unicode="&#x10d;" horiz-adv-x="494" 
d="M394 151h67c-23 -88 -81 -163 -201 -163c-131 0 -219 96 -219 261c0 140 77 266 225 266c136 0 187 -96 195 -164h-67c-14 55 -49 105 -129 105c-98 0 -154 -84 -154 -204c0 -118 53 -205 150 -205c69 0 109 35 133 104zM295 583h-71l-108 153h70l74 -110l72 110h70z" />
    <glyph glyph-name="cdotaccent" unicode="&#x10b;" horiz-adv-x="494" 
d="M394 151h67c-23 -88 -81 -163 -201 -163c-131 0 -219 96 -219 261c0 140 77 266 225 266c136 0 187 -96 195 -164h-67c-14 55 -49 105 -129 105c-98 0 -154 -84 -154 -204c0 -118 53 -205 150 -205c69 0 109 35 133 104zM292 634h-66v102h66v-102z" />
    <glyph glyph-name="dcaron" unicode="&#x10f;" horiz-adv-x="587" 
d="M414 736h67v-592c0 -48 0 -94 1 -144h-64c-3 13 -4 56 -4 79c-25 -58 -79 -91 -164 -91c-130 0 -209 106 -209 258c0 155 85 269 223 269c96 0 136 -40 150 -70v291zM111 248c0 -130 65 -201 148 -201c126 0 158 90 158 215c0 121 -28 194 -150 194
c-94 0 -156 -75 -156 -208zM605 496h-55l-4 240h62z" />
    <glyph glyph-name="uni1E0D" unicode="&#x1e0d;" horiz-adv-x="559" 
d="M414 736h67v-592c0 -48 0 -94 1 -144h-64c-3 13 -4 56 -4 79c-25 -58 -79 -91 -164 -91c-130 0 -209 106 -209 258c0 155 85 269 223 269c96 0 136 -40 150 -70v291zM111 248c0 -130 65 -201 148 -201c126 0 158 90 158 215c0 121 -28 194 -150 194
c-94 0 -156 -75 -156 -208zM316 -178h-73v97h73v-97z" />
    <glyph glyph-name="uni1E0F" unicode="&#x1e0f;" horiz-adv-x="559" 
d="M414 736h67v-592c0 -48 0 -94 1 -144h-64c-3 13 -4 56 -4 79c-25 -58 -79 -91 -164 -91c-130 0 -209 106 -209 258c0 155 85 269 223 269c96 0 136 -40 150 -70v291zM111 248c0 -130 65 -201 148 -201c126 0 158 90 158 215c0 121 -28 194 -150 194
c-94 0 -156 -75 -156 -208zM145 -106h269v-59h-269v59z" />
    <glyph glyph-name="dcroat" unicode="&#x111;" horiz-adv-x="559" 
d="M414 736h67v-94h73v-49h-73v-449c0 -48 0 -94 1 -144h-64c-3 13 -4 60 -4 83c-25 -58 -73 -95 -164 -95c-134 0 -209 114 -209 257c0 146 83 268 223 268c98 0 136 -44 150 -77v157h-223v49h223v94zM110 248c0 -122 65 -199 150 -199c122 0 157 94 157 213
c0 100 -27 190 -149 190c-95 0 -158 -77 -158 -204z" />
    <glyph glyph-name="egrave" unicode="&#xe8;" horiz-adv-x="512" 
d="M472 241h-363c0 -117 59 -194 151 -194c88 0 117 48 134 87h68c-21 -66 -74 -146 -204 -146c-156 0 -217 130 -217 259c0 146 73 268 222 268c159 0 210 -132 210 -232c0 -15 0 -29 -1 -42zM112 293h292c-1 92 -49 165 -142 165c-97 0 -140 -67 -150 -165zM92 746h86
l133 -156h-67z" />
    <glyph glyph-name="eacute" unicode="&#xe9;" horiz-adv-x="512" 
d="M472 241h-363c0 -117 59 -194 151 -194c88 0 117 48 134 87h68c-21 -66 -74 -146 -204 -146c-156 0 -217 130 -217 259c0 146 73 268 222 268c159 0 210 -132 210 -232c0 -15 0 -29 -1 -42zM112 293h292c-1 92 -49 165 -142 165c-97 0 -140 -67 -150 -165zM343 746h85
l-151 -156h-67z" />
    <glyph glyph-name="ecircumflex" unicode="&#xea;" horiz-adv-x="512" 
d="M472 241h-363c0 -117 59 -194 151 -194c88 0 117 48 134 87h68c-21 -66 -74 -146 -204 -146c-156 0 -217 130 -217 259c0 146 73 268 222 268c159 0 210 -132 210 -232c0 -15 0 -29 -1 -42zM112 293h292c-1 92 -49 165 -142 165c-97 0 -140 -67 -150 -165zM231 736h68
l110 -153h-70l-74 111l-73 -111h-69z" />
    <glyph glyph-name="ecaron" unicode="&#x11b;" horiz-adv-x="512" 
d="M472 241h-363c0 -117 59 -194 151 -194c88 0 117 48 134 87h68c-21 -66 -74 -146 -204 -146c-156 0 -217 130 -217 259c0 146 73 268 222 268c159 0 210 -132 210 -232c0 -15 0 -29 -1 -42zM112 293h292c-1 92 -49 165 -142 165c-97 0 -140 -67 -150 -165zM302 583h-71
l-108 153h70l74 -110l72 110h70z" />
    <glyph glyph-name="edieresis" unicode="&#xeb;" horiz-adv-x="512" 
d="M472 241h-363c0 -117 59 -194 151 -194c88 0 117 48 134 87h68c-21 -66 -74 -146 -204 -146c-156 0 -217 130 -217 259c0 146 73 268 222 268c159 0 210 -132 210 -232c0 -15 0 -29 -1 -42zM112 293h292c-1 92 -49 165 -142 165c-97 0 -140 -67 -150 -165zM199 634h-62
v102h62v-102zM376 634h-62v102h62v-102z" />
    <glyph glyph-name="emacron" unicode="&#x113;" horiz-adv-x="512" 
d="M472 241h-363c0 -117 59 -194 151 -194c88 0 117 48 134 87h68c-21 -66 -74 -146 -204 -146c-156 0 -217 130 -217 259c0 146 73 268 222 268c159 0 210 -132 210 -232c0 -15 0 -29 -1 -42zM112 293h292c-1 92 -49 165 -142 165c-97 0 -140 -67 -150 -165zM131 696h269
v-59h-269v59z" />
    <glyph glyph-name="ebreve" unicode="&#x115;" horiz-adv-x="512" 
d="M472 241h-363c0 -117 59 -194 151 -194c88 0 117 48 134 87h68c-21 -66 -74 -146 -204 -146c-156 0 -217 130 -217 259c0 146 73 268 222 268c159 0 210 -132 210 -232c0 -15 0 -29 -1 -42zM112 293h292c-1 92 -49 165 -142 165c-97 0 -140 -67 -150 -165zM127 721h52
c9 -41 36 -75 86 -75c61 0 79 39 88 75h52c-10 -74 -57 -131 -140 -131c-94 0 -133 67 -138 131z" />
    <glyph glyph-name="edotaccent" unicode="&#x117;" horiz-adv-x="512" 
d="M472 241h-363c0 -117 59 -194 151 -194c88 0 117 48 134 87h68c-21 -66 -74 -146 -204 -146c-156 0 -217 130 -217 259c0 146 73 268 222 268c159 0 210 -132 210 -232c0 -15 0 -29 -1 -42zM112 293h292c-1 92 -49 165 -142 165c-97 0 -140 -67 -150 -165zM299 634h-66
v102h66v-102z" />
    <glyph glyph-name="uni1EB9" unicode="&#x1eb9;" horiz-adv-x="512" 
d="M472 241h-363c0 -117 59 -194 151 -194c88 0 117 48 134 87h68c-21 -66 -74 -146 -204 -146c-156 0 -217 130 -217 259c0 146 73 268 222 268c159 0 210 -132 210 -232c0 -15 0 -29 -1 -42zM112 293h292c-1 92 -49 165 -142 165c-97 0 -140 -67 -150 -165zM302 -178h-73
v97h73v-97z" />
    <glyph glyph-name="uni1EBB" unicode="&#x1ebb;" horiz-adv-x="512" 
d="M472 241h-363c0 -117 59 -194 151 -194c88 0 117 48 134 87h68c-21 -66 -74 -146 -204 -146c-156 0 -217 130 -217 259c0 146 73 268 222 268c159 0 210 -132 210 -232c0 -15 0 -29 -1 -42zM112 293h292c-1 92 -49 165 -142 165c-97 0 -140 -67 -150 -165zM298 578h-71
c42 34 63 60 63 88c0 21 -13 40 -45 40c-28 0 -46 -9 -62 -18l-18 43c21 15 53 29 93 29c63 0 94 -41 94 -85c0 -48 -30 -76 -54 -97z" />
    <glyph glyph-name="uni1EBD" unicode="&#x1ebd;" horiz-adv-x="512" 
d="M472 241h-363c0 -117 59 -194 151 -194c88 0 117 48 134 87h68c-21 -66 -74 -146 -204 -146c-156 0 -217 130 -217 259c0 146 73 268 222 268c159 0 210 -132 210 -232c0 -15 0 -29 -1 -42zM112 293h292c-1 92 -49 165 -142 165c-97 0 -140 -67 -150 -165zM158 611h-51
v19c0 67 30 91 77 91c54 0 104 -52 141 -52c20 0 30 10 30 45v11h50v-19c0 -69 -30 -95 -77 -95c-55 0 -97 53 -142 53c-18 0 -28 -10 -28 -36v-17z" />
    <glyph glyph-name="uni1EBF" unicode="&#x1ebf;" horiz-adv-x="512" 
d="M472 241h-363c0 -117 59 -194 151 -194c88 0 117 48 134 87h68c-21 -66 -74 -146 -204 -146c-156 0 -217 130 -217 259c0 146 73 268 222 268c159 0 210 -132 210 -232c0 -15 0 -29 -1 -42zM112 293h292c-1 92 -49 165 -142 165c-97 0 -140 -67 -150 -165zM224 702h73
l107 -135h-69l-75 95l-73 -95h-69zM475 812h79l-128 -129h-62z" />
    <glyph glyph-name="uni1EC1" unicode="&#x1ec1;" horiz-adv-x="512" 
d="M472 241h-363c0 -117 59 -194 151 -194c88 0 117 48 134 87h68c-21 -66 -74 -146 -204 -146c-156 0 -217 130 -217 259c0 146 73 268 222 268c159 0 210 -132 210 -232c0 -15 0 -29 -1 -42zM112 293h292c-1 92 -49 165 -142 165c-97 0 -140 -67 -150 -165zM224 702h73
l107 -135h-69l-75 95l-73 -95h-69zM316 805h80l101 -133h-60z" />
    <glyph glyph-name="uni1EC3" unicode="&#x1ec3;" horiz-adv-x="512" 
d="M472 241h-363c0 -117 59 -194 151 -194c88 0 117 48 134 87h68c-21 -66 -74 -146 -204 -146c-156 0 -217 130 -217 259c0 146 73 268 222 268c159 0 210 -132 210 -232c0 -15 0 -29 -1 -42zM112 293h292c-1 92 -49 165 -142 165c-97 0 -140 -67 -150 -165zM441 671h-64
c39 30 57 55 57 78c0 20 -12 33 -38 33c-22 0 -44 -8 -58 -20l-19 38c19 17 50 31 87 31c56 0 84 -28 84 -74c0 -36 -24 -66 -49 -86zM219 702h73l107 -135h-69l-75 95l-73 -95h-69z" />
    <glyph glyph-name="uni1EC5" unicode="&#x1ec5;" horiz-adv-x="512" 
d="M472 241h-363c0 -117 59 -194 151 -194c88 0 117 48 134 87h68c-21 -66 -74 -146 -204 -146c-156 0 -217 130 -217 259c0 146 73 268 222 268c159 0 210 -132 210 -232c0 -15 0 -29 -1 -42zM112 293h292c-1 92 -49 165 -142 165c-97 0 -140 -67 -150 -165zM169 707h-45
v10c0 58 30 79 68 79c53 0 93 -38 124 -38c17 0 28 6 28 29v8h46v-12c0 -55 -28 -76 -72 -76c-46 0 -85 39 -120 39c-16 0 -29 -11 -29 -33v-6zM217 663h76l111 -100h-77l-72 65l-71 -65h-75z" />
    <glyph glyph-name="uni1EC7" unicode="&#x1ec7;" horiz-adv-x="512" 
d="M472 241h-363c0 -117 59 -194 151 -194c88 0 117 48 134 87h68c-21 -66 -74 -146 -204 -146c-156 0 -217 130 -217 259c0 146 73 268 222 268c159 0 210 -132 210 -232c0 -15 0 -29 -1 -42zM112 293h292c-1 92 -49 165 -142 165c-97 0 -140 -67 -150 -165zM302 -178h-73
v97h73v-97zM231 736h68l110 -153h-70l-74 111l-73 -111h-69z" />
    <glyph glyph-name="eogonek" unicode="&#x119;" horiz-adv-x="512" 
d="M472 241h-363c0 -117 59 -194 151 -194c88 0 117 48 134 87h68c-16 -50 -51 -109 -124 -134c-30 -28 -63 -64 -63 -109c0 -35 25 -56 58 -56c26 0 45 4 61 10v-56c-19 -12 -49 -17 -76 -17c-69 0 -112 41 -112 108c0 39 21 77 48 108c-153 2 -213 131 -213 259
c0 146 73 268 222 268c159 0 210 -132 210 -232c0 -15 0 -29 -1 -42zM112 293h292c-1 92 -49 165 -142 165c-97 0 -140 -67 -150 -165z" />
    <glyph glyph-name="gcircumflex" unicode="&#x11d;" horiz-adv-x="555" 
d="M477 358v-319c0 -161 -69 -249 -224 -249c-140 0 -191 79 -202 152h68c17 -63 68 -94 137 -94c124 0 156 79 156 201v47c-27 -61 -75 -95 -163 -95c-121 0 -208 98 -208 250c0 167 96 264 216 264c100 0 142 -47 155 -84c1 26 3 61 4 72h63c0 -23 -2 -97 -2 -145z
M111 254c0 -113 59 -193 150 -193c118 0 153 78 153 200c0 124 -36 195 -150 195c-106 0 -153 -90 -153 -202zM243 736h68l110 -153h-70l-74 111l-73 -111h-69z" />
    <glyph glyph-name="gbreve" unicode="&#x11f;" horiz-adv-x="555" 
d="M477 358v-319c0 -161 -69 -249 -224 -249c-140 0 -191 79 -202 152h68c17 -63 68 -94 137 -94c124 0 156 79 156 201v47c-27 -61 -75 -95 -163 -95c-121 0 -208 98 -208 250c0 167 96 264 216 264c100 0 142 -47 155 -84c1 26 3 61 4 72h63c0 -23 -2 -97 -2 -145z
M111 254c0 -113 59 -193 150 -193c118 0 153 78 153 200c0 124 -36 195 -150 195c-106 0 -153 -90 -153 -202zM139 721h52c9 -41 36 -75 86 -75c61 0 79 39 88 75h52c-10 -74 -57 -131 -140 -131c-94 0 -133 67 -138 131z" />
    <glyph glyph-name="gdotaccent" unicode="&#x121;" horiz-adv-x="555" 
d="M477 358v-319c0 -161 -69 -249 -224 -249c-140 0 -191 79 -202 152h68c17 -63 68 -94 137 -94c124 0 156 79 156 201v47c-27 -61 -75 -95 -163 -95c-121 0 -208 98 -208 250c0 167 96 264 216 264c100 0 142 -47 155 -84c1 26 3 61 4 72h63c0 -23 -2 -97 -2 -145z
M111 254c0 -113 59 -193 150 -193c118 0 153 78 153 200c0 124 -36 195 -150 195c-106 0 -153 -90 -153 -202zM311 634h-66v102h66v-102z" />
    <glyph glyph-name="uni0123" unicode="&#x123;" horiz-adv-x="555" 
d="M294 788h62c-32 -68 -58 -140 -63 -204h-68c6 70 37 153 69 204zM477 358v-319c0 -161 -69 -249 -224 -249c-140 0 -191 79 -202 152h68c17 -63 68 -94 137 -94c124 0 156 79 156 201v47c-27 -61 -75 -95 -163 -95c-121 0 -208 98 -208 250c0 167 96 264 216 264
c100 0 142 -47 155 -84c1 26 3 61 4 72h63c0 -23 -2 -97 -2 -145zM111 254c0 -113 59 -193 150 -193c118 0 153 78 153 200c0 124 -36 195 -150 195c-106 0 -153 -90 -153 -202z" />
    <glyph glyph-name="gcaron" unicode="&#x1e7;" horiz-adv-x="555" 
d="M477 358v-319c0 -161 -69 -249 -224 -249c-140 0 -191 79 -202 152h68c17 -63 68 -94 137 -94c124 0 156 79 156 201v47c-27 -61 -75 -95 -163 -95c-121 0 -208 98 -208 250c0 167 96 264 216 264c100 0 142 -47 155 -84c1 26 3 61 4 72h63c0 -23 -2 -97 -2 -145z
M111 254c0 -113 59 -193 150 -193c118 0 153 78 153 200c0 124 -36 195 -150 195c-106 0 -153 -90 -153 -202zM311 583h-71l-108 153h70l74 -110l72 110h70z" />
    <glyph glyph-name="uni1E21" unicode="&#x1e21;" horiz-adv-x="555" 
d="M477 358v-319c0 -161 -69 -249 -224 -249c-140 0 -191 79 -202 152h68c17 -63 68 -94 137 -94c124 0 156 79 156 201v47c-27 -61 -75 -95 -163 -95c-121 0 -208 98 -208 250c0 167 96 264 216 264c100 0 142 -47 155 -84c1 26 3 61 4 72h63c0 -23 -2 -97 -2 -145z
M111 254c0 -113 59 -193 150 -193c118 0 153 78 153 200c0 124 -36 195 -150 195c-106 0 -153 -90 -153 -202zM143 696h269v-59h-269v59z" />
    <glyph glyph-name="uni00670303" horiz-adv-x="555" 
d="M477 358v-319c0 -161 -69 -249 -224 -249c-140 0 -191 79 -202 152h68c17 -63 68 -94 137 -94c124 0 156 79 156 201v47c-27 -61 -75 -95 -163 -95c-121 0 -208 98 -208 250c0 167 96 264 216 264c100 0 142 -47 155 -84c1 26 3 61 4 72h63c0 -23 -2 -97 -2 -145z
M111 254c0 -113 59 -193 150 -193c118 0 153 78 153 200c0 124 -36 195 -150 195c-106 0 -153 -90 -153 -202zM180 611h-51v19c0 67 30 91 77 91c54 0 104 -52 141 -52c20 0 30 10 30 45v11h50v-19c0 -69 -30 -95 -77 -95c-55 0 -97 53 -142 53c-18 0 -28 -10 -28 -36v-17z
" />
    <glyph glyph-name="hcircumflex" unicode="&#x125;" horiz-adv-x="556" 
d="M68 894h86l110 -105h-78l-75 65l-74 -65h-77zM79 736h67v-313c27 49 75 92 162 92c75 0 170 -40 170 -194v-321h-67v308c0 94 -41 146 -120 146c-96 0 -145 -61 -145 -176v-278h-67v736z" />
    <glyph glyph-name="uni1E25" unicode="&#x1e25;" horiz-adv-x="556" 
d="M79 736h67v-313c27 49 75 92 162 92c75 0 170 -40 170 -194v-321h-67v308c0 94 -41 146 -120 146c-96 0 -145 -61 -145 -176v-278h-67v736zM314 -178h-73v97h73v-97z" />
    <glyph glyph-name="uni1E2B" unicode="&#x1e2b;" horiz-adv-x="556" 
d="M79 736h67v-313c27 49 75 92 162 92c75 0 170 -40 170 -194v-321h-67v308c0 94 -41 146 -120 146c-96 0 -145 -61 -145 -176v-278h-67v736zM139 -65h52c9 -41 36 -75 86 -75c61 0 79 39 88 75h52c-10 -74 -57 -131 -140 -131c-94 0 -133 67 -138 131z" />
    <glyph glyph-name="hbar" unicode="&#x127;" horiz-adv-x="556" 
d="M79 736h67v-94h211v-49h-211v-175c27 50 77 95 165 95c75 0 167 -39 167 -194v-319h-67v307c0 93 -39 145 -118 145c-94 0 -147 -67 -147 -174v-278h-67v593h-84v49h84v94z" />
    <glyph glyph-name="igrave" unicode="&#xec;" horiz-adv-x="225" 
d="M79 0v503h67v-503h-67zM-71 746h86l133 -156h-67z" />
    <glyph glyph-name="iacute" unicode="&#xed;" horiz-adv-x="225" 
d="M79 0v503h67v-503h-67zM209 746h85l-151 -156h-67z" />
    <glyph glyph-name="icircumflex" unicode="&#xee;" horiz-adv-x="225" 
d="M79 0v503h67v-503h-67zM77 736h68l110 -153h-70l-74 111l-73 -111h-69z" />
    <glyph glyph-name="itilde" unicode="&#x129;" horiz-adv-x="225" 
d="M79 0v503h67v-503h-67zM14 611h-51v19c0 67 30 91 77 91c54 0 104 -52 141 -52c20 0 30 10 30 45v11h50v-19c0 -69 -30 -95 -77 -95c-55 0 -97 53 -142 53c-18 0 -28 -10 -28 -36v-17z" />
    <glyph glyph-name="idieresis" unicode="&#xef;" horiz-adv-x="225" 
d="M79 0v503h67v-503h-67zM54 634h-62v102h62v-102zM231 634h-62v102h62v-102z" />
    <glyph glyph-name="imacron" unicode="&#x12b;" horiz-adv-x="225" 
d="M79 0v503h67v-503h-67zM-23 696h269v-59h-269v59z" />
    <glyph glyph-name="uni01D0" unicode="&#x1d0;" horiz-adv-x="225" 
d="M79 0v503h67v-503h-67zM148 583h-71l-108 153h70l74 -110l72 110h70z" />
    <glyph glyph-name="uni1EC9" unicode="&#x1ec9;" horiz-adv-x="225" 
d="M79 0v503h67v-503h-67zM148 586h-71c42 34 63 60 63 88c0 21 -13 40 -45 40c-28 0 -46 -9 -62 -18l-18 43c21 15 53 29 93 29c63 0 94 -41 94 -85c0 -48 -30 -76 -54 -97z" />
    <glyph glyph-name="uni1ECB" unicode="&#x1ecb;" horiz-adv-x="225" 
d="M79 0v503h67v-503h-67zM146 633h-67v103h67v-103zM148 -178h-73v97h73v-97z" />
    <glyph glyph-name="iogonek" unicode="&#x12f;" horiz-adv-x="225" 
d="M197 -215c-19 -12 -49 -17 -76 -17c-69 0 -112 41 -112 108c0 49 35 97 70 132v495h67v-503h-1c-31 -29 -67 -66 -67 -113c0 -35 25 -56 58 -56c26 0 45 4 61 10v-56zM146 633h-67v103h67v-103z" />
    <glyph glyph-name="dotlessi" unicode="&#x131;" horiz-adv-x="225" 
d="M79 0v503h67v-503h-67z" />
    <glyph glyph-name="jcircumflex" unicode="&#x135;" horiz-adv-x="225" 
d="M79 503h67v-530c0 -137 -33 -183 -131 -183c-4 0 -24 1 -31 2v60c9 -1 17 -1 24 -1c60 0 71 38 71 112v540zM77 736h68l110 -153h-70l-74 111l-73 -111h-69z" />
    <glyph glyph-name="uni0137" unicode="&#x137;" horiz-adv-x="485" 
d="M146 736v-484c44 50 171 181 239 251h82l-194 -198l218 -305h-80l-185 262l-80 -77v-185h-67v736h67zM232 -249h-60c33 66 53 135 57 194h70c-4 -72 -36 -152 -67 -194z" />
    <glyph glyph-name="kgreenlandic" unicode="&#x138;" horiz-adv-x="483" 
d="M146 503v-246c44 50 173 179 237 246h82c-66 -66 -140 -137 -204 -202c73 -97 154 -206 228 -301h-81c-49 67 -138 182 -193 258l-69 -67v-191h-67v503h67z" />
    <glyph glyph-name="lacute" unicode="&#x13a;" horiz-adv-x="225" 
d="M199 905h89l-143 -115h-69zM146 0h-67v736h67v-736z" />
    <glyph glyph-name="lcaron" unicode="&#x13e;" horiz-adv-x="271" 
d="M146 0h-67v736h67v-736zM281 496h-55l-4 240h62z" />
    <glyph glyph-name="ldot" unicode="&#x140;" horiz-adv-x="240" 
d="M259 367h-65v136h65v-136zM146 0h-67v736h67v-736z" />
    <glyph glyph-name="uni013C" unicode="&#x13c;" horiz-adv-x="225" 
d="M146 0h-67v736h67v-736zM81 -249h-60c33 66 53 135 57 194h70c-4 -72 -36 -152 -67 -194z" />
    <glyph glyph-name="uni1E37" unicode="&#x1e37;" horiz-adv-x="225" 
d="M146 0h-67v736h67v-736zM148 -178h-73v97h73v-97z" />
    <glyph glyph-name="uni1E39" unicode="&#x1e39;" horiz-adv-x="225" 
d="M146 0h-67v736h67v-736zM-23 860h269v-59h-269v59zM149 -178h-73v97h73v-97z" />
    <glyph glyph-name="uni1E3B" unicode="&#x1e3b;" horiz-adv-x="225" 
d="M146 0h-67v736h67v-736zM-23 -106h269v-59h-269v59z" />
    <glyph glyph-name="lslash" unicode="&#x142;" horiz-adv-x="241" 
d="M154 0h-67v369l-67 -38v65l67 37v303h67v-265l76 42v-64l-76 -43v-406z" />
    <glyph glyph-name="uni1E43" unicode="&#x1e43;" horiz-adv-x="837" 
d="M79 0v373c0 44 0 90 -1 130h65c1 -16 3 -56 2 -84c22 48 68 96 149 96c71 0 124 -35 143 -95c26 50 75 95 163 95c79 0 158 -46 158 -184v-331h-66v323c0 63 -23 131 -110 131c-90 0 -131 -71 -131 -165v-289h-65v321c0 70 -21 133 -107 133c-90 0 -134 -77 -134 -176
v-278h-66zM454 -178h-73v97h73v-97z" />
    <glyph glyph-name="nacute" unicode="&#x144;" horiz-adv-x="556" 
d="M79 0v376c0 44 0 88 -1 127h65c2 -15 4 -75 3 -90c21 48 62 102 163 102c92 0 169 -53 169 -190v-325h-67v316c0 83 -34 138 -117 138c-108 0 -148 -87 -148 -193v-261h-67zM364 746h85l-151 -156h-67z" />
    <glyph glyph-name="ncaron" unicode="&#x148;" horiz-adv-x="556" 
d="M79 0v376c0 44 0 88 -1 127h65c2 -15 4 -75 3 -90c21 48 62 102 163 102c92 0 169 -53 169 -190v-325h-67v316c0 83 -34 138 -117 138c-108 0 -148 -87 -148 -193v-261h-67zM314 585h-71l-108 153h70l74 -110l72 110h70z" />
    <glyph glyph-name="ntilde" unicode="&#xf1;" horiz-adv-x="556" 
d="M79 0v376c0 44 0 88 -1 127h65c2 -15 4 -75 3 -90c21 48 62 102 163 102c92 0 169 -53 169 -190v-325h-67v316c0 83 -34 138 -117 138c-108 0 -148 -87 -148 -193v-261h-67zM176 612h-51v19c0 67 30 91 77 91c54 0 104 -52 141 -52c20 0 30 10 30 45v11h50v-19
c0 -69 -30 -95 -77 -95c-55 0 -97 53 -142 53c-18 0 -28 -10 -28 -36v-17z" />
    <glyph glyph-name="uni0146" unicode="&#x146;" horiz-adv-x="556" 
d="M79 0v376c0 44 0 88 -1 127h65c2 -15 4 -75 3 -90c21 48 62 102 163 102c92 0 169 -53 169 -190v-325h-67v316c0 83 -34 138 -117 138c-108 0 -148 -87 -148 -193v-261h-67zM252 -249h-60c33 66 53 135 57 194h70c-4 -72 -36 -152 -67 -194z" />
    <glyph glyph-name="uni1E45" unicode="&#x1e45;" horiz-adv-x="556" 
d="M79 0v376c0 44 0 88 -1 127h65c2 -15 4 -75 3 -90c21 48 62 102 163 102c92 0 169 -53 169 -190v-325h-67v316c0 83 -34 138 -117 138c-108 0 -148 -87 -148 -193v-261h-67zM311 634h-66v102h66v-102z" />
    <glyph glyph-name="uni1E47" unicode="&#x1e47;" horiz-adv-x="556" 
d="M79 0v376c0 44 0 88 -1 127h65c2 -15 4 -75 3 -90c21 48 62 102 163 102c92 0 169 -53 169 -190v-325h-67v316c0 83 -34 138 -117 138c-108 0 -148 -87 -148 -193v-261h-67zM314 -178h-73v97h73v-97z" />
    <glyph glyph-name="uni1E49" unicode="&#x1e49;" horiz-adv-x="556" 
d="M79 0v376c0 44 0 88 -1 127h65c2 -15 4 -75 3 -90c21 48 62 102 163 102c92 0 169 -53 169 -190v-325h-67v316c0 83 -34 138 -117 138c-108 0 -148 -87 -148 -193v-261h-67zM143 -106h269v-59h-269v59z" />
    <glyph glyph-name="napostrophe" unicode="&#x149;" horiz-adv-x="556" 
d="M75 583h-54c22 73 32 132 37 198h67c-4 -73 -28 -157 -50 -198zM79 0v376c0 44 0 88 -1 127h65c2 -15 4 -75 3 -90c21 48 62 102 163 102c92 0 169 -53 169 -190v-325h-67v316c0 83 -34 138 -117 138c-108 0 -148 -87 -148 -193v-261h-67z" />
    <glyph glyph-name="ograve" unicode="&#xf2;" horiz-adv-x="538" 
d="M271 515c137 0 227 -104 227 -262c0 -143 -80 -265 -232 -265c-140 0 -225 112 -225 263c0 146 82 264 230 264zM268 456c-106 0 -158 -86 -158 -204c0 -116 61 -205 160 -205c101 0 158 83 158 204c0 117 -56 205 -160 205zM96 746h86l133 -156h-67z" />
    <glyph glyph-name="oacute" unicode="&#xf3;" horiz-adv-x="538" 
d="M271 515c137 0 227 -104 227 -262c0 -143 -80 -265 -232 -265c-140 0 -225 112 -225 263c0 146 82 264 230 264zM268 456c-106 0 -158 -86 -158 -204c0 -116 61 -205 160 -205c101 0 158 83 158 204c0 117 -56 205 -160 205zM347 746h85l-151 -156h-67z" />
    <glyph glyph-name="ocircumflex" unicode="&#xf4;" horiz-adv-x="538" 
d="M271 515c137 0 227 -104 227 -262c0 -143 -80 -265 -232 -265c-140 0 -225 112 -225 263c0 146 82 264 230 264zM268 456c-106 0 -158 -86 -158 -204c0 -116 61 -205 160 -205c101 0 158 83 158 204c0 117 -56 205 -160 205zM234 736h68l110 -153h-70l-74 111l-73 -111
h-69z" />
    <glyph glyph-name="otilde" unicode="&#xf5;" horiz-adv-x="538" 
d="M271 515c137 0 227 -104 227 -262c0 -143 -80 -265 -232 -265c-140 0 -225 112 -225 263c0 146 82 264 230 264zM268 456c-106 0 -158 -86 -158 -204c0 -116 61 -205 160 -205c101 0 158 83 158 204c0 117 -56 205 -160 205zM171 611h-51v19c0 67 30 91 77 91
c54 0 104 -52 141 -52c20 0 30 10 30 45v11h50v-19c0 -69 -30 -95 -77 -95c-55 0 -97 53 -142 53c-18 0 -28 -10 -28 -36v-17z" />
    <glyph glyph-name="odieresis" unicode="&#xf6;" horiz-adv-x="538" 
d="M271 515c137 0 227 -104 227 -262c0 -143 -80 -265 -232 -265c-140 0 -225 112 -225 263c0 146 82 264 230 264zM268 456c-106 0 -158 -86 -158 -204c0 -116 61 -205 160 -205c101 0 158 83 158 204c0 117 -56 205 -160 205zM211 634h-62v102h62v-102zM388 634h-62v102
h62v-102z" />
    <glyph glyph-name="omacron" unicode="&#x14d;" horiz-adv-x="538" 
d="M271 515c137 0 227 -104 227 -262c0 -143 -80 -265 -232 -265c-140 0 -225 112 -225 263c0 146 82 264 230 264zM268 456c-106 0 -158 -86 -158 -204c0 -116 61 -205 160 -205c101 0 158 83 158 204c0 117 -56 205 -160 205zM134 696h269v-59h-269v59z" />
    <glyph glyph-name="ohungarumlaut" unicode="&#x151;" horiz-adv-x="538" 
d="M271 515c137 0 227 -104 227 -262c0 -143 -80 -265 -232 -265c-140 0 -225 112 -225 263c0 146 82 264 230 264zM268 456c-106 0 -158 -86 -158 -204c0 -116 61 -205 160 -205c101 0 158 83 158 204c0 117 -56 205 -160 205zM200 580h-60l101 157h74zM373 580h-60
l101 157h75z" />
    <glyph glyph-name="uni01D2" unicode="&#x1d2;" horiz-adv-x="538" 
d="M271 515c137 0 227 -104 227 -262c0 -143 -80 -265 -232 -265c-140 0 -225 112 -225 263c0 146 82 264 230 264zM268 456c-106 0 -158 -86 -158 -204c0 -116 61 -205 160 -205c101 0 158 83 158 204c0 117 -56 205 -160 205zM305 583h-71l-108 153h70l74 -110l72 110h70z
" />
    <glyph glyph-name="uni1ECD" unicode="&#x1ecd;" horiz-adv-x="538" 
d="M271 515c137 0 227 -104 227 -262c0 -143 -80 -265 -232 -265c-140 0 -225 112 -225 263c0 146 82 264 230 264zM268 456c-106 0 -158 -86 -158 -204c0 -116 61 -205 160 -205c101 0 158 83 158 204c0 117 -56 205 -160 205zM305 -179h-73v97h73v-97z" />
    <glyph glyph-name="uni1ECF" unicode="&#x1ecf;" horiz-adv-x="538" 
d="M271 515c137 0 227 -104 227 -262c0 -143 -80 -265 -232 -265c-140 0 -225 112 -225 263c0 146 82 264 230 264zM268 456c-106 0 -158 -86 -158 -204c0 -116 61 -205 160 -205c101 0 158 83 158 204c0 117 -56 205 -160 205zM305 586h-71c42 34 63 60 63 88
c0 21 -13 40 -45 40c-28 0 -46 -9 -62 -18l-18 43c21 15 53 29 93 29c63 0 94 -41 94 -85c0 -48 -30 -76 -54 -97z" />
    <glyph glyph-name="uni1ED1" unicode="&#x1ed1;" horiz-adv-x="538" 
d="M271 515c137 0 227 -104 227 -262c0 -143 -80 -265 -232 -265c-140 0 -225 112 -225 263c0 146 82 264 230 264zM268 456c-106 0 -158 -86 -158 -204c0 -116 61 -205 160 -205c101 0 158 83 158 204c0 117 -56 205 -160 205zM232 702h73l107 -135h-69l-75 95l-73 -95h-69
zM483 812h79l-128 -129h-62z" />
    <glyph glyph-name="uni1ED3" unicode="&#x1ed3;" horiz-adv-x="538" 
d="M271 515c137 0 227 -104 227 -262c0 -143 -80 -265 -232 -265c-140 0 -225 112 -225 263c0 146 82 264 230 264zM268 456c-106 0 -158 -86 -158 -204c0 -116 61 -205 160 -205c101 0 158 83 158 204c0 117 -56 205 -160 205zM232 702h73l107 -135h-69l-75 95l-73 -95h-69
zM324 805h80l101 -133h-60z" />
    <glyph glyph-name="uni1ED5" unicode="&#x1ed5;" horiz-adv-x="538" 
d="M271 515c137 0 227 -104 227 -262c0 -143 -80 -265 -232 -265c-140 0 -225 112 -225 263c0 146 82 264 230 264zM268 456c-106 0 -158 -86 -158 -204c0 -116 61 -205 160 -205c101 0 158 83 158 204c0 117 -56 205 -160 205zM454 671h-64c39 30 57 55 57 78
c0 20 -12 33 -38 33c-22 0 -44 -8 -58 -20l-19 38c19 17 50 31 87 31c56 0 84 -28 84 -74c0 -36 -24 -66 -49 -86zM232 702h73l107 -135h-69l-75 95l-73 -95h-69z" />
    <glyph glyph-name="uni1ED7" unicode="&#x1ed7;" horiz-adv-x="538" 
d="M271 515c137 0 227 -104 227 -262c0 -143 -80 -265 -232 -265c-140 0 -225 112 -225 263c0 146 82 264 230 264zM268 456c-106 0 -158 -86 -158 -204c0 -116 61 -205 160 -205c101 0 158 83 158 204c0 117 -56 205 -160 205zM182 706h-45v10c0 58 30 79 68 79
c53 0 93 -38 124 -38c17 0 28 6 28 29v8h46v-12c0 -55 -28 -76 -72 -76c-46 0 -85 39 -120 39c-16 0 -29 -11 -29 -33v-6zM230 662h76l111 -100h-77l-72 65l-71 -65h-75z" />
    <glyph glyph-name="uni1ED9" unicode="&#x1ed9;" horiz-adv-x="538" 
d="M271 515c137 0 227 -104 227 -262c0 -143 -80 -265 -232 -265c-140 0 -225 112 -225 263c0 146 82 264 230 264zM268 456c-106 0 -158 -86 -158 -204c0 -116 61 -205 160 -205c101 0 158 83 158 204c0 117 -56 205 -160 205zM305 -178h-73v97h73v-97zM234 736h68
l110 -153h-70l-74 111l-73 -111h-69z" />
    <glyph glyph-name="oslash" unicode="&#xf8;" horiz-adv-x="538" 
d="M272 515c50 0 94 -14 129 -39l25 36h56l-47 -67c40 -46 63 -113 63 -193c0 -160 -93 -265 -233 -265c-49 0 -92 14 -126 39l-25 -36h-56l47 67c-42 47 -65 116 -65 194c0 167 101 264 232 264zM268 458c-107 0 -160 -90 -160 -206c0 -55 13 -103 36 -139l221 312
c-25 21 -58 33 -97 33zM268 44c101 0 162 82 162 207c0 56 -12 104 -34 139l-221 -313c25 -21 57 -33 93 -33z" />
    <glyph glyph-name="oe" unicode="&#x153;" horiz-adv-x="901" 
d="M648 -12c-95 0 -154 53 -185 120c-37 -71 -103 -120 -197 -120c-140 0 -225 112 -225 263c0 146 82 264 230 264c88 0 157 -45 193 -119c34 71 97 119 189 119c153 0 210 -131 210 -231c0 -15 0 -30 -1 -43h-364c1 -118 64 -194 152 -194c85 0 117 48 134 87h68
c-21 -66 -79 -146 -204 -146zM268 456c-106 0 -158 -86 -158 -204c0 -116 61 -205 160 -205c101 0 158 83 158 204c0 117 -56 205 -160 205zM501 293h293c-1 93 -53 164 -142 165c-96 1 -141 -67 -151 -165z" />
    <glyph glyph-name="ohorn" unicode="&#x1a1;" horiz-adv-x="538" 
d="M271 515c59 0 110 -20 148 -54c48 11 65 37 65 70c0 20 -5 41 -11 56h66c3 -10 7 -32 7 -53c0 -56 -31 -102 -89 -120c26 -42 41 -97 41 -161c0 -143 -80 -265 -232 -265c-140 0 -225 112 -225 263c0 146 82 264 230 264zM268 456c-106 0 -158 -86 -158 -204
c0 -116 61 -205 160 -205c101 0 158 83 158 204c0 117 -56 205 -160 205z" />
    <glyph glyph-name="uni1EDB" unicode="&#x1edb;" horiz-adv-x="538" 
d="M271 515c59 0 110 -20 148 -54c48 11 65 37 65 70c0 20 -5 41 -11 56h66c3 -10 7 -32 7 -53c0 -56 -31 -102 -89 -120c26 -42 41 -97 41 -161c0 -143 -80 -265 -232 -265c-140 0 -225 112 -225 263c0 146 82 264 230 264zM268 456c-106 0 -158 -86 -158 -204
c0 -116 61 -205 160 -205c101 0 158 83 158 204c0 117 -56 205 -160 205zM355 746h85l-151 -156h-67z" />
    <glyph glyph-name="uni1EDD" unicode="&#x1edd;" horiz-adv-x="538" 
d="M271 515c59 0 110 -20 148 -54c48 11 65 37 65 70c0 20 -5 41 -11 56h66c3 -10 7 -32 7 -53c0 -56 -31 -102 -89 -120c26 -42 41 -97 41 -161c0 -143 -80 -265 -232 -265c-140 0 -225 112 -225 263c0 146 82 264 230 264zM268 456c-106 0 -158 -86 -158 -204
c0 -116 61 -205 160 -205c101 0 158 83 158 204c0 117 -56 205 -160 205zM96 746h86l133 -156h-67z" />
    <glyph glyph-name="uni1EDF" unicode="&#x1edf;" horiz-adv-x="538" 
d="M271 515c59 0 110 -20 148 -54c48 11 65 37 65 70c0 20 -5 41 -11 56h66c3 -10 7 -32 7 -53c0 -56 -31 -102 -89 -120c26 -42 41 -97 41 -161c0 -143 -80 -265 -232 -265c-140 0 -225 112 -225 263c0 146 82 264 230 264zM268 456c-106 0 -158 -86 -158 -204
c0 -116 61 -205 160 -205c101 0 158 83 158 204c0 117 -56 205 -160 205zM305 586h-71c42 34 63 60 63 88c0 21 -13 40 -45 40c-28 0 -46 -9 -62 -18l-18 43c21 15 53 29 93 29c63 0 94 -41 94 -85c0 -48 -30 -76 -54 -97z" />
    <glyph glyph-name="uni1EE1" unicode="&#x1ee1;" horiz-adv-x="538" 
d="M271 515c59 0 110 -20 148 -54c48 11 65 37 65 70c0 20 -5 41 -11 56h66c3 -10 7 -32 7 -53c0 -56 -31 -102 -89 -120c26 -42 41 -97 41 -161c0 -143 -80 -265 -232 -265c-140 0 -225 112 -225 263c0 146 82 264 230 264zM268 456c-106 0 -158 -86 -158 -204
c0 -116 61 -205 160 -205c101 0 158 83 158 204c0 117 -56 205 -160 205zM171 611h-51v19c0 67 30 91 77 91c54 0 104 -52 141 -52c20 0 30 10 30 45v11h50v-19c0 -69 -30 -95 -77 -95c-55 0 -97 53 -142 53c-18 0 -28 -10 -28 -36v-17z" />
    <glyph glyph-name="uni1EE3" unicode="&#x1ee3;" horiz-adv-x="538" 
d="M271 515c59 0 110 -20 148 -54c48 11 65 37 65 70c0 20 -5 41 -11 56h66c3 -10 7 -32 7 -53c0 -56 -31 -102 -89 -120c26 -42 41 -97 41 -161c0 -143 -80 -265 -232 -265c-140 0 -225 112 -225 263c0 146 82 264 230 264zM268 456c-106 0 -158 -86 -158 -204
c0 -116 61 -205 160 -205c101 0 158 83 158 204c0 117 -56 205 -160 205zM305 -178h-73v97h73v-97z" />
    <glyph glyph-name="racute" unicode="&#x155;" horiz-adv-x="337" 
d="M79 0v366c0 78 -1 116 -1 137h65c2 -15 3 -51 3 -108c28 72 90 117 172 120v-69c-104 -5 -172 -69 -172 -192v-254h-67zM266 746h85l-151 -156h-67z" />
    <glyph glyph-name="uni0157" unicode="&#x157;" horiz-adv-x="337" 
d="M79 0v366c0 78 -1 116 -1 137h65c2 -15 3 -51 3 -108c28 72 90 117 172 120v-69c-104 -5 -172 -69 -172 -192v-254h-67zM81 -249h-60c33 66 53 135 57 194h70c-4 -72 -36 -152 -67 -194z" />
    <glyph glyph-name="rcaron" unicode="&#x159;" horiz-adv-x="337" 
d="M79 0v366c0 78 -1 116 -1 137h65c2 -15 3 -51 3 -108c28 72 90 117 172 120v-69c-104 -5 -172 -69 -172 -192v-254h-67zM220 583h-71l-108 153h70l74 -110l72 110h70z" />
    <glyph glyph-name="uni1E5B" unicode="&#x1e5b;" horiz-adv-x="337" 
d="M79 0v366c0 78 -1 116 -1 137h65c2 -15 3 -51 3 -108c28 72 90 117 172 120v-69c-104 -5 -172 -69 -172 -192v-254h-67zM149 -178h-73v97h73v-97z" />
    <glyph glyph-name="uni1E5D" unicode="&#x1e5d;" horiz-adv-x="337" 
d="M79 0v366c0 78 -1 116 -1 137h65c2 -15 3 -51 3 -108c28 72 90 117 172 120v-69c-104 -5 -172 -69 -172 -192v-254h-67zM59 696h269v-59h-269v59zM151 -178h-73v97h73v-97z" />
    <glyph glyph-name="uni1E5F" unicode="&#x1e5f;" horiz-adv-x="337" 
d="M79 0v366c0 78 -1 116 -1 137h65c2 -15 3 -51 3 -108c28 72 90 117 172 120v-69c-104 -5 -172 -69 -172 -192v-254h-67zM-15 -106h269v-59h-269v59z" />
    <glyph glyph-name="sacute" unicode="&#x15b;" horiz-adv-x="457" 
d="M31 141h67c16 -60 60 -97 134 -97c82 0 115 37 115 89c0 53 -23 78 -128 103c-137 33 -168 75 -168 142c0 70 53 137 173 137c121 0 175 -72 183 -143h-66c-8 38 -38 87 -119 87c-80 0 -103 -39 -103 -76c0 -42 22 -63 118 -86c147 -35 180 -84 180 -159
c0 -90 -72 -150 -187 -150c-122 0 -186 63 -199 153zM307 746h85l-151 -156h-67z" />
    <glyph glyph-name="scircumflex" unicode="&#x15d;" horiz-adv-x="457" 
d="M31 141h67c16 -60 60 -97 134 -97c82 0 115 37 115 89c0 53 -23 78 -128 103c-137 33 -168 75 -168 142c0 70 53 137 173 137c121 0 175 -72 183 -143h-66c-8 38 -38 87 -119 87c-80 0 -103 -39 -103 -76c0 -42 22 -63 118 -86c147 -35 180 -84 180 -159
c0 -90 -72 -150 -187 -150c-122 0 -186 63 -199 153zM194 736h68l110 -153h-70l-74 111l-73 -111h-69z" />
    <glyph glyph-name="scaron" unicode="&#x161;" horiz-adv-x="457" 
d="M31 141h67c16 -60 60 -97 134 -97c82 0 115 37 115 89c0 53 -23 78 -128 103c-137 33 -168 75 -168 142c0 70 53 137 173 137c121 0 175 -72 183 -143h-66c-8 38 -38 87 -119 87c-80 0 -103 -39 -103 -76c0 -42 22 -63 118 -86c147 -35 180 -84 180 -159
c0 -90 -72 -150 -187 -150c-122 0 -186 63 -199 153zM265 583h-71l-108 153h70l74 -110l72 110h70z" />
    <glyph glyph-name="uni015F" unicode="&#x15f;" horiz-adv-x="457" 
d="M31 141h67c16 -60 60 -97 134 -97c82 0 115 37 115 89c0 53 -23 78 -128 103c-137 33 -168 75 -168 142c0 70 53 137 173 137c121 0 175 -72 183 -143h-66c-8 38 -38 87 -119 87c-80 0 -103 -39 -103 -76c0 -42 22 -63 118 -86c147 -35 180 -84 180 -159
c0 -82 -60 -139 -157 -149l-33 -42c37 -5 101 -25 101 -93c0 -77 -67 -95 -117 -95c-35 0 -59 7 -72 13v54c18 -8 52 -13 69 -13c38 0 57 13 57 38c0 40 -54 49 -110 50v25l47 63c-104 9 -159 69 -171 152z" />
    <glyph glyph-name="uni0219" unicode="&#x219;" horiz-adv-x="457" 
d="M31 141h67c16 -60 60 -97 134 -97c82 0 115 37 115 89c0 53 -23 78 -128 103c-137 33 -168 75 -168 142c0 70 53 137 173 137c121 0 175 -72 183 -143h-66c-8 38 -38 87 -119 87c-80 0 -103 -39 -103 -76c0 -42 22 -63 118 -86c147 -35 180 -84 180 -159
c0 -90 -72 -150 -187 -150c-122 0 -186 63 -199 153zM207 -249h-60c33 66 53 135 57 194h70c-4 -72 -36 -152 -67 -194z" />
    <glyph glyph-name="uni1E61" unicode="&#x1e61;" horiz-adv-x="457" 
d="M31 141h67c16 -60 60 -97 134 -97c82 0 115 37 115 89c0 53 -23 78 -128 103c-137 33 -168 75 -168 142c0 70 53 137 173 137c121 0 175 -72 183 -143h-66c-8 38 -38 87 -119 87c-80 0 -103 -39 -103 -76c0 -42 22 -63 118 -86c147 -35 180 -84 180 -159
c0 -90 -72 -150 -187 -150c-122 0 -186 63 -199 153zM262 634h-66v102h66v-102z" />
    <glyph glyph-name="uni1E63" unicode="&#x1e63;" horiz-adv-x="457" 
d="M31 141h67c16 -60 60 -97 134 -97c82 0 115 37 115 89c0 53 -23 78 -128 103c-137 33 -168 75 -168 142c0 70 53 137 173 137c121 0 175 -72 183 -143h-66c-8 38 -38 87 -119 87c-80 0 -103 -39 -103 -76c0 -42 22 -63 118 -86c147 -35 180 -84 180 -159
c0 -90 -72 -150 -187 -150c-122 0 -186 63 -199 153zM265 -178h-73v97h73v-97z" />
    <glyph glyph-name="germandbls" unicode="&#xdf;" horiz-adv-x="571" 
d="M294 746c149 0 210 -96 212 -181c0 -10 0 -21 -1 -31l-179 -122v-1l86 -59c98 -69 125 -117 125 -188c0 -102 -71 -174 -186 -174c-73 0 -124 25 -152 51v74c42 -46 101 -67 152 -67c88 0 120 60 120 110s-21 88 -96 139l-93 64c-42 28 -43 60 1 91l154 105
c2 48 -27 130 -145 130c-87 0 -147 -35 -147 -155v-532h-67v536c0 149 88 210 216 210z" />
    <glyph glyph-name="tcaron" unicode="&#x165;" horiz-adv-x="302" 
d="M296 600h-48l-1 208h64zM8 445v58h91v153h67v-153h116v-58h-116v-312c0 -53 12 -82 59 -82c14 0 33 1 48 5v-54c-19 -7 -45 -9 -68 -9c-71 0 -106 36 -106 118v334h-91z" />
    <glyph glyph-name="uni0163" unicode="&#x163;" horiz-adv-x="302" 
d="M8 445v58h91v153h67v-153h116v-58h-116v-312c0 -53 12 -82 59 -82c14 0 33 1 48 5v-54c-16 -6 -37 -8 -56 -9l-36 -46c37 -5 101 -25 101 -93c0 -77 -67 -95 -117 -95c-35 0 -59 7 -72 13v54c18 -8 52 -13 69 -13c38 0 57 13 57 38c0 40 -54 49 -110 50v25l54 73
c-43 13 -64 48 -64 112v334h-91z" />
    <glyph glyph-name="uni021B" unicode="&#x21b;" horiz-adv-x="302" 
d="M8 445v58h91v153h67v-153h116v-58h-116v-312c0 -53 12 -82 59 -82c14 0 33 1 48 5v-54c-19 -7 -45 -9 -68 -9c-71 0 -106 36 -106 118v334h-91zM138 -249h-60c33 66 53 135 57 194h70c-4 -72 -36 -152 -67 -194z" />
    <glyph glyph-name="uni1E6D" unicode="&#x1e6d;" horiz-adv-x="302" 
d="M8 445v58h91v153h67v-153h116v-58h-116v-312c0 -53 12 -82 59 -82c14 0 33 1 48 5v-54c-19 -7 -45 -9 -68 -9c-71 0 -106 36 -106 118v334h-91zM207 -178h-73v97h73v-97z" />
    <glyph glyph-name="uni1E6F" unicode="&#x1e6f;" horiz-adv-x="302" 
d="M8 445v58h91v153h67v-153h116v-58h-116v-312c0 -53 12 -82 59 -82c14 0 33 1 48 5v-54c-19 -7 -45 -9 -68 -9c-71 0 -106 36 -106 118v334h-91zM28 -106h269v-59h-269v59z" />
    <glyph glyph-name="uni1E97" unicode="&#x1e97;" horiz-adv-x="302" 
d="M8 445v58h91v153h67v-153h116v-58h-116v-312c0 -53 12 -82 59 -82c14 0 33 1 48 5v-54c-19 -7 -45 -9 -68 -9c-71 0 -106 36 -106 118v334h-91zM77 706h-62v102h62v-102zM254 706h-62v102h62v-102z" />
    <glyph glyph-name="ugrave" unicode="&#xf9;" horiz-adv-x="546" 
d="M468 503v-356c0 -49 1 -123 1 -147h-65c-2 13 -3 45 -3 82c-23 -58 -73 -94 -158 -94c-78 0 -166 35 -166 183v332h67v-317c0 -70 22 -137 114 -137c103 0 143 58 143 194v260h67zM101 746h86l133 -156h-67z" />
    <glyph glyph-name="uacute" unicode="&#xfa;" horiz-adv-x="546" 
d="M468 503v-356c0 -49 1 -123 1 -147h-65c-2 13 -3 45 -3 82c-23 -58 -73 -94 -158 -94c-78 0 -166 35 -166 183v332h67v-317c0 -70 22 -137 114 -137c103 0 143 58 143 194v260h67zM360 746h85l-151 -156h-67z" />
    <glyph glyph-name="ucircumflex" unicode="&#xfb;" horiz-adv-x="546" 
d="M468 503v-356c0 -49 1 -123 1 -147h-65c-2 13 -3 45 -3 82c-23 -58 -73 -94 -158 -94c-78 0 -166 35 -166 183v332h67v-317c0 -70 22 -137 114 -137c103 0 143 58 143 194v260h67zM238 736h68l110 -153h-70l-74 111l-73 -111h-69z" />
    <glyph glyph-name="utilde" unicode="&#x169;" horiz-adv-x="546" 
d="M468 503v-356c0 -49 1 -123 1 -147h-65c-2 13 -3 45 -3 82c-23 -58 -73 -94 -158 -94c-78 0 -166 35 -166 183v332h67v-317c0 -70 22 -137 114 -137c103 0 143 58 143 194v260h67zM175 611h-51v19c0 67 30 91 77 91c54 0 104 -52 141 -52c20 0 30 10 30 45v11h50v-19
c0 -69 -30 -95 -77 -95c-55 0 -97 53 -142 53c-18 0 -28 -10 -28 -36v-17z" />
    <glyph glyph-name="udieresis" unicode="&#xfc;" horiz-adv-x="546" 
d="M468 503v-356c0 -49 1 -123 1 -147h-65c-2 13 -3 45 -3 82c-23 -58 -73 -94 -158 -94c-78 0 -166 35 -166 183v332h67v-317c0 -70 22 -137 114 -137c103 0 143 58 143 194v260h67zM215 634h-62v102h62v-102zM392 634h-62v102h62v-102z" />
    <glyph glyph-name="umacron" unicode="&#x16b;" horiz-adv-x="546" 
d="M468 503v-356c0 -49 1 -123 1 -147h-65c-2 13 -3 45 -3 82c-23 -58 -73 -94 -158 -94c-78 0 -166 35 -166 183v332h67v-317c0 -70 22 -137 114 -137c103 0 143 58 143 194v260h67zM138 696h269v-59h-269v59z" />
    <glyph glyph-name="ubreve" unicode="&#x16d;" horiz-adv-x="546" 
d="M468 503v-356c0 -49 1 -123 1 -147h-65c-2 13 -3 45 -3 82c-23 -58 -73 -94 -158 -94c-78 0 -166 35 -166 183v332h67v-317c0 -70 22 -137 114 -137c103 0 143 58 143 194v260h67zM134 721h52c9 -41 36 -75 86 -75c61 0 79 39 88 75h52c-10 -74 -57 -131 -140 -131
c-94 0 -133 67 -138 131z" />
    <glyph glyph-name="uring" unicode="&#x16f;" horiz-adv-x="546" 
d="M468 503v-356c0 -49 1 -123 1 -147h-65c-2 13 -3 45 -3 82c-23 -58 -73 -94 -158 -94c-78 0 -166 35 -166 183v332h67v-317c0 -70 22 -137 114 -137c103 0 143 58 143 194v260h67zM273 564c-62 0 -101 43 -101 95s38 97 100 97c63 0 101 -43 101 -95
c0 -54 -41 -97 -100 -97zM273 605c35 0 54 27 54 55c0 27 -18 56 -54 56c-37 0 -54 -27 -54 -54c0 -29 17 -57 54 -57z" />
    <glyph glyph-name="uhungarumlaut" unicode="&#x171;" horiz-adv-x="546" 
d="M468 503v-356c0 -49 1 -123 1 -147h-65c-2 13 -3 45 -3 82c-23 -58 -73 -94 -158 -94c-78 0 -166 35 -166 183v332h67v-317c0 -70 22 -137 114 -137c103 0 143 58 143 194v260h67zM198 580h-60l101 157h74zM371 580h-60l101 157h75z" />
    <glyph glyph-name="uni01D4" unicode="&#x1d4;" horiz-adv-x="546" 
d="M468 503v-356c0 -49 1 -123 1 -147h-65c-2 13 -3 45 -3 82c-23 -58 -73 -94 -158 -94c-78 0 -166 35 -166 183v332h67v-317c0 -70 22 -137 114 -137c103 0 143 58 143 194v260h67zM309 583h-71l-108 153h70l74 -110l72 110h70z" />
    <glyph glyph-name="uni01D6" unicode="&#x1d6;" horiz-adv-x="546" 
d="M468 503v-356c0 -49 1 -123 1 -147h-65c-2 13 -3 45 -3 82c-23 -58 -73 -94 -158 -94c-78 0 -166 35 -166 183v332h67v-317c0 -70 22 -137 114 -137c103 0 143 58 143 194v260h67zM210 567h-62v82h62v-82zM399 707h-252v55h252v-55zM398 567h-62v82h62v-82z" />
    <glyph glyph-name="uni01D8" unicode="&#x1d8;" horiz-adv-x="546" 
d="M468 503v-356c0 -49 1 -123 1 -147h-65c-2 13 -3 45 -3 82c-23 -58 -73 -94 -158 -94c-78 0 -166 35 -166 183v332h67v-317c0 -70 22 -137 114 -137c103 0 143 58 143 194v260h67zM148 649h62v-82h-62v82zM295 679h-64l96 121h84zM398 567h-62v82h62v-82z" />
    <glyph glyph-name="uni01DA" unicode="&#x1da;" horiz-adv-x="546" 
d="M468 503v-356c0 -49 1 -123 1 -147h-65c-2 13 -3 45 -3 82c-23 -58 -73 -94 -158 -94c-78 0 -166 35 -166 183v332h67v-317c0 -70 22 -137 114 -137c103 0 143 58 143 194v260h67zM307 677h-66l-109 121h69l73 -81l74 81h66zM210 565h-62v82h62v-82zM398 565h-62v82h62
v-82z" />
    <glyph glyph-name="uni01DC" unicode="&#x1dc;" horiz-adv-x="546" 
d="M468 503v-356c0 -49 1 -123 1 -147h-65c-2 13 -3 45 -3 82c-23 -58 -73 -94 -158 -94c-78 0 -166 35 -166 183v332h67v-317c0 -70 22 -137 114 -137c103 0 143 58 143 194v260h67zM148 647h62v-82h-62v82zM134 798h86l95 -121h-64zM398 565h-62v82h62v-82z" />
    <glyph glyph-name="uni1EE5" unicode="&#x1ee5;" horiz-adv-x="546" 
d="M468 503v-356c0 -49 1 -123 1 -147h-65c-2 13 -3 45 -3 82c-23 -58 -73 -94 -158 -94c-78 0 -166 35 -166 183v332h67v-317c0 -70 22 -137 114 -137c103 0 143 58 143 194v260h67zM309 -180h-73v97h73v-97z" />
    <glyph glyph-name="uni1EE7" unicode="&#x1ee7;" horiz-adv-x="546" 
d="M468 503v-356c0 -49 1 -123 1 -147h-65c-2 13 -3 45 -3 82c-23 -58 -73 -94 -158 -94c-78 0 -166 35 -166 183v332h67v-317c0 -70 22 -137 114 -137c103 0 143 58 143 194v260h67zM297 586h-71c42 34 63 60 63 88c0 21 -13 40 -45 40c-28 0 -46 -9 -62 -18l-18 43
c21 15 53 29 93 29c63 0 94 -41 94 -85c0 -48 -30 -76 -54 -97z" />
    <glyph glyph-name="uogonek" unicode="&#x173;" horiz-adv-x="546" 
d="M468 503v-356c0 -49 1 -123 1 -147h-1c-31 -29 -67 -66 -67 -113c0 -35 25 -56 58 -56c26 0 45 4 61 10v-56c-19 -12 -49 -17 -76 -17c-69 0 -112 41 -112 108c0 49 35 98 71 133c-1 16 -2 43 -2 73c-23 -58 -73 -94 -158 -94c-78 0 -166 35 -166 183v332h67v-317
c0 -70 22 -137 114 -137c103 0 143 58 143 194v260h67z" />
    <glyph glyph-name="uhorn" unicode="&#x1b0;" horiz-adv-x="546" 
d="M401 82c-23 -58 -73 -94 -158 -94c-78 0 -166 35 -166 183v332h67v-317c0 -70 22 -137 114 -137c103 0 143 58 143 194v260h29c57 10 77 37 77 73c0 20 -5 41 -11 56h66c3 -10 7 -32 7 -53c0 -60 -35 -108 -101 -123v-309c0 -49 1 -123 1 -147h-65c-2 13 -3 45 -3 82z
" />
    <glyph glyph-name="uni1EE9" unicode="&#x1ee9;" horiz-adv-x="546" 
d="M401 82c-23 -58 -73 -94 -158 -94c-78 0 -166 35 -166 183v332h67v-317c0 -70 22 -137 114 -137c103 0 143 58 143 194v260h29c57 10 77 37 77 73c0 20 -5 41 -11 56h66c3 -10 7 -32 7 -53c0 -60 -35 -108 -101 -123v-309c0 -49 1 -123 1 -147h-65c-2 13 -3 45 -3 82z
M360 746h85l-151 -156h-67z" />
    <glyph glyph-name="uni1EEB" unicode="&#x1eeb;" horiz-adv-x="546" 
d="M401 82c-23 -58 -73 -94 -158 -94c-78 0 -166 35 -166 183v332h67v-317c0 -70 22 -137 114 -137c103 0 143 58 143 194v260h29c57 10 77 37 77 73c0 20 -5 41 -11 56h66c3 -10 7 -32 7 -53c0 -60 -35 -108 -101 -123v-309c0 -49 1 -123 1 -147h-65c-2 13 -3 45 -3 82z
M109 746h86l133 -156h-67z" />
    <glyph glyph-name="uni1EED" unicode="&#x1eed;" horiz-adv-x="546" 
d="M401 82c-23 -58 -73 -94 -158 -94c-78 0 -166 35 -166 183v332h67v-317c0 -70 22 -137 114 -137c103 0 143 58 143 194v260h29c57 10 77 37 77 73c0 20 -5 41 -11 56h66c3 -10 7 -32 7 -53c0 -60 -35 -108 -101 -123v-309c0 -49 1 -123 1 -147h-65c-2 13 -3 45 -3 82z
M309 586h-71c42 34 63 60 63 88c0 21 -13 40 -45 40c-28 0 -46 -9 -62 -18l-18 43c21 15 53 29 93 29c63 0 94 -41 94 -85c0 -48 -30 -76 -54 -97z" />
    <glyph glyph-name="uni1EEF" unicode="&#x1eef;" horiz-adv-x="546" 
d="M401 82c-23 -58 -73 -94 -158 -94c-78 0 -166 35 -166 183v332h67v-317c0 -70 22 -137 114 -137c103 0 143 58 143 194v260h29c57 10 77 37 77 73c0 20 -5 41 -11 56h66c3 -10 7 -32 7 -53c0 -60 -35 -108 -101 -123v-309c0 -49 1 -123 1 -147h-65c-2 13 -3 45 -3 82z
M175 611h-51v19c0 67 30 91 77 91c54 0 104 -52 141 -52c20 0 30 10 30 45v11h50v-19c0 -69 -30 -95 -77 -95c-55 0 -97 53 -142 53c-18 0 -28 -10 -28 -36v-17z" />
    <glyph glyph-name="uni1EF1" unicode="&#x1ef1;" horiz-adv-x="546" 
d="M401 82c-23 -58 -73 -94 -158 -94c-78 0 -166 35 -166 183v332h67v-317c0 -70 22 -137 114 -137c103 0 143 58 143 194v260h29c57 10 77 37 77 73c0 20 -5 41 -11 56h66c3 -10 7 -32 7 -53c0 -60 -35 -108 -101 -123v-309c0 -49 1 -123 1 -147h-65c-2 13 -3 45 -3 82z
M309 -178h-73v97h73v-97z" />
    <glyph glyph-name="wgrave" unicode="&#x1e81;" horiz-adv-x="753" 
d="M28 503h71c69 -249 108 -391 117 -439h1c8 43 52 187 127 439h69c86 -299 112 -385 121 -427h1c13 54 35 130 121 427h70l-158 -503h-73c-51 181 -109 377 -119 427h-1c-10 -52 -62 -220 -123 -427h-77zM194 746h86l133 -156h-67z" />
    <glyph glyph-name="wacute" unicode="&#x1e83;" horiz-adv-x="753" 
d="M28 503h71c69 -249 108 -391 117 -439h1c8 43 52 187 127 439h69c86 -299 112 -385 121 -427h1c13 54 35 130 121 427h70l-158 -503h-73c-51 181 -109 377 -119 427h-1c-10 -52 -62 -220 -123 -427h-77zM473 746h85l-151 -156h-67z" />
    <glyph glyph-name="wcircumflex" unicode="&#x175;" horiz-adv-x="753" 
d="M28 503h71c69 -249 108 -391 117 -439h1c8 43 52 187 127 439h69c86 -299 112 -385 121 -427h1c13 54 35 130 121 427h70l-158 -503h-73c-51 181 -109 377 -119 427h-1c-10 -52 -62 -220 -123 -427h-77zM342 736h68l110 -153h-70l-74 111l-73 -111h-69z" />
    <glyph glyph-name="wdieresis" unicode="&#x1e85;" horiz-adv-x="753" 
d="M28 503h71c69 -249 108 -391 117 -439h1c8 43 52 187 127 439h69c86 -299 112 -385 121 -427h1c13 54 35 130 121 427h70l-158 -503h-73c-51 181 -109 377 -119 427h-1c-10 -52 -62 -220 -123 -427h-77zM319 634h-62v102h62v-102zM496 634h-62v102h62v-102z" />
    <glyph glyph-name="ygrave" unicode="&#x1ef3;" horiz-adv-x="467" 
d="M12 503h73c93 -266 137 -392 153 -445h1c18 60 56 176 147 445h68l-185 -529c-53 -149 -89 -184 -186 -184c-17 0 -32 1 -50 3v62c14 -2 29 -3 44 -3c68 0 92 32 126 127zM61 746h86l133 -156h-67z" />
    <glyph glyph-name="yacute" unicode="&#xfd;" horiz-adv-x="467" 
d="M12 503h73c93 -266 137 -392 153 -445h1c18 60 56 176 147 445h68l-185 -529c-53 -149 -89 -184 -186 -184c-17 0 -32 1 -50 3v62c14 -2 29 -3 44 -3c68 0 92 32 126 127zM316 746h85l-151 -156h-67z" />
    <glyph glyph-name="ycircumflex" unicode="&#x177;" horiz-adv-x="467" 
d="M12 503h73c93 -266 137 -392 153 -445h1c18 60 56 176 147 445h68l-185 -529c-53 -149 -89 -184 -186 -184c-17 0 -32 1 -50 3v62c14 -2 29 -3 44 -3c68 0 92 32 126 127zM198 736h68l110 -153h-70l-74 111l-73 -111h-69z" />
    <glyph glyph-name="ydieresis" unicode="&#xff;" horiz-adv-x="467" 
d="M12 503h73c93 -266 137 -392 153 -445h1c18 60 56 176 147 445h68l-185 -529c-53 -149 -89 -184 -186 -184c-17 0 -32 1 -50 3v62c14 -2 29 -3 44 -3c68 0 92 32 126 127zM175 634h-62v102h62v-102zM352 634h-62v102h62v-102z" />
    <glyph glyph-name="uni1E8F" unicode="&#x1e8f;" horiz-adv-x="467" 
d="M12 503h73c93 -266 137 -392 153 -445h1c18 60 56 176 147 445h68l-185 -529c-53 -149 -89 -184 -186 -184c-17 0 -32 1 -50 3v62c14 -2 29 -3 44 -3c68 0 92 32 126 127zM266 634h-66v102h66v-102z" />
    <glyph glyph-name="uni1EF5" unicode="&#x1ef5;" horiz-adv-x="467" 
d="M12 503h73c93 -266 137 -392 153 -445h1c18 60 56 176 147 445h68l-185 -529c-53 -149 -89 -184 -186 -184c-17 0 -32 1 -50 3v62c14 -2 29 -3 44 -3c68 0 92 32 126 127zM409 -178h-73v97h73v-97z" />
    <glyph glyph-name="uni1EF7" unicode="&#x1ef7;" horiz-adv-x="467" 
d="M12 503h73c93 -266 137 -392 153 -445h1c18 60 56 176 147 445h68l-185 -529c-53 -149 -89 -184 -186 -184c-17 0 -32 1 -50 3v62c14 -2 29 -3 44 -3c68 0 92 32 126 127zM269 586h-71c42 34 63 60 63 88c0 21 -13 40 -45 40c-28 0 -46 -9 -62 -18l-18 43
c21 15 53 29 93 29c63 0 94 -41 94 -85c0 -48 -30 -76 -54 -97z" />
    <glyph glyph-name="uni1EF9" unicode="&#x1ef9;" horiz-adv-x="467" 
d="M12 503h73c93 -266 137 -392 153 -445h1c18 60 56 176 147 445h68l-185 -529c-53 -149 -89 -184 -186 -184c-17 0 -32 1 -50 3v62c14 -2 29 -3 44 -3c68 0 92 32 126 127zM135 611h-51v19c0 67 30 91 77 91c54 0 104 -52 141 -52c20 0 30 10 30 45v11h50v-19
c0 -69 -30 -95 -77 -95c-55 0 -97 53 -142 53c-18 0 -28 -10 -28 -36v-17z" />
    <glyph glyph-name="zacute" unicode="&#x17a;" horiz-adv-x="437" 
d="M23 0v57l306 387h-290v59h366v-59l-301 -385h314l-13 -59h-382zM296 746h85l-151 -156h-67z" />
    <glyph glyph-name="zcaron" unicode="&#x17e;" horiz-adv-x="437" 
d="M23 0v57l306 387h-290v59h366v-59l-301 -385h314l-13 -59h-382zM254 583h-71l-108 153h70l74 -110l72 110h70z" />
    <glyph glyph-name="zdotaccent" unicode="&#x17c;" horiz-adv-x="437" 
d="M23 0v57l306 387h-290v59h366v-59l-301 -385h314l-13 -59h-382zM251 634h-66v102h66v-102z" />
    <glyph glyph-name="uni1E93" unicode="&#x1e93;" horiz-adv-x="437" 
d="M23 0v57l306 387h-290v59h366v-59l-301 -385h314l-13 -59h-382zM254 -178h-73v97h73v-97z" />
    <glyph glyph-name="eth" unicode="&#xf0;" horiz-adv-x="531" 
d="M109 691v56c68 -12 129 -34 182 -67l110 73l25 -42l-93 -61c96 -78 153 -199 153 -366c0 -204 -96 -296 -228 -296c-136 0 -218 113 -218 260c0 165 102 258 228 258c65 0 92 -18 122 -42c-22 59 -57 110 -109 151l-131 -87l-25 42l111 74c-36 20 -78 36 -127 47z
M265 447c-104 0 -157 -91 -157 -201c0 -103 56 -198 155 -198c106 0 156 95 156 231c0 92 -43 168 -154 168z" />
    <glyph glyph-name="thorn" unicode="&#xfe;" horiz-adv-x="559" 
d="M146 -207h-67v942h67v-321c29 58 81 99 170 99c118 0 201 -97 202 -250c1 -178 -98 -275 -221 -275c-83 0 -127 38 -151 83v-278zM449 259c0 113 -56 194 -148 194c-107 0 -159 -84 -159 -200c0 -113 31 -204 152 -204c99 0 155 86 155 210z" />
    <glyph glyph-name="uni0237" unicode="&#x237;" horiz-adv-x="225" 
d="M79 503h67v-530c0 -137 -33 -183 -131 -183c-4 0 -24 1 -31 2v60c9 -1 17 -1 24 -1c60 0 71 38 71 112v540z" />
    <glyph glyph-name="uni0251" unicode="&#x251;" horiz-adv-x="562" 
d="M414 503h67v-390c0 -51 4 -101 5 -114h-62c-3 18 -6 55 -8 85c-25 -58 -78 -96 -165 -96c-129 0 -210 106 -210 258c0 149 86 269 223 269c98 0 136 -44 150 -77v65zM110 248c0 -129 67 -199 150 -199c123 0 157 94 157 213c0 102 -29 192 -149 192
c-94 0 -158 -76 -158 -206z" />
    <glyph glyph-name="uni0259" unicode="&#x259;" horiz-adv-x="505" 
d="M33 262h363c0 117 -59 194 -151 194c-88 0 -117 -48 -134 -87h-68c21 66 74 146 204 146c156 0 217 -130 217 -259c0 -146 -73 -268 -222 -268c-159 0 -210 132 -210 232c0 15 0 29 1 42zM393 210h-292c1 -92 49 -165 142 -165c97 0 140 67 150 165z" />
    <glyph glyph-name="uni0261" unicode="&#x261;" horiz-adv-x="555" 
d="M477 358v-319c0 -161 -69 -249 -224 -249c-140 0 -191 79 -202 152h68c17 -63 68 -94 137 -94c124 0 156 79 156 201v47c-27 -61 -75 -95 -163 -95c-121 0 -208 98 -208 250c0 167 96 264 216 264c100 0 142 -47 155 -84c1 26 3 61 4 72h63c0 -23 -2 -97 -2 -145z
M111 254c0 -113 59 -193 150 -193c118 0 153 78 153 200c0 124 -36 195 -150 195c-106 0 -153 -90 -153 -202z" />
    <glyph glyph-name="fi" unicode="&#xfb01;" horiz-adv-x="501" 
d="M160 0h-67v445h-84v58h84v67c0 88 29 176 141 176c17 0 40 -3 52 -7v-60c-13 4 -35 5 -49 5c-56 0 -77 -37 -77 -118v-63h106v-58h-106v-445zM356 0v503h67v-503h-67zM423 633h-67v103h67v-103z" />
    <glyph glyph-name="fl" unicode="&#xfb02;" horiz-adv-x="500" 
d="M160 0h-67v445h-84v58h84v67c0 88 29 176 141 176c17 0 40 -3 52 -7v-60c-13 4 -35 5 -49 5c-56 0 -77 -37 -77 -118v-63h106v-58h-106v-445zM422 0h-67v736h67v-736z" />
    <glyph glyph-name="ampersand" unicode="&#x26;" horiz-adv-x="731" 
d="M244 52c68 0 114 22 181 114l-179 177c-101 -66 -123 -105 -123 -166c0 -67 56 -125 121 -125zM606 446h74l-175 -265l184 -181h-95l-128 126c-66 -91 -124 -136 -225 -136c-121 0 -189 92 -189 181c0 82 37 137 154 210c-53 56 -87 97 -87 164c0 84 58 163 167 163
c96 0 159 -70 159 -156c0 -72 -45 -116 -139 -175l157 -155zM284 652c-58 0 -99 -37 -99 -105c0 -42 28 -79 84 -134c88 59 111 87 111 138c0 52 -33 101 -96 101z" />
    <glyph glyph-name="zero.slash" horiz-adv-x="548" 
d="M276 670c173 0 219 -175 219 -336c0 -155 -43 -346 -222 -346c-173 0 -221 175 -221 341c0 165 51 341 224 341zM277 612c-127 0 -156 -138 -156 -284c0 -59 5 -121 22 -172l228 413c-22 27 -52 43 -94 43zM273 46c126 0 152 149 152 288c0 65 -5 132 -25 184l-231 -417
c23 -34 56 -55 104 -55z" />
    <glyph glyph-name="zero" unicode="0" horiz-adv-x="548" 
d="M276 670c174 0 219 -175 219 -336c0 -157 -43 -346 -222 -346c-175 0 -221 175 -221 341c0 165 50 341 224 341zM277 610c-127 0 -152 -136 -152 -282c0 -126 24 -280 148 -280c126 0 150 147 150 286c0 126 -24 276 -146 276z" />
    <glyph glyph-name="one" unicode="1" horiz-adv-x="352" 
d="M251 0h-69v576c-34 -27 -105 -60 -143 -68v58c46 14 110 53 158 96h54v-662z" />
    <glyph glyph-name="two" unicode="2" horiz-adv-x="515" 
d="M472 0h-426v4c0 88 67 188 200 291c110 85 139 111 139 190c0 69 -38 125 -126 125c-85 0 -128 -42 -143 -131h-67c12 111 82 191 210 191c140 0 197 -93 197 -183c0 -101 -43 -137 -165 -234c-94 -75 -148 -133 -166 -191h357z" />
    <glyph glyph-name="three" unicode="3" horiz-adv-x="547" 
d="M137 506h-66c11 81 69 164 200 164s191 -82 191 -168c0 -80 -48 -122 -90 -137v-2c65 -20 119 -72 119 -169c0 -108 -68 -206 -222 -206c-141 0 -207 91 -218 178h68c15 -63 64 -119 154 -119c105 0 147 70 147 146c0 97 -62 138 -156 138h-42v58h35c93 0 135 38 135 112
c0 65 -44 109 -123 109c-83 0 -117 -44 -132 -104z" />
    <glyph glyph-name="four" unicode="4" horiz-adv-x="530" 
d="M416 0h-65v177h-314v63l309 418h70v-420h88l-8 -61h-80v-177zM351 238v184c0 43 0 117 2 161c-27 -49 -171 -243 -245 -345h243z" />
    <glyph glyph-name="five" unicode="5" horiz-adv-x="536" 
d="M467 658l-9 -61h-280c-6 -60 -25 -173 -32 -211c29 35 74 59 145 59c117 0 197 -80 197 -218c0 -129 -67 -239 -220 -239c-112 0 -194 64 -212 174h69c17 -65 64 -115 146 -115c98 0 146 69 146 176c0 91 -39 162 -136 162c-86 0 -122 -36 -148 -94l-65 14
c21 88 45 273 54 353h345z" />
    <glyph glyph-name="six" unicode="6" horiz-adv-x="539" 
d="M472 521h-68c-15 53 -50 91 -121 91c-119 0 -160 -112 -164 -269c27 51 77 102 174 102c130 0 200 -94 200 -219c0 -126 -71 -238 -215 -238c-178 0 -227 147 -227 332s59 350 234 350c131 0 178 -87 187 -149zM279 47c104 0 143 86 143 174c0 78 -30 165 -139 165
c-88 0 -153 -58 -153 -166c0 -54 28 -173 149 -173z" />
    <glyph glyph-name="seven" unicode="7" horiz-adv-x="469" 
d="M21 658h424v-59c-118 -157 -227 -404 -264 -599h-70c32 185 149 447 261 597h-351v61z" />
    <glyph glyph-name="eight" unicode="8" horiz-adv-x="539" 
d="M266 -12c-125 0 -219 78 -219 197c0 96 64 151 124 173c-60 27 -95 75 -95 140c0 98 68 172 199 172c119 0 190 -73 190 -171c0 -68 -38 -118 -94 -138c67 -22 121 -86 121 -174c0 -122 -94 -199 -226 -199zM270 47c89 0 152 49 152 141c0 90 -57 139 -152 139
c-106 0 -152 -61 -152 -139c0 -79 54 -141 152 -141zM272 611c-92 0 -127 -47 -127 -111c0 -60 37 -113 129 -113c86 0 122 43 122 109c0 61 -37 115 -124 115z" />
    <glyph glyph-name="nine" unicode="9" horiz-adv-x="530" 
d="M55 138h71c21 -60 59 -90 127 -90c141 0 151 196 155 282c-33 -62 -92 -87 -165 -87c-119 0 -197 87 -197 209c0 117 77 218 213 218c156 0 217 -124 217 -302c0 -168 -33 -378 -226 -378c-124 0 -177 71 -195 148zM256 610c-98 0 -140 -69 -140 -156
c0 -91 52 -151 136 -151c101 0 145 54 145 147c0 39 -14 160 -141 160z" />
    <glyph glyph-name="zero.slashtab" horiz-adv-x="539" 
d="M272 670c173 0 219 -175 219 -336c0 -155 -43 -346 -222 -346c-173 0 -221 175 -221 341c0 165 51 341 224 341zM273 612c-127 0 -156 -138 -156 -284c0 -59 5 -121 22 -172l228 413c-22 27 -52 43 -94 43zM269 46c126 0 152 149 152 288c0 65 -5 132 -25 184l-231 -417
c23 -34 56 -55 104 -55z" />
    <glyph glyph-name="zero.tab" horiz-adv-x="539" 
d="M272 670c174 0 219 -175 219 -336c0 -157 -43 -346 -222 -346c-175 0 -221 175 -221 341c0 165 50 341 224 341zM273 610c-127 0 -152 -136 -152 -282c0 -126 24 -280 148 -280c126 0 150 147 150 286c0 126 -24 276 -146 276z" />
    <glyph glyph-name="one.tab" horiz-adv-x="539" 
d="M435 0h-387v62h164v505c-32 -22 -105 -39 -146 -43v53c55 10 126 40 166 81h48v-596h155v-62z" />
    <glyph glyph-name="two.tab" horiz-adv-x="539" 
d="M485 0h-426v4c0 88 67 188 200 291c110 85 139 111 139 190c0 69 -38 125 -126 125c-85 0 -128 -42 -143 -131h-67c12 111 82 191 210 191c140 0 197 -93 197 -183c0 -101 -43 -137 -165 -234c-94 -75 -148 -133 -166 -191h357z" />
    <glyph glyph-name="three.tab" horiz-adv-x="539" 
d="M135 506h-66c11 81 69 164 200 164s191 -82 191 -168c0 -80 -48 -122 -90 -137v-2c65 -20 119 -72 119 -169c0 -108 -68 -206 -222 -206c-141 0 -207 91 -218 178h68c15 -63 64 -119 154 -119c105 0 147 70 147 146c0 97 -62 138 -156 138h-42v58h35c93 0 135 38 135 112
c0 65 -44 109 -123 109c-83 0 -117 -44 -132 -104z" />
    <glyph glyph-name="four.tab" horiz-adv-x="539" 
d="M416 0h-65v177h-314v63l309 418h70v-420h88l-8 -61h-80v-177zM351 238v184c0 43 0 117 2 161c-27 -49 -171 -243 -245 -345h243z" />
    <glyph glyph-name="five.tab" horiz-adv-x="539" 
d="M466 658l-9 -61h-280c-6 -60 -25 -173 -32 -211c29 35 74 59 145 59c117 0 197 -80 197 -218c0 -129 -67 -239 -220 -239c-112 0 -194 64 -212 174h69c17 -65 64 -115 146 -115c98 0 146 69 146 176c0 91 -39 162 -136 162c-86 0 -122 -36 -148 -94l-65 14
c21 88 45 273 54 353h345z" />
    <glyph glyph-name="six.tab" horiz-adv-x="539" 
d="M476 521h-68c-15 53 -50 91 -121 91c-119 0 -160 -112 -164 -269c27 51 77 102 174 102c130 0 200 -94 200 -219c0 -126 -71 -238 -215 -238c-178 0 -227 147 -227 332s59 350 234 350c131 0 178 -87 187 -149zM283 47c104 0 143 86 143 174c0 78 -30 165 -139 165
c-88 0 -153 -58 -153 -166c0 -54 28 -173 149 -173z" />
    <glyph glyph-name="seven.tab" horiz-adv-x="539" 
d="M57 658h424v-59c-118 -157 -227 -404 -264 -599h-70c32 185 149 447 261 597h-351v61z" />
    <glyph glyph-name="eight.tab" horiz-adv-x="539" 
d="M265 -12c-125 0 -219 78 -219 197c0 96 64 151 124 173c-60 27 -95 75 -95 140c0 98 68 172 199 172c119 0 190 -73 190 -171c0 -68 -38 -118 -94 -138c67 -22 121 -86 121 -174c0 -122 -94 -199 -226 -199zM269 47c89 0 152 49 152 141c0 90 -57 139 -152 139
c-106 0 -152 -61 -152 -139c0 -79 54 -141 152 -141zM271 611c-92 0 -127 -47 -127 -111c0 -60 37 -113 129 -113c86 0 122 43 122 109c0 61 -37 115 -124 115z" />
    <glyph glyph-name="nine.tab" horiz-adv-x="539" 
d="M64 138h71c21 -60 59 -90 127 -90c141 0 151 196 155 282c-33 -62 -92 -87 -165 -87c-119 0 -197 87 -197 209c0 117 77 218 213 218c156 0 217 -124 217 -302c0 -168 -33 -378 -226 -378c-124 0 -177 71 -195 148zM265 610c-98 0 -140 -69 -140 -156
c0 -91 52 -151 136 -151c101 0 145 54 145 147c0 39 -14 160 -141 160z" />
    <glyph glyph-name="zero.slashcap" horiz-adv-x="580" 
d="M292 708c180 0 233 -185 233 -354c0 -163 -45 -366 -236 -366c-182 0 -234 186 -234 361c0 173 56 359 237 359zM293 648c-131 0 -167 -146 -167 -299c0 -67 7 -137 28 -192l240 442c-24 30 -57 49 -101 49zM289 48c132 0 165 158 165 306c0 66 -8 138 -31 194l-241 -444
c25 -34 59 -56 107 -56z" />
    <glyph glyph-name="zero.cap" horiz-adv-x="580" 
d="M292 708c180 0 233 -185 233 -354c0 -163 -45 -366 -236 -366c-182 0 -234 186 -234 361c0 173 56 359 237 359zM293 647c-131 0 -164 -145 -164 -298c0 -130 31 -300 160 -300c132 0 163 157 163 305c0 134 -30 293 -159 293z" />
    <glyph glyph-name="one.cap" horiz-adv-x="358" 
d="M259 0h-72v606c-31 -29 -112 -61 -153 -67v58c63 17 131 57 170 101h55v-698z" />
    <glyph glyph-name="two.cap" horiz-adv-x="546" 
d="M502 0h-456v6c0 88 54 196 213 313c112 82 152 108 152 192c0 76 -51 135 -139 135c-94 0 -138 -54 -153 -140h-69c11 113 86 201 222 201c150 0 211 -98 211 -192c0 -107 -47 -149 -179 -243c-118 -84 -164 -159 -176 -210h385z" />
    <glyph glyph-name="three.cap" horiz-adv-x="581" 
d="M141 533h-67c12 86 73 175 213 175c134 0 202 -83 202 -177c0 -86 -46 -125 -95 -145v-2c64 -22 126 -73 126 -178c0 -108 -67 -218 -235 -218c-155 0 -221 98 -231 195h68c15 -72 66 -134 168 -134c112 0 158 68 158 154c0 98 -63 148 -172 148h-33v59h29
c108 0 146 49 146 118s-46 120 -133 120c-91 0 -129 -50 -144 -115z" />
    <glyph glyph-name="four.cap" horiz-adv-x="562" 
d="M442 0h-68v192h-335v63l330 443h73v-446h93l-10 -60h-83v-192zM374 252v197c0 46 -2 133 2 171c-29 -51 -188 -262 -263 -368h261z" />
    <glyph glyph-name="five.cap" horiz-adv-x="568" 
d="M500 698l-10 -62h-310c-9 -78 -22 -184 -31 -232c27 37 71 69 158 69c127 0 210 -91 210 -231c0 -145 -73 -254 -236 -254c-122 0 -208 68 -225 187h70c16 -66 58 -126 158 -126c116 0 163 79 163 187c0 91 -43 174 -152 174c-104 0 -132 -53 -155 -98l-67 15
c12 62 35 232 48 371h379z" />
    <glyph glyph-name="six.cap" horiz-adv-x="571" 
d="M500 552h-69c-17 58 -53 96 -130 97c-141 2 -174 -149 -177 -286c31 60 90 102 187 102c131 0 212 -92 212 -229c0 -126 -69 -248 -227 -248c-182 0 -242 141 -242 350c0 170 51 370 248 370c135 0 187 -85 198 -156zM296 48c101 0 156 80 156 183c0 84 -39 172 -152 172
c-102 0 -164 -61 -164 -168c0 -62 30 -187 160 -187z" />
    <glyph glyph-name="seven.cap" horiz-adv-x="498" 
d="M22 698h445v-60c-122 -165 -236 -413 -276 -638h-76c41 225 158 475 277 636h-370v62z" />
    <glyph glyph-name="eight.cap" horiz-adv-x="572" 
d="M283 -12c-139 0 -232 85 -232 210c0 111 75 161 124 181c-53 26 -93 75 -93 149c0 105 80 180 210 180c121 0 200 -71 200 -178c0 -81 -43 -128 -98 -149c70 -23 127 -84 127 -180c0 -135 -104 -213 -238 -213zM286 48c96 0 163 54 163 153c0 91 -58 146 -163 146
c-118 0 -163 -61 -163 -146c0 -87 65 -153 163 -153zM288 649c-92 0 -137 -45 -137 -120c0 -70 46 -121 139 -121c86 0 133 44 133 118c0 73 -50 123 -135 123z" />
    <glyph glyph-name="nine.cap" horiz-adv-x="561" 
d="M59 150h72c21 -68 65 -103 137 -103c151 0 165 195 169 311c-33 -65 -95 -94 -175 -94c-114 0 -212 77 -212 218c0 127 82 226 223 226c157 0 233 -111 233 -321c0 -156 -25 -399 -240 -399c-127 0 -186 69 -207 162zM272 649c-89 0 -150 -59 -150 -163
c0 -98 62 -161 149 -161c99 0 153 50 153 150c0 76 -34 174 -152 174z" />
    <glyph glyph-name="period" unicode="." horiz-adv-x="185" 
d="M127 0h-69v137h69v-137z" />
    <glyph glyph-name="comma" unicode="," horiz-adv-x="187" 
d="M59 -114h-57c51 103 67 192 71 251h67c-7 -86 -40 -187 -81 -251z" />
    <glyph glyph-name="colon" unicode=":" horiz-adv-x="234" 
d="M150 0h-66v137h66v-137zM150 367h-66v135h66v-135z" />
    <glyph glyph-name="semicolon" unicode=";" horiz-adv-x="234" 
d="M72 -114h-56c45 94 66 175 70 251h67c-5 -89 -44 -199 -81 -251zM152 365h-67v137h67v-137z" />
    <glyph glyph-name="ellipsis" unicode="&#x2026;" horiz-adv-x="815" 
d="M142 0h-69v137h69v-137zM416 0h-69v137h69v-137zM688 0h-69v137h69v-137z" />
    <glyph glyph-name="exclam" unicode="!" horiz-adv-x="296" 
d="M206 229h-58l-7 346v123h72v-123zM210 -1h-68v128h68v-128z" />
    <glyph glyph-name="exclamdown" unicode="&#xa1;" horiz-adv-x="231" 
d="M70 274h57l8 -347v-123h-73v124zM66 503h67v-127h-67v127z" />
    <glyph glyph-name="question" unicode="?" horiz-adv-x="487" 
d="M277 207h-68v14c0 48 12 98 93 170c63 57 72 99 72 142c0 52 -34 117 -120 117c-81 0 -121 -49 -134 -125h-66c3 53 40 183 201 183c139 0 188 -100 188 -175c0 -73 -23 -119 -97 -185c-53 -48 -69 -83 -69 -133v-8zM277 0h-68v127h68v-127z" />
    <glyph glyph-name="questiondown" unicode="&#xbf;" horiz-adv-x="430" 
d="M20 -32c0 73 24 122 97 187c53 48 70 82 70 132v8h68v-14c0 -49 -13 -97 -93 -168c-65 -59 -75 -101 -75 -144c0 -54 39 -117 124 -117c79 0 124 38 138 124h61c-4 -63 -40 -182 -204 -182c-124 0 -186 86 -186 174zM187 503h68v-127h-68v127z" />
    <glyph glyph-name="quotesingle" unicode="'" horiz-adv-x="164" 
d="M109 476h-55l-6 177v83h68v-83z" />
    <glyph glyph-name="quotedbl" unicode="&#x22;" horiz-adv-x="315" 
d="M108 476h-51l-7 177v83h66v-83zM258 476h-52l-7 177v83h66v-83z" />
    <glyph glyph-name="quoteleft" unicode="&#x2018;" horiz-adv-x="171" 
d="M91 736h57c-27 -82 -43 -195 -45 -252h-69c5 79 32 194 57 252z" />
    <glyph glyph-name="quoteright" unicode="&#x2019;" horiz-adv-x="171" 
d="M80 484h-57c27 82 44 194 46 252h69c-6 -79 -33 -195 -58 -252z" />
    <glyph glyph-name="quotedblleft" unicode="&#x201c;" horiz-adv-x="341" 
d="M252 725h53c-26 -84 -43 -189 -45 -252h-67c4 77 36 202 59 252zM94 725h54c-27 -83 -43 -191 -45 -252h-67c4 77 34 200 58 252z" />
    <glyph glyph-name="quotedblright" unicode="&#x201d;" horiz-adv-x="341" 
d="M90 484h-54c26 84 43 189 45 252h67c-3 -77 -35 -202 -58 -252zM247 484h-54c27 82 43 190 45 252h67c-4 -77 -34 -200 -58 -252z" />
    <glyph glyph-name="quotesinglbase" unicode="&#x201a;" horiz-adv-x="171" 
d="M80 -127h-57c27 82 44 195 46 252h69c-6 -79 -33 -195 -58 -252z" />
    <glyph glyph-name="quotedblbase" unicode="&#x201e;" horiz-adv-x="307" 
d="M77 -127h-54c27 84 43 189 45 252h68c-4 -77 -36 -202 -59 -252zM234 -127h-54c27 83 43 191 45 252h68c-5 -77 -35 -200 -59 -252z" />
    <glyph glyph-name="guilsinglleft" unicode="&#x2039;" horiz-adv-x="361" 
d="M301 451l-169 -192l170 -194h-72l-171 194l171 192h71z" />
    <glyph glyph-name="guilsinglright" unicode="&#x203a;" horiz-adv-x="361" 
d="M59 65l170 192l-170 194h71l172 -194l-172 -192h-71z" />
    <glyph glyph-name="guillemotleft" unicode="&#xab;" horiz-adv-x="526" 
d="M282 451l-152 -192l153 -194h-69l-155 194l155 192h68zM466 451l-154 -192l155 -194h-71l-154 194l154 192h70z" />
    <glyph glyph-name="guillemotright" unicode="&#xbb;" horiz-adv-x="526" 
d="M244 65l151 192l-152 194h69l155 -194l-155 -192h-68zM59 65l155 192l-155 194h70l155 -194l-155 -192h-70z" />
    <glyph glyph-name="uni00A0" unicode="&#xa0;" horiz-adv-x="257" 
 />
    <glyph glyph-name="uni2007" unicode="&#x2007;" horiz-adv-x="539" 
 />
    <glyph glyph-name="hyphen" unicode="-" horiz-adv-x="375" 
d="M59 287h257v-63h-257v63z" />
    <glyph glyph-name="uni2010" unicode="&#x2010;" horiz-adv-x="375" 
d="M59 287h257v-63h-257v63z" />
    <glyph glyph-name="uni00AD" unicode="&#xad;" horiz-adv-x="375" 
d="M59 287h257v-63h-257v63z" />
    <glyph glyph-name="endash" unicode="&#x2013;" horiz-adv-x="525" 
d="M59 287h407v-62h-407v62z" />
    <glyph glyph-name="emdash" unicode="&#x2014;" horiz-adv-x="854" 
d="M59 287h736v-62h-736v62z" />
    <glyph glyph-name="figuredash" unicode="&#x2012;" horiz-adv-x="539" 
d="M88 361h363v-62h-363v62z" />
    <glyph glyph-name="uni2015" unicode="&#x2015;" horiz-adv-x="854" 
d="M59 287h736v-62h-736v62z" />
    <glyph glyph-name="periodcentered" unicode="&#xb7;" horiz-adv-x="185" 
d="M127 200h-69v137h69v-137z" />
    <glyph glyph-name="bullet" unicode="&#x2022;" horiz-adv-x="358" 
d="M90 346h178v-186h-178v186z" />
    <glyph glyph-name="underscore" unicode="_" horiz-adv-x="532" 
d="M1 -78h530v-51h-530v51z" />
    <glyph glyph-name="parenleft" unicode="(" horiz-adv-x="324" 
d="M212 736h72c-90 -115 -160 -262 -160 -448c0 -170 57 -324 160 -459h-72c-73 97 -152 255 -152 460c0 201 80 355 152 447z" />
    <glyph glyph-name="parenright" unicode=")" horiz-adv-x="324" 
d="M112 -171h-72c89 116 159 262 159 448c0 170 -56 325 -159 459h72c73 -96 152 -255 152 -460c0 -200 -80 -355 -152 -447z" />
    <glyph glyph-name="bracketleft" unicode="[" horiz-adv-x="336" 
d="M296 -171h-207v907h207v-57h-145v-793h145v-57z" />
    <glyph glyph-name="bracketright" unicode="]" horiz-adv-x="336" 
d="M40 736h207v-907h-207v57h145v793h-145v57z" />
    <glyph glyph-name="braceleft" unicode="{" horiz-adv-x="364" 
d="M28 254v58c97 0 111 49 111 118v135c0 114 68 171 168 171h17v-54h-17c-71 0 -103 -42 -103 -118v-133c0 -82 -30 -133 -93 -147c64 -16 93 -61 93 -149v-131c0 -82 45 -122 105 -122h15v-54h-17c-86 0 -168 47 -168 172v137c0 64 -10 117 -111 117z" />
    <glyph glyph-name="braceright" unicode="}" horiz-adv-x="364" 
d="M324 310v-58c-97 0 -111 -49 -111 -117v-136c0 -114 -68 -171 -168 -171h-17v54h17c71 0 103 42 103 119v132c0 82 30 134 93 147c-64 17 -93 61 -93 149v131c0 82 -45 122 -105 122h-15v54h17c85 0 168 -47 168 -172v-137c0 -64 10 -116 111 -117z" />
    <glyph glyph-name="slash" unicode="/" horiz-adv-x="441" 
d="M112 -51h-64l281 759h63z" />
    <glyph glyph-name="bar" unicode="|" horiz-adv-x="273" 
d="M105 781h63v-1043h-63v1043z" />
    <glyph glyph-name="backslash" unicode="\" horiz-adv-x="441" 
d="M329 -51l-281 759h63l281 -759h-63z" />
    <glyph glyph-name="brokenbar" unicode="&#xa6;" horiz-adv-x="226" 
d="M85 179h60v-358h-60v358zM85 689h60v-356h-60v356z" />
    <glyph glyph-name="asterisk" unicode="*" horiz-adv-x="388" 
d="M162 699h63l-12 -147l117 90l34 -57l-140 -66l139 -68l-33 -57l-118 93l14 -150h-65l13 150l-117 -93l-32 57l138 68l-139 66l33 56l116 -89z" />
    <glyph glyph-name="dagger" unicode="&#x2020;" horiz-adv-x="500" 
d="M195 649h65l-5 -226l168 5v-62l-168 5l5 -503h-65l6 503l-171 -5v62l171 -5z" />
    <glyph glyph-name="daggerdbl" unicode="&#x2021;" horiz-adv-x="500" 
d="M201 148v250l-171 -5v62l171 -6l-6 200h65l-5 -200l168 6v-62l-168 5v-250l168 4v-62l-168 7l5 -229h-65l6 229l-171 -7v62z" />
    <glyph glyph-name="section" unicode="&#xa7;" horiz-adv-x="546" 
d="M461 541h-65c-11 42 -46 92 -128 92c-86 0 -115 -42 -115 -95c0 -69 63 -93 154 -130c124 -52 181 -105 181 -198c0 -62 -30 -111 -74 -145c24 -23 40 -55 40 -105c0 -99 -74 -164 -197 -164c-130 0 -199 63 -214 161h68c14 -58 59 -104 148 -104c88 0 127 39 127 102
c0 62 -28 94 -165 143c-140 51 -181 104 -181 189c0 60 38 114 88 144c-27 24 -42 59 -42 101c0 85 61 156 186 156c145 0 184 -95 189 -147zM105 295c0 -53 19 -90 135 -134c58 -22 102 -40 132 -60c30 21 49 62 49 99c0 60 -23 99 -132 146c-46 19 -83 36 -117 54
c-42 -27 -67 -64 -67 -105z" />
    <glyph glyph-name="paragraph" unicode="&#xb6;" horiz-adv-x="587" 
d="M461 -159h-59v302h-133c-154 0 -228 99 -228 250c0 153 78 245 234 245h128c0 18 2 44 3 54h56c-1 -19 -1 -72 -1 -91v-760zM353 202h49v377h-46c-88 0 -93 -77 -94 -185c0 -96 -2 -192 91 -192z" />
    <glyph glyph-name="at" unicode="@" horiz-adv-x="932" 
d="M680 -57l18 -52c-50 -36 -128 -65 -247 -65c-225 0 -384 154 -384 399c0 248 165 442 430 442c202 0 368 -126 368 -347c0 -181 -94 -291 -216 -291c-57 0 -96 24 -95 84c-33 -53 -75 -84 -145 -84c-79 0 -141 58 -141 175c0 153 90 272 206 272c86 0 116 -50 124 -85
l18 75h62l-61 -287c-17 -70 5 -92 43 -92c83 0 141 90 141 229c0 179 -123 294 -308 294c-220 0 -358 -161 -359 -385c-1 -194 124 -339 320 -339c82 0 160 16 226 57zM478 419c-90 0 -142 -100 -142 -210c0 -80 32 -122 87 -122c67 0 117 44 143 162c25 111 -5 170 -88 170
z" />
    <glyph glyph-name="copyright" unicode="&#xa9;" horiz-adv-x="796" 
d="M511 275h52c-19 -81 -77 -130 -165 -130c-106 0 -181 84 -181 204c0 121 73 208 184 208c103 1 154 -66 163 -133h-53c-12 45 -42 85 -111 85c-75 0 -127 -55 -127 -159c0 -98 55 -156 127 -156c54 0 92 24 111 81zM395 708c199 0 342 -151 342 -357
c0 -209 -145 -361 -342 -361c-202 0 -345 147 -345 361c0 206 148 357 345 357zM394 660c-163 0 -292 -115 -292 -313c0 -178 126 -309 292 -309s290 123 290 313c0 178 -120 309 -290 309z" />
    <glyph glyph-name="uni2117" unicode="&#x2117;" horiz-adv-x="796" 
d="M270 155v392h153c69 0 137 -40 137 -124c0 -87 -58 -129 -140 -129h-96v-139h-54zM325 500v-159h95c63 0 83 32 83 79c0 51 -29 78 -84 79zM395 708c199 0 342 -151 342 -357c0 -209 -145 -361 -342 -361c-202 0 -345 147 -345 361c0 206 148 357 345 357zM394 660
c-163 0 -292 -115 -292 -313c0 -178 125 -309 292 -309c166 0 290 123 290 313c0 178 -120 309 -290 309z" />
    <glyph glyph-name="registered" unicode="&#xae;" horiz-adv-x="349" 
d="M156 460h-34v167h67c36 0 64 -14 64 -48c0 -21 -17 -35 -29 -39c12 -4 24 -16 24 -44c0 -10 0 -23 2 -36h-34c-3 10 -4 26 -4 35c0 22 -5 32 -29 32h-27v-67zM156 602v-49h30c17 0 30 5 30 25c0 14 -6 24 -29 24h-31zM186 708c96 0 160 -77 160 -167
c0 -92 -64 -168 -160 -168c-93 0 -163 72 -163 168c0 92 67 167 163 167zM185 676c-85 0 -128 -67 -128 -135c0 -74 54 -136 129 -136c81 0 124 60 124 135s-50 136 -125 136z" />
    <glyph glyph-name="trademark" unicode="&#x2122;" horiz-adv-x="473" 
d="M489 463h-42v78c0 65 3 104 5 127h-2l-77 -204h-36l-71 204h-1c2 -23 2 -58 3 -130v-75h-40v235h66l64 -174h1l66 174h64v-235zM-12 698h209v-38h-82v-197h-44v197h-83v38z" />
    <glyph glyph-name="uni2120" unicode="&#x2120;" horiz-adv-x="460" 
d="M472 463h-42v78c0 65 3 104 4 127h-2c-21 -62 -51 -138 -76 -204h-36c-25 69 -51 143 -71 204h-1c2 -23 2 -58 3 -130v-75h-40v235h66c23 -62 45 -119 64 -174h1c21 57 44 116 66 174h64v-235zM-17 539h41c4 -33 30 -50 59 -50c34 0 50 14 50 36c0 24 -24 34 -60 42
c-65 16 -79 41 -79 71c0 37 26 66 85 66c64 0 88 -35 90 -74h-40c-5 26 -17 43 -53 43c-30 0 -41 -14 -41 -31c0 -14 3 -26 48 -37c64 -16 93 -33 93 -75c0 -44 -28 -73 -95 -73c-59 0 -94 33 -98 82z" />
    <glyph glyph-name="degree" unicode="&#xb0;" horiz-adv-x="318" 
d="M165 687c83 0 133 -61 133 -131c0 -84 -63 -136 -134 -136c-78 0 -132 55 -132 131c0 79 58 136 133 136zM164 644c-53 0 -81 -41 -81 -91c0 -51 33 -89 81 -89c51 0 84 37 84 90c0 42 -27 90 -84 90z" />
    <glyph glyph-name="numbersign" unicode="#" horiz-adv-x="575" 
d="M276 0l50 207h-142l-49 -207h-56l50 207h-92v60h106l41 168h-100v59h114l44 183h54l-44 -183h143l44 183h53l-43 -183h87v-59h-101l-40 -168h95v-60h-109l-49 -207h-56zM340 267l41 168h-143l-40 -168h142z" />
    <glyph glyph-name="uni2116" unicode="&#x2116;" horiz-adv-x="1030" 
d="M154 0h-64v678h94c262 -454 316 -550 338 -601h1c-7 97 -5 210 -5 324v277h63v-678h-85c-270 477 -328 580 -347 615h-1c7 -91 6 -201 6 -328v-287zM713 433c0 -92 42 -141 106 -141c66 0 104 47 104 141c0 92 -40 142 -107 142c-59 0 -103 -49 -103 -142zM677 172h280
v-57h-280v57zM816 627c111 0 169 -79 169 -194c0 -118 -63 -197 -170 -197c-98 0 -163 78 -163 197c0 115 65 194 164 194z" />
    <glyph glyph-name="zero.sups" unicode="&#x2070;" horiz-adv-x="380" 
d="M192 831c98 0 151 -78 151 -202c0 -133 -54 -205 -154 -205c-97 0 -152 81 -152 202c0 127 61 205 155 205zM190 781c-57 0 -94 -45 -94 -155c0 -100 38 -152 95 -152c66 0 94 52 94 154c0 103 -35 153 -95 153z" />
    <glyph glyph-name="one.sups" unicode="&#xb9;" horiz-adv-x="242" 
d="M168 428h-57v328c-23 -15 -71 -26 -88 -26v45c44 9 82 33 106 56h39v-403z" />
    <glyph glyph-name="two.sups" unicode="&#xb2;" horiz-adv-x="357" 
d="M321 429h-283v4c0 66 40 126 134 184c69 43 82 58 82 93c0 44 -27 72 -76 72c-44 0 -76 -23 -86 -79h-55c9 80 64 128 144 128c98 0 133 -69 133 -118c0 -65 -38 -91 -105 -131c-51 -30 -92 -65 -104 -103h226z" />
    <glyph glyph-name="three.sups" unicode="&#xb3;" horiz-adv-x="365" 
d="M145 615v50h34c52 0 72 24 72 56c0 30 -18 62 -74 62c-58 0 -75 -36 -83 -62h-53c4 34 34 109 138 109c86 0 130 -47 130 -107c0 -43 -31 -71 -58 -80c42 -13 74 -47 74 -96c0 -62 -43 -123 -147 -123c-112 0 -141 77 -146 115h55c7 -36 43 -68 94 -68c57 0 84 30 84 73
c0 48 -32 71 -83 71h-37z" />
    <glyph glyph-name="four.sups" unicode="&#x2074;" horiz-adv-x="360" 
d="M280 428h-54v107h-201v46l188 242h67v-241h61l-5 -47h-56v-107zM87 582h139v93c0 21 1 74 2 97c-15 -26 -100 -134 -141 -190z" />
    <glyph glyph-name="five.sups" unicode="&#x2075;" horiz-adv-x="377" 
d="M323 825l-8 -51h-189c-5 -37 -13 -83 -18 -111c20 17 45 32 96 32c81 0 134 -53 134 -130c0 -81 -58 -141 -149 -141c-93 0 -142 57 -150 114h57c11 -37 39 -66 94 -66c57 0 88 37 88 89c0 47 -24 86 -87 86c-51 0 -75 -21 -89 -46l-51 10c8 54 25 158 31 214h241z" />
    <glyph glyph-name="six.sups" unicode="&#x2076;" horiz-adv-x="371" 
d="M326 732h-54c-9 24 -29 52 -77 52c-76 0 -97 -67 -102 -142c19 28 52 53 114 53c84 0 130 -59 130 -131c0 -80 -60 -140 -144 -140c-90 0 -156 61 -156 200c0 100 43 206 160 206c81 0 121 -52 129 -98zM192 471c45 0 88 23 88 90c0 56 -32 89 -89 89
c-55 0 -91 -35 -91 -78c0 -40 24 -101 92 -101z" />
    <glyph glyph-name="seven.sups" unicode="&#x2077;" horiz-adv-x="337" 
d="M29 825h279v-45c-77 -92 -133 -218 -163 -350h-62c22 123 97 266 163 344h-217v51z" />
    <glyph glyph-name="eight.sups" unicode="&#x2078;" horiz-adv-x="358" 
d="M177 424c-97 0 -145 58 -145 116c0 55 33 86 70 101c-34 16 -54 48 -54 83c0 58 41 107 134 107c88 0 126 -53 126 -104c0 -37 -18 -69 -54 -83c43 -17 72 -50 72 -101c0 -69 -61 -119 -149 -119zM178 469c63 0 89 32 89 73c0 50 -30 76 -89 76c-65 0 -88 -31 -88 -74
c0 -41 29 -75 88 -75zM180 786c-49 0 -75 -22 -75 -59c0 -41 25 -64 76 -64c42 0 70 20 70 63c0 36 -23 60 -71 60z" />
    <glyph glyph-name="nine.sups" unicode="&#x2079;" horiz-adv-x="361" 
d="M39 523h57c10 -29 32 -54 76 -54c70 0 93 64 97 151c-19 -27 -50 -48 -107 -48c-79 0 -130 53 -130 125c0 73 54 134 143 134c92 0 149 -60 149 -193c0 -104 -35 -215 -152 -215c-88 0 -125 54 -133 100zM173 784c-44 0 -85 -22 -85 -85c0 -48 30 -82 87 -82
c55 0 88 23 88 71c0 58 -31 96 -90 96z" />
    <glyph glyph-name="parenleft.sups" unicode="&#x207d;" horiz-adv-x="210" 
d="M120 875h57c-45 -61 -86 -141 -86 -255c0 -112 41 -191 86 -253h-57c-36 43 -82 136 -82 253c0 120 43 204 82 255z" />
    <glyph glyph-name="parenright.sups" unicode="&#x207e;" horiz-adv-x="210" 
d="M91 384h-57c45 61 86 141 86 255c0 112 -41 191 -86 253h57c36 -43 82 -137 82 -253c0 -120 -43 -204 -82 -255z" />
    <glyph glyph-name="period.sups" horiz-adv-x="136" 
d="M95 428h-55v93h55v-93z" />
    <glyph glyph-name="comma.sups" horiz-adv-x="130" 
d="M64 354h-49c24 61 34 115 37 167h55c-6 -61 -23 -132 -43 -167z" />
    <glyph glyph-name="dollar.sups" horiz-adv-x="373" 
d="M209 364h-51v64c-71 7 -126 47 -135 116h56c11 -47 60 -72 106 -72c67 0 96 27 96 65c0 36 -19 58 -105 74c-107 19 -140 55 -140 110c0 51 39 99 122 106v48h51v-49c78 -10 116 -61 120 -105h-56c-5 21 -23 62 -94 62c-65 0 -87 -29 -87 -57c0 -35 26 -48 103 -63
c114 -22 144 -69 144 -119c0 -59 -40 -108 -130 -116v-64z" />
    <glyph glyph-name="cent.sups" horiz-adv-x="375" 
d="M290 562h54c-16 -53 -54 -91 -118 -99v-65h-51v64c-80 10 -135 70 -135 158c0 93 59 149 135 159v55h51v-55c78 -9 112 -63 118 -100h-55c-11 32 -40 58 -91 58c-61 0 -102 -41 -102 -115c0 -65 42 -115 104 -115c43 0 73 17 90 55z" />
    <glyph glyph-name="hyphen.sups" horiz-adv-x="220" 
d="M30 651h160v-51h-160v51z" />
    <glyph glyph-name="zero.subs" unicode="&#x2080;" horiz-adv-x="380" 
d="M192 230c98 0 151 -78 151 -202c0 -133 -54 -205 -154 -205c-97 0 -152 81 -152 202c0 127 61 205 155 205zM190 180c-57 0 -94 -45 -94 -155c0 -100 38 -152 95 -152c66 0 94 52 94 154c0 103 -35 153 -95 153z" />
    <glyph glyph-name="one.subs" unicode="&#x2081;" horiz-adv-x="242" 
d="M168 -173h-57v328c-23 -15 -71 -26 -88 -26v45c44 9 82 33 106 56h39v-403z" />
    <glyph glyph-name="two.subs" unicode="&#x2082;" horiz-adv-x="357" 
d="M321 -172h-283v4c0 66 40 126 134 184c69 43 82 58 82 93c0 44 -27 72 -76 72c-44 0 -76 -23 -86 -79h-55c9 80 64 128 144 128c98 0 133 -69 133 -118c0 -65 -38 -91 -105 -131c-51 -30 -92 -65 -104 -103h226z" />
    <glyph glyph-name="three.subs" unicode="&#x2083;" horiz-adv-x="365" 
d="M145 14v50h34c52 0 72 24 72 56c0 30 -18 62 -74 62c-58 0 -75 -36 -83 -62h-53c4 34 34 109 138 109c86 0 130 -47 130 -107c0 -43 -31 -71 -58 -80c42 -13 74 -47 74 -96c0 -62 -43 -123 -147 -123c-112 0 -141 77 -146 115h55c7 -36 43 -68 94 -68c57 0 84 30 84 73
c0 48 -32 71 -83 71h-37z" />
    <glyph glyph-name="four.subs" unicode="&#x2084;" horiz-adv-x="360" 
d="M280 -173h-54v107h-201v46l188 242h67v-241h61l-5 -47h-56v-107zM87 -19h139v93c0 21 1 74 2 97c-15 -26 -100 -134 -141 -190z" />
    <glyph glyph-name="five.subs" unicode="&#x2085;" horiz-adv-x="377" 
d="M323 224l-8 -51h-189c-5 -37 -13 -83 -18 -111c20 17 45 32 96 32c81 0 134 -53 134 -130c0 -81 -58 -141 -149 -141c-93 0 -142 57 -150 114h57c11 -37 39 -66 94 -66c57 0 88 37 88 89c0 47 -24 86 -87 86c-51 0 -75 -21 -89 -46l-51 10c8 54 25 158 31 214h241z" />
    <glyph glyph-name="six.subs" unicode="&#x2086;" horiz-adv-x="371" 
d="M326 131h-54c-9 24 -29 52 -77 52c-76 0 -97 -67 -102 -142c19 28 52 53 114 53c84 0 130 -59 130 -131c0 -80 -60 -140 -144 -140c-90 0 -156 61 -156 200c0 100 43 206 160 206c81 0 121 -52 129 -98zM192 -130c45 0 88 23 88 90c0 56 -32 89 -89 89
c-55 0 -91 -35 -91 -78c0 -40 24 -101 92 -101z" />
    <glyph glyph-name="seven.subs" unicode="&#x2087;" horiz-adv-x="337" 
d="M29 224h279v-45c-77 -92 -133 -218 -163 -350h-62c22 123 97 266 163 344h-217v51z" />
    <glyph glyph-name="eight.subs" unicode="&#x2088;" horiz-adv-x="358" 
d="M177 -177c-97 0 -145 58 -145 116c0 55 33 86 70 101c-34 16 -54 48 -54 83c0 58 41 107 134 107c88 0 126 -53 126 -104c0 -37 -18 -69 -54 -83c43 -17 72 -50 72 -101c0 -69 -61 -119 -149 -119zM178 -132c63 0 89 32 89 73c0 50 -30 76 -89 76c-65 0 -88 -31 -88 -74
c0 -41 29 -75 88 -75zM180 185c-49 0 -75 -22 -75 -59c0 -41 25 -64 76 -64c42 0 70 20 70 63c0 36 -23 60 -71 60z" />
    <glyph glyph-name="nine.subs" unicode="&#x2089;" horiz-adv-x="361" 
d="M39 -78h57c10 -29 32 -54 76 -54c70 0 93 64 97 151c-19 -27 -50 -48 -107 -48c-79 0 -130 53 -130 125c0 73 54 134 143 134c92 0 149 -60 149 -193c0 -104 -35 -215 -152 -215c-88 0 -125 54 -133 100zM173 183c-44 0 -85 -22 -85 -85c0 -48 30 -82 87 -82
c55 0 88 23 88 71c0 58 -31 96 -90 96z" />
    <glyph glyph-name="parenleft.subs" unicode="&#x208d;" horiz-adv-x="210" 
d="M120 274h57c-45 -61 -86 -141 -86 -255c0 -112 41 -191 86 -253h-57c-36 43 -82 136 -82 253c0 120 43 204 82 255z" />
    <glyph glyph-name="parenright.subs" unicode="&#x208e;" horiz-adv-x="210" 
d="M91 -217h-57c45 61 86 141 86 255c0 112 -41 191 -86 253h57c36 -43 82 -137 82 -253c0 -120 -43 -204 -82 -255z" />
    <glyph glyph-name="period.subs" horiz-adv-x="136" 
d="M95 -173h-55v93h55v-93z" />
    <glyph glyph-name="comma.subs" horiz-adv-x="130" 
d="M64 -247h-49c24 61 34 115 37 167h55c-6 -61 -23 -132 -43 -167z" />
    <glyph glyph-name="dollar.subs" horiz-adv-x="373" 
d="M209 -237h-51v64c-71 7 -126 47 -135 116h56c11 -47 60 -72 106 -72c67 0 96 27 96 65c0 36 -19 58 -105 74c-107 19 -140 55 -140 110c0 51 39 99 122 106v48h51v-49c78 -10 116 -61 120 -105h-56c-5 21 -23 62 -94 62c-65 0 -87 -29 -87 -57c0 -35 26 -48 103 -63
c114 -22 144 -69 144 -119c0 -59 -40 -108 -130 -116v-64z" />
    <glyph glyph-name="cent.subs" horiz-adv-x="375" 
d="M290 -39h54c-16 -53 -54 -91 -118 -99v-65h-51v64c-80 10 -135 70 -135 158c0 93 59 149 135 159v55h51v-55c78 -9 112 -63 118 -100h-55c-11 32 -40 58 -91 58c-61 0 -102 -41 -102 -115c0 -65 42 -115 104 -115c43 0 73 17 90 55z" />
    <glyph glyph-name="hyphen.subs" horiz-adv-x="220" 
d="M30 50h160v-51h-160v51z" />
    <glyph glyph-name="zero.numr" horiz-adv-x="380" 
d="M192 664c98 0 151 -78 151 -202c0 -133 -54 -205 -154 -205c-97 0 -152 81 -152 202c0 127 61 205 155 205zM190 614c-57 0 -94 -45 -94 -155c0 -100 38 -152 95 -152c66 0 94 52 94 154c0 103 -35 153 -95 153z" />
    <glyph glyph-name="one.numr" horiz-adv-x="242" 
d="M168 261h-57v328c-23 -15 -71 -26 -88 -26v45c44 9 82 33 106 56h39v-403z" />
    <glyph glyph-name="two.numr" horiz-adv-x="357" 
d="M321 262h-283v4c0 66 40 126 134 184c69 43 82 58 82 93c0 44 -27 72 -76 72c-44 0 -76 -23 -86 -79h-55c9 80 64 128 144 128c98 0 133 -69 133 -118c0 -65 -38 -91 -105 -131c-51 -30 -92 -65 -104 -103h226z" />
    <glyph glyph-name="three.numr" horiz-adv-x="365" 
d="M145 448v50h34c52 0 72 24 72 56c0 30 -18 62 -74 62c-58 0 -75 -36 -83 -62h-53c4 34 34 109 138 109c86 0 130 -47 130 -107c0 -43 -31 -71 -58 -80c42 -13 74 -47 74 -96c0 -62 -43 -123 -147 -123c-112 0 -141 77 -146 115h55c7 -36 43 -68 94 -68c57 0 84 30 84 73
c0 48 -32 71 -83 71h-37z" />
    <glyph glyph-name="four.numr" horiz-adv-x="360" 
d="M280 261h-54v107h-201v46l188 242h67v-241h61l-5 -47h-56v-107zM87 415h139v93c0 21 1 74 2 97c-15 -26 -100 -134 -141 -190z" />
    <glyph glyph-name="five.numr" horiz-adv-x="377" 
d="M323 658l-8 -51h-189c-5 -37 -13 -83 -18 -111c20 17 45 32 96 32c81 0 134 -53 134 -130c0 -81 -58 -141 -149 -141c-93 0 -142 57 -150 114h57c11 -37 39 -66 94 -66c57 0 88 37 88 89c0 47 -24 86 -87 86c-51 0 -75 -21 -89 -46l-51 10c8 54 25 158 31 214h241z" />
    <glyph glyph-name="six.numr" horiz-adv-x="371" 
d="M326 565h-54c-9 24 -29 52 -77 52c-76 0 -97 -67 -102 -142c19 28 52 53 114 53c84 0 130 -59 130 -131c0 -80 -60 -140 -144 -140c-90 0 -156 61 -156 200c0 100 43 206 160 206c81 0 121 -52 129 -98zM192 304c45 0 88 23 88 90c0 56 -32 89 -89 89
c-55 0 -91 -35 -91 -78c0 -40 24 -101 92 -101z" />
    <glyph glyph-name="seven.numr" horiz-adv-x="337" 
d="M29 658h279v-45c-77 -92 -133 -218 -163 -350h-62c22 123 97 266 163 344h-217v51z" />
    <glyph glyph-name="eight.numr" horiz-adv-x="358" 
d="M177 257c-97 0 -145 58 -145 116c0 55 33 86 70 101c-34 16 -54 48 -54 83c0 58 41 107 134 107c88 0 126 -53 126 -104c0 -37 -18 -69 -54 -83c43 -17 72 -50 72 -101c0 -69 -61 -119 -149 -119zM178 302c63 0 89 32 89 73c0 50 -30 76 -89 76c-65 0 -88 -31 -88 -74
c0 -41 29 -75 88 -75zM180 619c-49 0 -75 -22 -75 -59c0 -41 25 -64 76 -64c42 0 70 20 70 63c0 36 -23 60 -71 60z" />
    <glyph glyph-name="nine.numr" horiz-adv-x="361" 
d="M39 356h57c10 -29 32 -54 76 -54c70 0 93 64 97 151c-19 -27 -50 -48 -107 -48c-79 0 -130 53 -130 125c0 73 54 134 143 134c92 0 149 -60 149 -193c0 -104 -35 -215 -152 -215c-88 0 -125 54 -133 100zM173 617c-44 0 -85 -22 -85 -85c0 -48 30 -82 87 -82
c55 0 88 23 88 71c0 58 -31 96 -90 96z" />
    <glyph glyph-name="parenleft.numr" horiz-adv-x="210" 
d="M120 708h57c-45 -61 -86 -141 -86 -255c0 -112 41 -191 86 -253h-57c-36 43 -82 136 -82 253c0 120 43 204 82 255z" />
    <glyph glyph-name="parenright.numr" horiz-adv-x="210" 
d="M91 217h-57c45 61 86 141 86 255c0 112 -41 191 -86 253h57c36 -43 82 -137 82 -253c0 -120 -43 -204 -82 -255z" />
    <glyph glyph-name="period.numr" horiz-adv-x="136" 
d="M95 261h-55v93h55v-93z" />
    <glyph glyph-name="comma.numr" horiz-adv-x="130" 
d="M64 187h-49c24 61 34 115 37 167h55c-6 -61 -23 -132 -43 -167z" />
    <glyph glyph-name="dollar.numr" horiz-adv-x="373" 
d="M209 197h-51v64c-71 7 -126 47 -135 116h56c11 -47 60 -72 106 -72c67 0 96 27 96 65c0 36 -19 58 -105 74c-107 19 -140 55 -140 110c0 51 39 99 122 106v48h51v-49c78 -10 116 -61 120 -105h-56c-5 21 -23 62 -94 62c-65 0 -87 -29 -87 -57c0 -35 26 -48 103 -63
c114 -22 144 -69 144 -119c0 -59 -40 -108 -130 -116v-64z" />
    <glyph glyph-name="cent.numr" horiz-adv-x="375" 
d="M290 395h54c-16 -53 -54 -91 -118 -99v-65h-51v64c-80 10 -135 70 -135 158c0 93 59 149 135 159v55h51v-55c78 -9 112 -63 118 -100h-55c-11 32 -40 58 -91 58c-61 0 -102 -41 -102 -115c0 -65 42 -115 104 -115c43 0 73 17 90 55z" />
    <glyph glyph-name="hyphen.numr" horiz-adv-x="220" 
d="M30 484h160v-51h-160v51z" />
    <glyph glyph-name="zero.dnom" horiz-adv-x="380" 
d="M192 401c98 0 151 -78 151 -202c0 -133 -54 -205 -154 -205c-97 0 -152 81 -152 202c0 127 61 205 155 205zM190 351c-57 0 -94 -45 -94 -155c0 -100 38 -152 95 -152c66 0 94 52 94 154c0 103 -35 153 -95 153z" />
    <glyph glyph-name="one.dnom" horiz-adv-x="242" 
d="M168 -2h-57v328c-23 -15 -71 -26 -88 -26v45c44 9 82 33 106 56h39v-403z" />
    <glyph glyph-name="two.dnom" horiz-adv-x="357" 
d="M321 -1h-283v4c0 66 40 126 134 184c69 43 82 58 82 93c0 44 -27 72 -76 72c-44 0 -76 -23 -86 -79h-55c9 80 64 128 144 128c98 0 133 -69 133 -118c0 -65 -38 -91 -105 -131c-51 -30 -92 -65 -104 -103h226z" />
    <glyph glyph-name="three.dnom" horiz-adv-x="365" 
d="M145 185v50h34c52 0 72 24 72 56c0 30 -18 62 -74 62c-58 0 -75 -36 -83 -62h-53c4 34 34 109 138 109c86 0 130 -47 130 -107c0 -43 -31 -71 -58 -80c42 -13 74 -47 74 -96c0 -62 -43 -123 -147 -123c-112 0 -141 77 -146 115h55c7 -36 43 -68 94 -68c57 0 84 30 84 73
c0 48 -32 71 -83 71h-37z" />
    <glyph glyph-name="four.dnom" horiz-adv-x="360" 
d="M280 -2h-54v107h-201v46l188 242h67v-241h61l-5 -47h-56v-107zM87 152h139v93c0 21 1 74 2 97c-15 -26 -100 -134 -141 -190z" />
    <glyph glyph-name="five.dnom" horiz-adv-x="377" 
d="M323 395l-8 -51h-189c-5 -37 -13 -83 -18 -111c20 17 45 32 96 32c81 0 134 -53 134 -130c0 -81 -58 -141 -149 -141c-93 0 -142 57 -150 114h57c11 -37 39 -66 94 -66c57 0 88 37 88 89c0 47 -24 86 -87 86c-51 0 -75 -21 -89 -46l-51 10c8 54 25 158 31 214h241z" />
    <glyph glyph-name="six.dnom" horiz-adv-x="371" 
d="M326 302h-54c-9 24 -29 52 -77 52c-76 0 -97 -67 -102 -142c19 28 52 53 114 53c84 0 130 -59 130 -131c0 -80 -60 -140 -144 -140c-90 0 -156 61 -156 200c0 100 43 206 160 206c81 0 121 -52 129 -98zM192 41c45 0 88 23 88 90c0 56 -32 89 -89 89
c-55 0 -91 -35 -91 -78c0 -40 24 -101 92 -101z" />
    <glyph glyph-name="seven.dnom" horiz-adv-x="337" 
d="M29 395h279v-45c-77 -92 -133 -218 -163 -350h-62c22 123 97 266 163 344h-217v51z" />
    <glyph glyph-name="eight.dnom" horiz-adv-x="358" 
d="M177 -6c-97 0 -145 58 -145 116c0 55 33 86 70 101c-34 16 -54 48 -54 83c0 58 41 107 134 107c88 0 126 -53 126 -104c0 -37 -18 -69 -54 -83c43 -17 72 -50 72 -101c0 -69 -61 -119 -149 -119zM178 39c63 0 89 32 89 73c0 50 -30 76 -89 76c-65 0 -88 -31 -88 -74
c0 -41 29 -75 88 -75zM180 356c-49 0 -75 -22 -75 -59c0 -41 25 -64 76 -64c42 0 70 20 70 63c0 36 -23 60 -71 60z" />
    <glyph glyph-name="nine.dnom" horiz-adv-x="361" 
d="M39 93h57c10 -29 32 -54 76 -54c70 0 93 64 97 151c-19 -27 -50 -48 -107 -48c-79 0 -130 53 -130 125c0 73 54 134 143 134c92 0 149 -60 149 -193c0 -104 -35 -215 -152 -215c-88 0 -125 54 -133 100zM173 354c-44 0 -85 -22 -85 -85c0 -48 30 -82 87 -82
c55 0 88 23 88 71c0 58 -31 96 -90 96z" />
    <glyph glyph-name="parenleft.dnom" horiz-adv-x="210" 
d="M120 445h57c-45 -61 -86 -141 -86 -255c0 -112 41 -191 86 -253h-57c-36 43 -82 136 -82 253c0 120 43 204 82 255z" />
    <glyph glyph-name="parenright.dnom" horiz-adv-x="210" 
d="M91 -46h-57c45 61 86 141 86 255c0 112 -41 191 -86 253h57c36 -43 82 -137 82 -253c0 -120 -43 -204 -82 -255z" />
    <glyph glyph-name="period.dnom" horiz-adv-x="136" 
d="M95 -2h-55v93h55v-93z" />
    <glyph glyph-name="comma.dnom" horiz-adv-x="130" 
d="M64 -76h-49c24 61 34 115 37 167h55c-6 -61 -23 -132 -43 -167z" />
    <glyph glyph-name="dollar.dnom" horiz-adv-x="373" 
d="M209 -66h-51v64c-71 7 -126 47 -135 116h56c11 -47 60 -72 106 -72c67 0 96 27 96 65c0 36 -19 58 -105 74c-107 19 -140 55 -140 110c0 51 39 99 122 106v48h51v-49c78 -10 116 -61 120 -105h-56c-5 21 -23 62 -94 62c-65 0 -87 -29 -87 -57c0 -35 26 -48 103 -63
c114 -22 144 -69 144 -119c0 -59 -40 -108 -130 -116v-64z" />
    <glyph glyph-name="cent.dnom" horiz-adv-x="375" 
d="M290 132h54c-16 -53 -54 -91 -118 -99v-65h-51v64c-80 10 -135 70 -135 158c0 93 59 149 135 159v55h51v-55c78 -9 112 -63 118 -100h-55c-11 32 -40 58 -91 58c-61 0 -102 -41 -102 -115c0 -65 42 -115 104 -115c43 0 73 17 90 55z" />
    <glyph glyph-name="hyphen.dnom" horiz-adv-x="220" 
d="M30 221h160v-51h-160v51z" />
    <glyph glyph-name="ordfeminine" unicode="&#xaa;" horiz-adv-x="343" 
d="M293 492v-163c0 -19 1 -55 2 -69h-52c-2 12 -2 38 -3 50c-22 -40 -59 -53 -105 -53c-77 0 -112 48 -112 102c0 72 58 106 146 106h70v30c0 32 -16 64 -72 64c-49 0 -68 -21 -74 -57h-54c7 52 37 101 130 101c99 0 124 -57 124 -111zM240 413v10h-70
c-63 0 -91 -20 -91 -59c0 -35 21 -60 71 -60c65 0 90 48 90 109z" />
    <glyph glyph-name="ordmasculine" unicode="&#xba;" horiz-adv-x="368" 
d="M186 603c94 0 155 -67 155 -173c0 -115 -68 -174 -159 -174c-92 0 -154 69 -154 173c0 110 72 174 158 174zM183 557c-64 0 -99 -49 -99 -128c0 -75 37 -127 99 -127c65 0 101 44 101 127c-1 78 -35 128 -101 128z" />
    <glyph glyph-name="a.sups" horiz-adv-x="343" 
d="M293 492v-163c0 -19 1 -55 2 -69h-52c-2 12 -2 38 -3 50c-22 -40 -59 -53 -105 -53c-77 0 -112 48 -112 102c0 72 58 106 146 106h70v30c0 32 -16 64 -72 64c-49 0 -68 -21 -74 -57h-54c7 52 37 101 130 101c99 0 124 -57 124 -111zM240 413v10h-70
c-63 0 -91 -20 -91 -59c0 -35 21 -60 71 -60c65 0 90 48 90 109z" />
    <glyph glyph-name="b.sups" horiz-adv-x="376" 
d="M48 397v348h54v-201c18 35 52 59 109 59c70 0 136 -57 136 -164c0 -127 -70 -182 -145 -182c-54 0 -83 23 -100 51v-45h-55c1 21 1 89 1 134zM291 437c0 75 -37 118 -93 118c-66 0 -97 -38 -97 -125c0 -76 24 -125 92 -125c67 0 98 51 98 132z" />
    <glyph glyph-name="c.sups" horiz-adv-x="334" 
d="M262 364h53c-17 -70 -64 -108 -137 -108c-93 0 -150 67 -150 172c0 108 63 175 151 175c87 0 129 -59 137 -113h-56c-10 41 -35 67 -82 67c-56 0 -94 -40 -94 -127c0 -69 30 -128 97 -128c39 0 65 16 81 62z" />
    <glyph glyph-name="d.sups" horiz-adv-x="381" 
d="M275 745h54v-396c0 -31 0 -64 1 -86h-50c-2 9 -2 42 -2 52c-17 -33 -51 -59 -110 -59c-74 0 -140 56 -140 169c0 115 71 178 150 178c58 0 87 -24 97 -42v184zM84 427c0 -79 40 -123 96 -123s97 26 97 129c0 102 -41 122 -94 122c-61 0 -99 -47 -99 -128z" />
    <glyph glyph-name="e.sups" horiz-adv-x="346" 
d="M321 421h-238c0 -75 38 -119 96 -119c47 0 73 19 89 53h53c-17 -56 -62 -99 -142 -99c-111 0 -151 86 -151 170c0 101 56 177 152 177c109 0 143 -87 143 -153c0 -11 0 -21 -2 -29zM85 461h182c0 59 -30 97 -88 97c-55 0 -88 -35 -94 -97z" />
    <glyph glyph-name="f.sups" horiz-adv-x="168" 
d="M107 263h-54v286h-52v46h52v39c0 67 30 118 98 118c18 0 25 -1 35 -4v-46c-8 2 -19 3 -30 3c-35 0 -49 -19 -49 -67v-43h70v-46h-70v-286z" />
    <glyph glyph-name="g.sups" horiz-adv-x="379" 
d="M325 501v-207c0 -98 -35 -175 -157 -175c-93 0 -131 55 -138 108h56c9 -35 35 -62 85 -62c70 0 100 38 100 125v30c-18 -36 -52 -55 -105 -55c-79 0 -138 63 -138 164c0 99 61 171 146 172c37 0 83 -11 100 -49c0 20 2 35 3 43h50c-1 -18 -2 -50 -2 -94zM84 431
c0 -79 40 -118 95 -118c57 0 94 32 94 123c0 98 -42 117 -94 117c-60 0 -95 -50 -95 -122z" />
    <glyph glyph-name="h.sups" horiz-adv-x="375" 
d="M48 263v482h54v-200c20 33 53 58 110 58c51 0 114 -28 114 -131v-209h-54v197c0 53 -13 94 -77 94c-56 0 -93 -41 -93 -110v-181h-54z" />
    <glyph glyph-name="i.sups" horiz-adv-x="152" 
d="M102 263h-54v332h54v-332zM102 677h-54v68h54v-68z" />
    <glyph glyph-name="j.sups" horiz-adv-x="155" 
d="M-4 119v47h3c44 0 54 29 54 83v346h54v-340c0 -81 -21 -136 -102 -136h-9zM107 677h-54v68h54v-68z" />
    <glyph glyph-name="k.sups" horiz-adv-x="337" 
d="M102 745v-310c31 35 112 115 153 160h64c-44 -44 -85 -85 -127 -128l141 -204h-65l-115 172c-12 -12 -38 -37 -51 -49v-123h-54v482h54z" />
    <glyph glyph-name="l.sups" horiz-adv-x="151" 
d="M102 263h-54v482h54v-482z" />
    <glyph glyph-name="m.sups" horiz-adv-x="570" 
d="M522 263h-53v205c0 41 -17 86 -71 86c-57 0 -86 -33 -86 -105v-186h-54v211c0 42 -17 80 -71 80c-57 0 -85 -44 -85 -109v-182h-54v226c0 58 -1 87 -1 106h53c1 -5 2 -28 2 -51c16 31 49 59 103 59c47 0 81 -23 95 -62c18 32 51 62 109 62c55 0 113 -31 113 -127v-213z
" />
    <glyph glyph-name="n.sups" unicode="&#x207f;" horiz-adv-x="376" 
d="M48 263v226c0 56 0 89 -1 106h52c1 -11 2 -39 2 -54c19 36 56 62 110 62c52 0 117 -25 117 -130v-210h-54v197c0 52 -20 94 -78 94c-64 0 -94 -41 -94 -110v-181h-54z" />
    <glyph glyph-name="o.sups" horiz-adv-x="368" 
d="M186 603c94 0 155 -67 155 -173c0 -115 -68 -174 -159 -174c-92 0 -154 69 -154 173c0 110 72 174 158 174zM183 557c-64 0 -99 -49 -99 -128c0 -75 37 -127 99 -127c65 0 101 44 101 127c-1 78 -35 128 -101 128z" />
    <glyph glyph-name="p.sups" horiz-adv-x="375" 
d="M102 130h-54v370c0 45 -1 74 -2 95h52c1 -6 2 -35 3 -54c20 37 56 62 110 62c73 0 136 -62 136 -166c0 -125 -71 -180 -147 -180c-53 0 -80 23 -98 50v-177zM291 435c0 79 -38 119 -95 119c-71 0 -95 -44 -95 -124c0 -71 22 -125 92 -125c67 0 98 44 98 130z" />
    <glyph glyph-name="q.sups" horiz-adv-x="376" 
d="M274 130v180c-19 -35 -54 -54 -108 -54c-71 0 -138 59 -138 170c0 122 79 177 149 177c60 0 90 -28 99 -50c-1 8 1 31 2 42h52c-1 -25 -2 -69 -2 -137v-328h-54zM84 428c0 -78 37 -124 95 -124c52 0 96 25 96 127s-35 123 -92 123c-62 0 -99 -46 -99 -126z" />
    <glyph glyph-name="r.sups" horiz-adv-x="231" 
d="M48 263v220c0 51 -1 100 -1 112h51c1 -8 2 -34 2 -66c27 50 74 75 119 74v-57c-76 -2 -117 -42 -117 -126v-157h-54z" />
    <glyph glyph-name="s.sups" horiz-adv-x="311" 
d="M25 358h53c11 -38 40 -58 79 -58c47 0 71 18 71 50c0 35 -22 48 -83 63c-90 22 -109 56 -109 99c0 47 38 91 116 91c81 0 119 -47 123 -96h-49c-5 23 -23 53 -76 53c-42 0 -61 -19 -61 -44c0 -26 11 -40 74 -56c92 -22 120 -54 120 -106c0 -60 -49 -98 -127 -98
c-73 0 -124 39 -131 102z" />
    <glyph glyph-name="t.sups" horiz-adv-x="187" 
d="M-4 595h57v97h54v-97h73v-46h-73v-200c0 -31 9 -44 41 -44c8 0 22 1 31 4v-45c-13 -6 -33 -7 -46 -7c-53 0 -80 22 -80 84v208h-57v46z" />
    <glyph glyph-name="u.sups" horiz-adv-x="372" 
d="M322 595v-236c0 -41 1 -80 2 -96h-49c-3 7 -4 43 -4 56c-19 -38 -56 -62 -109 -62c-65 0 -114 36 -114 128v210h54v-201c0 -46 14 -88 74 -88c48 0 92 32 92 110v179h54z" />
    <glyph glyph-name="v.sups" horiz-adv-x="333" 
d="M10 595h60c50 -142 85 -246 95 -288h1c14 50 84 238 102 288h55l-124 -332h-68z" />
    <glyph glyph-name="w.sups" horiz-adv-x="510" 
d="M12 595h60c47 -172 65 -242 73 -277h1c7 37 19 76 82 277h57c59 -196 73 -240 79 -275h1c6 31 19 78 76 275h57l-105 -332h-59c-32 115 -68 230 -80 271h-1c-10 -44 -39 -134 -83 -271h-60z" />
    <glyph glyph-name="x.sups" horiz-adv-x="288" 
d="M-5 595h66c47 -71 73 -108 85 -126h1c14 22 43 66 84 126h63l-118 -160l120 -172h-65c-46 70 -75 113 -89 135h-1c-12 -20 -38 -61 -87 -135h-61l119 167z" />
    <glyph glyph-name="y.sups" horiz-adv-x="326" 
d="M6 595h61c67 -169 96 -245 103 -271h1c11 36 44 129 94 271h58l-130 -349c-36 -97 -78 -122 -133 -122c-7 0 -21 0 -31 1v49c9 -1 21 -1 25 -1c36 0 62 20 89 89z" />
    <glyph glyph-name="z.sups" horiz-adv-x="292" 
d="M15 263v42c18 22 140 172 194 243h-185v47h255v-38c-17 -22 -155 -195 -198 -247h205l-9 -47h-262z" />
    <glyph glyph-name="egrave.sups" horiz-adv-x="346" 
d="M61 739h72l85 -98h-56zM321 421h-238c0 -75 38 -119 96 -119c47 0 73 19 89 53h53c-17 -56 -62 -99 -142 -99c-111 0 -151 86 -151 170c0 101 56 177 152 177c109 0 143 -87 143 -153c0 -11 0 -21 -2 -29zM85 461h182c0 59 -30 97 -88 97c-55 0 -88 -35 -94 -97z" />
    <glyph glyph-name="eacute.sups" horiz-adv-x="346" 
d="M232 737h73l-109 -96h-58zM321 421h-238c0 -75 38 -119 96 -119c47 0 73 19 89 53h53c-17 -56 -62 -99 -142 -99c-111 0 -151 86 -151 170c0 101 56 177 152 177c109 0 143 -87 143 -153c0 -11 0 -21 -2 -29zM85 461h182c0 59 -30 97 -88 97c-55 0 -88 -35 -94 -97z" />
    <glyph glyph-name="currency" unicode="&#xa4;" horiz-adv-x="529" 
d="M267 555c47 0 90 -15 123 -42l66 69l41 -42l-68 -71c21 -33 33 -74 33 -121s-12 -90 -33 -124l68 -71l-41 -44l-67 68c-33 -27 -75 -42 -124 -42c-47 0 -89 15 -122 42l-64 -68l-42 44l68 69c-22 34 -34 76 -34 124c0 47 12 89 35 124l-69 70l42 42l67 -69
c32 26 73 41 121 42zM266 498c-90 0 -135 -69 -135 -151c0 -104 64 -156 135 -156c78 0 134 48 134 156c0 82 -42 151 -134 151z" />
    <glyph glyph-name="dollar" unicode="$" horiz-adv-x="509" 
d="M110 501c0 -56 27 -90 112 -117v225c-82 -5 -112 -53 -112 -108zM394 169c0 58 -26 101 -121 133v-252c76 7 121 43 121 119zM273 -99h-51v93c-117 8 -186 79 -196 177h67c14 -72 67 -113 129 -121v267c-124 36 -182 81 -182 177s74 164 182 170v70h51v-71
c131 -12 171 -98 177 -156h-67c-13 48 -42 90 -110 101v-239c150 -44 192 -106 192 -194c0 -107 -70 -173 -192 -181v-93z" />
    <glyph glyph-name="sterling" unicode="&#xa3;" horiz-adv-x="504" 
d="M476 0h-441v56c61 32 82 114 82 211v43h-96v57h94c-1 25 -2 51 -2 85c0 129 55 216 179 216c119 0 164 -83 172 -158h-66c-12 60 -47 98 -109 98c-84 0 -107 -57 -107 -151c0 -36 1 -62 2 -90h154v-57h-153v-41c0 -94 -17 -160 -58 -207h359z" />
    <glyph glyph-name="yen" unicode="&#xa5;" horiz-adv-x="472" 
d="M402 179h-133v-179h-69v179h-132v51h132v66h-132v51h121l-186 311h78c123 -210 146 -252 157 -276h1c11 24 35 64 158 276h73l-189 -311h121v-51h-133v-66h133v-51z" />
    <glyph glyph-name="Euro" unicode="&#x20ac;" horiz-adv-x="527" 
d="M430 152h66c-27 -108 -98 -163 -192 -163c-131 0 -200 101 -216 262h-63v52h60v24c0 14 0 28 1 42h-61v51h66c22 161 102 250 219 250c119 0 175 -83 186 -161h-67c-17 60 -58 100 -122 100c-82 0 -132 -61 -147 -189h195v-51h-199c-1 -12 -1 -25 -1 -39v-27h200v-52
h-196c13 -126 60 -200 147 -200c63 0 102 37 124 101z" />
    <glyph glyph-name="cent" unicode="&#xa2;" horiz-adv-x="522" 
d="M414 231h67c-19 -81 -81 -137 -182 -145v-93h-52v93c-120 13 -195 111 -195 242c0 125 69 229 195 245v70h52v-69c126 -7 176 -94 182 -148h-67c-13 40 -44 82 -115 88v-370c61 5 94 35 115 87zM123 331c0 -90 42 -169 124 -185v367c-85 -14 -124 -83 -124 -182z" />
    <glyph glyph-name="florin" unicode="&#x192;" horiz-adv-x="515" 
d="M488 680l-17 -57c-14 9 -35 14 -54 14c-72 0 -90 -76 -103 -150l-13 -82h125v-58h-134l-38 -242c-20 -130 -54 -222 -159 -222c-29 0 -63 4 -86 19l16 57c17 -10 46 -15 67 -15c60 0 75 52 93 162l40 241h-101v58h110l11 67c16 105 51 226 169 226c37 0 61 -7 74 -18z
" />
    <glyph glyph-name="colonmonetary" unicode="&#x20a1;" horiz-adv-x="516" 
d="M276 52c6 0 12 0 18 1v556h-14c-12 0 -23 -1 -33 -3v-551c9 -2 19 -3 29 -3zM116 327c0 -127 29 -215 86 -254v514c-60 -39 -86 -132 -86 -260zM247 -95h-45v98c-102 37 -156 156 -156 323c0 178 56 290 156 327v80h45v-69c12 2 24 3 37 3h10v66h46v-72
c87 -21 129 -91 138 -158h-66c-13 43 -32 79 -72 96v-536c34 14 56 43 74 88h67c-21 -74 -64 -132 -141 -152v-94h-46v87c-6 -1 -13 -1 -20 -1c-9 0 -18 1 -27 2v-88z" />
    <glyph glyph-name="lira" unicode="&#x20a4;" horiz-adv-x="504" 
d="M476 0h-441v56c62 29 78 102 80 188h-95v48h95c-1 28 -2 49 -2 72h-93v49h91v33c0 143 56 222 180 222c118 0 166 -82 172 -155h-66c-9 58 -42 96 -110 96c-83 0 -108 -58 -108 -158v-38h156v-49h-154c0 -21 1 -43 1 -72h153v-48h-153c-3 -79 -16 -139 -55 -182h359z" />
    <glyph glyph-name="franc" unicode="&#x20a3;" horiz-adv-x="490" 
d="M104 0v145h-90v55h90v458h352v-61h-283v-223h263v-61h-263v-113h137v-55h-137v-145h-69z" />
    <glyph glyph-name="uni20A6" unicode="&#x20a6;" horiz-adv-x="530" 
d="M123 598c4 -53 5 -109 5 -171h65l-67 171h-3zM388 74h5c-4 58 -6 117 -7 178h-67zM128 0h-58v252h-50v49h50v76h-50v50h50v231h90l90 -231h136v231h57v-231h51v-50h-51v-76h51v-49h-51v-252h-84l-98 252h-133v-252zM386 301v76h-116l29 -76h87zM242 301l-30 76h-84v-76
h114z" />
    <glyph glyph-name="peseta" unicode="&#x20a7;" horiz-adv-x="515" 
d="M66 0v427h-62v53h62v178h158c118 0 209 -62 221 -178h50v-53h-50c-12 -115 -96 -181 -228 -181h-85v-246h-66zM132 601v-121h244c-10 78 -68 121 -159 121h-85zM132 304h81c91 0 154 34 164 123h-245v-123z" />
    <glyph glyph-name="dong" unicode="&#x20ab;" horiz-adv-x="519" 
d="M51 -78h396v-55h-396v55zM374 667h65v-74h65v-55h-65v-396c0 -47 0 -99 1 -142h-62c-2 12 -4 46 -4 75c-23 -44 -64 -85 -152 -85c-103 0 -193 79 -193 234s96 239 205 239c89 0 122 -36 140 -66v141h-232v55h232v74zM97 225c0 -113 59 -175 142 -175
c69 0 139 40 139 188c0 124 -61 166 -135 166c-97 0 -146 -72 -146 -179z" />
    <glyph glyph-name="dong.alt" horiz-adv-x="519" 
d="M374 667h65v-74h65v-55h-65v-396c0 -47 0 -99 1 -142h-62c-2 12 -4 46 -4 75c-23 -44 -64 -85 -152 -85c-103 0 -193 79 -193 234s96 239 205 239c89 0 122 -36 140 -66v141h-232v55h232v74zM97 225c0 -113 59 -175 142 -175c69 0 139 40 139 188c0 124 -61 166 -135 166
c-97 0 -146 -72 -146 -179z" />
    <glyph glyph-name="uni20B1" unicode="&#x20b1;" horiz-adv-x="558" 
d="M90 0v373h-59v49h59v56h-59v48h59v132h169c102 0 181 -46 209 -132h57v-48h-46c0 -9 1 -19 1 -29c0 -9 0 -18 -1 -27h46v-49h-57c-30 -90 -115 -138 -224 -138h-88v-235h-66zM156 603v-77h243c-23 49 -72 77 -143 77h-100zM415 448c0 11 -1 21 -2 30h-257v-56h258
c1 8 1 17 1 26zM156 290h88c72 0 131 25 157 83h-245v-83z" />
    <glyph glyph-name="uni20B2" unicode="&#x20b2;" horiz-adv-x="541" 
d="M486 503h-67c-13 55 -43 99 -110 107v-561c36 1 76 7 103 23v250h69v-287c-40 -21 -90 -43 -172 -45v-89h-51v92c-141 19 -206 140 -206 342c0 196 73 316 206 331v68h51v-67c102 -7 167 -70 177 -164zM123 340c0 -154 36 -263 135 -286v555c-91 -16 -135 -109 -135 -269
z" />
    <glyph glyph-name="uni20B4" unicode="&#x20b4;" horiz-adv-x="513" 
d="M134 511h-65c14 107 93 159 187 159c129 0 180 -85 180 -160c0 -36 -7 -64 -26 -90h54v-47h-101c-25 -19 -56 -38 -96 -60c-9 -5 -17 -9 -24 -14h211v-47h-281c-40 -33 -51 -61 -51 -96c0 -62 56 -111 128 -111c104 0 133 59 145 115h64c-15 -108 -85 -172 -211 -172
c-108 0 -193 65 -193 164c0 38 8 69 34 100h-45v47h96c26 19 59 39 100 62l21 12h-207v47h275c30 28 40 53 40 88c0 49 -34 105 -113 105c-77 0 -111 -44 -122 -102z" />
    <glyph glyph-name="uni20B5" unicode="&#x20b5;" horiz-adv-x="527" 
d="M116 327c0 -160 44 -256 130 -273v552c-92 -17 -130 -108 -130 -279zM298 -99h-52v92c-133 14 -200 135 -200 333c0 205 69 320 200 338v70h52v-67c120 -6 169 -88 180 -174h-66c-17 62 -48 108 -114 115v-556c57 4 91 30 116 114h67c-22 -103 -79 -166 -183 -174v-91z
" />
    <glyph glyph-name="uni20B9" unicode="&#x20b9;" horiz-adv-x="513" 
d="M51 279v54h93c78 0 175 24 175 139v13h-268v48h256c-22 51 -77 74 -156 74h-100v51h431v-49h-156c24 -19 43 -44 53 -76h103v-48h-94v-12c0 -105 -66 -161 -153 -183l219 -290h-79l-212 280c-8 -1 -15 -1 -23 -1h-89z" />
    <glyph glyph-name="uni20BA" unicode="&#x20ba;" horiz-adv-x="546" 
d="M201 0h-69v264l-94 -41v54l94 41v79l-94 -41v54l94 41v207h67v-177l134 59v-54l-134 -59v-80l134 59v-54l-134 -59v-235c145 0 208 63 223 198h63c-10 -138 -79 -256 -284 -256z" />
    <glyph glyph-name="uni20BD" unicode="&#x20bd;" horiz-adv-x="564" 
d="M111 0v166h-81v54h81v80h-81v58h81v300h182c136 0 217 -67 217 -177c0 -127 -82 -181 -215 -181h-113v-80h193v-54h-193v-166h-71zM182 598v-240h115c102 0 140 41 140 121c0 76 -50 119 -143 119h-112z" />
    <glyph glyph-name="currency.tab" horiz-adv-x="539" 
d="M267 553c47 0 90 -15 123 -42l66 69l41 -42l-68 -71c21 -33 33 -74 33 -121s-12 -90 -33 -124l68 -71l-41 -44l-67 68c-33 -27 -75 -42 -124 -42c-47 0 -89 15 -122 42l-64 -68l-42 44l68 69c-22 34 -34 76 -34 124c0 47 12 89 35 124l-69 70l42 42l67 -69
c32 26 73 41 121 42zM266 496c-90 0 -135 -69 -135 -151c0 -104 64 -156 135 -156c78 0 134 48 134 156c0 82 -42 151 -134 151z" />
    <glyph glyph-name="dollar.tab" horiz-adv-x="539" 
d="M124 501c0 -56 27 -90 112 -117v225c-82 -5 -112 -53 -112 -108zM408 169c0 58 -26 101 -121 133v-252c76 7 121 43 121 119zM287 -99h-51v93c-117 8 -186 79 -196 177h67c14 -72 67 -113 129 -121v267c-124 36 -182 81 -182 177s74 164 182 170v70h51v-71
c131 -12 171 -98 177 -156h-67c-13 48 -42 90 -110 101v-239c150 -44 192 -106 192 -194c0 -107 -70 -173 -192 -181v-93z" />
    <glyph glyph-name="sterling.tab" horiz-adv-x="539" 
d="M487 0h-441v56c61 32 82 114 82 211v43h-96v57h94c-1 25 -2 51 -2 85c0 129 55 216 179 216c119 0 164 -83 172 -158h-66c-12 60 -47 98 -109 98c-84 0 -107 -57 -107 -151c0 -36 1 -62 2 -90h154v-57h-153v-41c0 -94 -17 -160 -58 -207h359z" />
    <glyph glyph-name="yen.tab" horiz-adv-x="539" 
d="M435 179h-133v-179h-69v179h-132v51h132v66h-132v51h121l-186 311h78c123 -210 146 -252 157 -276h1c11 24 35 64 158 276h73l-189 -311h121v-51h-133v-66h133v-51z" />
    <glyph glyph-name="Euro.tab" horiz-adv-x="539" 
d="M427 152h66c-27 -108 -98 -163 -192 -163c-131 0 -200 101 -216 262h-63v52h60v24c0 14 0 28 1 42h-61v51h66c22 161 102 250 219 250c119 0 175 -83 186 -161h-67c-17 60 -58 100 -122 100c-82 0 -132 -61 -147 -189h195v-51h-199c-1 -12 -1 -25 -1 -39v-27h200v-52
h-196c13 -126 60 -200 147 -200c63 0 102 37 124 101z" />
    <glyph glyph-name="cent.tab" horiz-adv-x="539" 
d="M426 231h67c-19 -81 -81 -137 -182 -145v-93h-52v93c-120 13 -195 111 -195 242c0 125 69 229 195 245v70h52v-69c126 -7 176 -94 182 -148h-67c-13 40 -44 82 -115 88v-370c61 5 94 35 115 87zM135 331c0 -90 42 -169 124 -185v367c-85 -14 -124 -83 -124 -182z" />
    <glyph glyph-name="florin.tab" horiz-adv-x="539" 
d="M509 680l-17 -57c-14 9 -35 14 -54 14c-72 0 -90 -76 -103 -150l-13 -82h125v-58h-134l-38 -242c-20 -130 -54 -222 -159 -222c-29 0 -63 4 -86 19l16 57c17 -10 46 -15 67 -15c60 0 75 52 93 162l40 241h-101v58h110l11 67c16 105 51 226 169 226c37 0 61 -7 74 -18z
" />
    <glyph glyph-name="colonmonetary.tab" horiz-adv-x="539" 
d="M279 52c6 0 12 0 18 1v556h-14c-12 0 -23 -1 -33 -3v-551c9 -2 19 -3 29 -3zM119 327c0 -127 29 -215 86 -254v514c-60 -39 -86 -132 -86 -260zM250 -95h-45v98c-102 37 -156 156 -156 323c0 178 56 290 156 327v80h45v-69c12 2 24 3 37 3h10v66h46v-72
c87 -21 129 -91 138 -158h-66c-13 43 -32 79 -72 96v-536c34 14 56 43 74 88h67c-21 -74 -64 -132 -141 -152v-94h-46v87c-6 -1 -13 -1 -20 -1c-9 0 -18 1 -27 2v-88z" />
    <glyph glyph-name="lira.tab" horiz-adv-x="539" 
d="M486 0h-441v56c62 29 78 102 80 188h-95v48h95c-1 28 -2 49 -2 72h-93v49h91v33c0 143 56 222 180 222c118 0 166 -82 172 -155h-66c-9 58 -42 96 -110 96c-83 0 -108 -58 -108 -158v-38h156v-49h-154c0 -21 1 -43 1 -72h153v-48h-153c-3 -79 -16 -139 -55 -182h359z" />
    <glyph glyph-name="franc.tab" horiz-adv-x="539" 
d="M127 0v145h-90v55h90v458h352v-61h-283v-223h263v-61h-263v-113h137v-55h-137v-145h-69z" />
    <glyph glyph-name="uni20A6.tab" horiz-adv-x="539" 
d="M123 598c4 -53 5 -109 5 -171h65l-67 171h-3zM388 74h5c-4 58 -6 117 -7 178h-67zM128 0h-58v252h-50v49h50v76h-50v50h50v231h90l90 -231h136v231h57v-231h51v-50h-51v-76h51v-49h-51v-252h-84l-98 252h-133v-252zM386 301v76h-116l29 -76h87zM242 301l-30 76h-84v-76
h114z" />
    <glyph glyph-name="peseta.tab" horiz-adv-x="539" 
d="M77 0v427h-62v53h62v178h158c118 0 209 -62 221 -178h50v-53h-50c-12 -115 -96 -181 -228 -181h-85v-246h-66zM143 601v-121h244c-10 78 -68 121 -159 121h-85zM143 304h81c91 0 154 34 164 123h-245v-123z" />
    <glyph glyph-name="dong.tab" horiz-adv-x="539" 
d="M52 -78h396v-55h-396v55zM375 667h65v-74h65v-55h-65v-396c0 -47 0 -99 1 -142h-62c-2 12 -4 46 -4 75c-23 -44 -64 -85 -152 -85c-103 0 -193 79 -193 234s96 239 205 239c89 0 122 -36 140 -66v141h-232v55h232v74zM98 225c0 -113 59 -175 142 -175
c69 0 139 40 139 188c0 124 -61 166 -135 166c-97 0 -146 -72 -146 -179z" />
    <glyph glyph-name="dong.alttab" horiz-adv-x="539" 
d="M375 667h65v-74h65v-55h-65v-396c0 -47 0 -99 1 -142h-62c-2 12 -4 46 -4 75c-23 -44 -64 -85 -152 -85c-103 0 -193 79 -193 234s96 239 205 239c89 0 122 -36 140 -66v141h-232v55h232v74zM98 225c0 -113 59 -175 142 -175c69 0 139 40 139 188c0 124 -61 166 -135 166
c-97 0 -146 -72 -146 -179z" />
    <glyph glyph-name="uni20B1.tab" horiz-adv-x="539" 
d="M68 0v373h-59v49h59v56h-59v48h59v132h169c102 0 181 -46 209 -132h57v-48h-46c0 -9 1 -19 1 -29c0 -9 0 -18 -1 -27h46v-49h-57c-30 -90 -115 -138 -224 -138h-88v-235h-66zM134 603v-77h243c-23 49 -72 77 -143 77h-100zM393 448c0 11 -1 21 -2 30h-257v-56h258
c1 8 1 17 1 26zM134 290h88c72 0 131 25 157 83h-245v-83z" />
    <glyph glyph-name="uni20B2.tab" horiz-adv-x="539" 
d="M473 503h-67c-13 55 -43 99 -110 107v-561c36 1 76 7 103 23v250h69v-287c-40 -21 -90 -43 -172 -45v-89h-51v92c-141 19 -206 140 -206 342c0 196 73 316 206 331v68h51v-67c102 -7 167 -70 177 -164zM110 340c0 -154 36 -263 135 -286v555c-91 -16 -135 -109 -135 -269
z" />
    <glyph glyph-name="uni20B4.tab" horiz-adv-x="539" 
d="M147 511h-65c14 107 93 159 187 159c129 0 180 -85 180 -160c0 -36 -7 -64 -26 -90h54v-47h-101c-25 -19 -56 -38 -96 -60c-9 -5 -17 -9 -24 -14h211v-47h-281c-40 -33 -51 -61 -51 -96c0 -62 56 -111 128 -111c104 0 133 59 145 115h64c-15 -108 -85 -172 -211 -172
c-108 0 -193 65 -193 164c0 38 8 69 34 100h-45v47h96c26 19 59 39 100 62l21 12h-207v47h275c30 28 40 53 40 88c0 49 -34 105 -113 105c-77 0 -111 -44 -122 -102z" />
    <glyph glyph-name="uni20B5.tab" horiz-adv-x="539" 
d="M116 327c0 -160 44 -256 130 -273v552c-92 -17 -130 -108 -130 -279zM298 -99h-52v92c-133 14 -200 135 -200 333c0 205 69 320 200 338v70h52v-67c120 -6 169 -88 180 -174h-66c-17 62 -48 108 -114 115v-556c57 4 91 30 116 114h67c-22 -103 -79 -166 -183 -174v-91z
" />
    <glyph glyph-name="uni20B9.tab" horiz-adv-x="539" 
d="M54 279v54h93c78 0 175 24 175 139v13h-268v48h256c-22 51 -77 74 -156 74h-100v51h431v-49h-156c24 -19 43 -44 53 -76h103v-48h-94v-12c0 -105 -66 -161 -153 -183l219 -290h-79l-212 280c-8 -1 -15 -1 -23 -1h-89z" />
    <glyph glyph-name="uni20BA.tab" horiz-adv-x="539" 
d="M197 0h-69v264l-94 -41v54l94 41v79l-94 -41v54l94 41v207h67v-177l134 59v-54l-134 -59v-80l134 59v-54l-134 -59v-235c145 0 208 63 223 198h63c-10 -138 -79 -256 -284 -256z" />
    <glyph glyph-name="uni20BD.tab" horiz-adv-x="539" 
d="M96 0v166h-81v54h81v80h-81v58h81v300h182c136 0 217 -67 217 -177c0 -127 -82 -181 -215 -181h-113v-80h193v-54h-193v-166h-71zM167 598v-240h115c102 0 140 41 140 121c0 76 -50 119 -143 119h-112z" />
    <glyph glyph-name="currency.cap" horiz-adv-x="538" 
d="M267 566c47 0 90 -15 123 -42l66 69l41 -43l-68 -70c21 -33 33 -74 33 -121s-12 -90 -33 -124l68 -71l-41 -45l-67 69c-33 -27 -75 -42 -124 -42c-47 0 -89 15 -122 42l-64 -69l-42 45l68 69c-22 34 -34 76 -34 124c0 47 12 89 35 124l-69 69l42 43l67 -69
c32 26 73 41 121 42zM266 509c-90 0 -135 -70 -135 -151c0 -104 64 -157 135 -157c78 0 134 49 134 157c0 82 -42 151 -134 151z" />
    <glyph glyph-name="dollar.cap" horiz-adv-x="539" 
d="M114 531c0 -66 31 -94 122 -123v237c-86 -5 -122 -57 -122 -114zM421 179c0 64 -30 107 -132 140v-268c82 8 132 50 132 128zM289 -93h-53v87c-126 9 -194 92 -208 191h71c18 -78 72 -124 137 -133v282c-132 38 -193 83 -193 190c0 102 78 175 193 181v76h53v-77
c140 -14 183 -111 189 -167h-73c-11 49 -43 95 -116 106v-250c161 -47 204 -116 204 -207c0 -116 -76 -184 -204 -192v-87z" />
    <glyph glyph-name="sterling.cap" horiz-adv-x="535" 
d="M509 0h-467v57c67 43 93 132 93 230c0 12 0 24 -1 35h-106v56h104c-2 34 -4 70 -4 114c0 137 67 216 189 216c128 0 180 -86 187 -165h-69c-11 68 -53 104 -118 104c-89 0 -120 -57 -120 -152c0 -44 2 -79 4 -117h163v-56h-161c1 -12 1 -26 1 -40
c0 -99 -25 -171 -72 -219h388z" />
    <glyph glyph-name="yen.cap" horiz-adv-x="501" 
d="M426 183h-141v-183h-69v183h-139v53h139v80h-139v53h128l-198 329h79c131 -222 155 -267 166 -292h1c13 24 42 74 171 292h74l-202 -329h130v-53h-141v-80h141v-53z" />
    <glyph glyph-name="Euro.cap" horiz-adv-x="558" 
d="M458 154h67c-29 -114 -101 -166 -200 -166c-140 0 -215 104 -231 279h-67v53h63v27c0 16 0 31 1 45h-64v53h69c23 174 108 263 232 263c125 0 187 -83 197 -162h-68c-17 65 -64 102 -132 102c-87 0 -142 -63 -158 -203h209v-53h-213c-1 -13 -1 -27 -1 -42v-30h214v-53
h-210c13 -140 65 -217 162 -217c66 0 107 35 130 104z" />
    <glyph glyph-name="cent.cap" horiz-adv-x="554" 
d="M441 251h69c-19 -89 -86 -152 -194 -160v-95h-52v95c-134 13 -209 123 -209 257c0 132 70 247 209 261v79h52v-79c131 -9 185 -98 194 -167h-69c-14 48 -45 100 -125 109v-402c65 7 103 43 125 102zM128 351c0 -86 39 -184 136 -201v400c-95 -12 -136 -96 -136 -199z" />
    <glyph glyph-name="florin.cap" horiz-adv-x="545" 
d="M519 723l-18 -59c-15 9 -43 14 -67 14c-73 0 -90 -83 -103 -162l-14 -86h132v-59h-141l-41 -260c-21 -138 -55 -235 -166 -235c-31 0 -66 5 -93 23l17 59c19 -12 50 -19 73 -19c63 0 80 56 99 174l42 258h-107v59h117l11 70c18 112 53 240 178 240c39 0 66 -7 81 -17z
" />
    <glyph glyph-name="colonmonetary.cap" horiz-adv-x="547" 
d="M293 53c6 0 12 0 17 1v593h-13c-13 0 -25 -1 -36 -3v-588c10 -2 21 -3 32 -3zM121 347c0 -133 31 -228 92 -270v548c-64 -41 -92 -137 -92 -278zM261 -94h-48v98c-109 39 -164 165 -164 342c0 181 57 304 164 346v78h48v-66c13 2 26 3 40 3h9v63h47v-69
c94 -21 142 -97 151 -166h-68c-14 49 -39 86 -83 102v-574c40 14 64 47 85 105h68c-22 -86 -69 -149 -153 -170v-92h-47v86c-6 -1 -13 -1 -19 -1c-10 0 -20 1 -30 2v-87z" />
    <glyph glyph-name="lira.cap" horiz-adv-x="535" 
d="M509 0h-467v56c59 38 86 112 92 197h-100v49h101c0 25 -2 48 -3 72h-98v50h95c0 19 -1 40 -1 64c0 131 61 220 192 220c128 0 178 -89 184 -166h-69c-10 62 -49 106 -118 106c-90 0 -120 -69 -120 -156c0 -25 1 -47 2 -68h169v-50h-167c2 -22 3 -45 3 -72h164v-49h-165
c-4 -84 -28 -147 -70 -191h387z" />
    <glyph glyph-name="franc.cap" horiz-adv-x="504" 
d="M101 0v160h-95v55h95v483h374v-63h-303v-236h281v-63h-281v-121h148v-55h-148v-160h-71z" />
    <glyph glyph-name="uni20A6.cap" horiz-adv-x="588" 
d="M132 631c4 -50 5 -106 5 -166h67l-69 166h-3zM431 81h5c-5 62 -7 127 -7 195h-80zM137 0h-61v276h-53v51h53v86h-53v52h53v233h95l98 -233h159v233h60v-233h55v-52h-55v-86h55v-51h-55v-276h-89l-115 276h-147v-276zM428 327v86h-137l36 -86h101zM262 327l-36 86h-89v-86
h125z" />
    <glyph glyph-name="peseta.cap" horiz-adv-x="550" 
d="M71 0v458h-66v55h66v185h169c128 0 222 -64 235 -185h52v-55h-52c-12 -125 -107 -190 -243 -190h-92v-268h-69zM140 642v-129h264c-11 84 -74 129 -169 129h-95zM140 325h88c86 0 165 28 177 133h-265v-133z" />
    <glyph glyph-name="dong.cap" horiz-adv-x="550" 
d="M54 -83h420v-54h-420v54zM398 698h67v-69h70v-55h-70v-442c0 -44 0 -107 1 -132h-62c-3 13 -6 55 -6 79c-24 -46 -69 -90 -162 -90c-109 0 -205 83 -205 248c0 163 102 254 218 254c94 0 130 -38 149 -70v153h-247v55h247v69zM101 239c0 -121 64 -187 152 -187
c74 0 150 43 150 200c0 133 -67 178 -146 178c-102 0 -156 -85 -156 -191z" />
    <glyph glyph-name="dong.altcap" horiz-adv-x="550" 
d="M398 698h67v-69h70v-55h-70v-442c0 -44 0 -107 1 -132h-62c-3 13 -6 55 -6 79c-24 -46 -69 -90 -162 -90c-109 0 -205 83 -205 248c0 163 102 254 218 254c94 0 130 -38 149 -70v153h-247v55h247v69zM101 239c0 -121 64 -187 152 -187c74 0 150 43 150 200
c0 133 -67 178 -146 178c-102 0 -156 -85 -156 -191z" />
    <glyph glyph-name="uni20B1.cap" horiz-adv-x="593" 
d="M96 0v399h-63v48h63v63h-63v48h63v140h177c104 0 191 -45 223 -140h60v-48h-50c1 -11 2 -22 2 -34c0 -10 0 -20 -1 -29h49v-48h-59c-30 -100 -122 -149 -240 -149h-92v-250h-69zM165 640v-82h258c-25 52 -77 82 -151 82h-107zM440 476c0 12 -1 23 -3 34h-272v-63h273
c1 9 2 19 2 29zM165 308h92c78 0 142 27 169 91h-261v-91z" />
    <glyph glyph-name="uni20B2.cap" horiz-adv-x="574" 
d="M514 525h-69c-15 56 -47 108 -121 117v-586c41 0 84 8 115 24v257h71v-299c-55 -22 -112 -44 -186 -44v-87h-51v90c-149 21 -218 152 -218 359c0 203 78 330 218 346v79h51v-78c106 -7 180 -73 190 -178zM129 361c0 -155 38 -272 144 -299v579
c-97 -16 -145 -120 -144 -280z" />
    <glyph glyph-name="uni20B4.cap" horiz-adv-x="543" 
d="M141 542h-69c17 112 101 169 200 169c135 0 190 -92 190 -169c0 -39 -8 -70 -29 -99h59v-50h-110c-25 -19 -58 -39 -99 -62c-6 -3 -12 -7 -18 -10h216v-50h-293c-47 -36 -58 -65 -58 -105c0 -64 52 -117 134 -117c110 0 142 62 156 119h67c-17 -107 -87 -181 -226 -181
c-120 0 -202 75 -202 175c0 41 9 74 39 109h-52v50h107c27 19 60 39 101 62c6 3 12 7 18 10h-215v50h289c35 30 46 59 46 96c0 47 -31 112 -122 112c-76 0 -116 -43 -129 -109z" />
    <glyph glyph-name="uni20B5.cap" horiz-adv-x="559" 
d="M121 347c0 -150 45 -270 142 -290v586c-101 -20 -142 -138 -142 -296zM314 -93h-51v86c-142 16 -214 160 -214 353c0 204 73 339 214 359v76h51v-74c117 -7 185 -86 194 -178h-68c-16 62 -55 109 -126 116v-590c61 5 102 33 127 115h69c-22 -106 -84 -171 -196 -178v-85z
" />
    <glyph glyph-name="uni20B9.cap" horiz-adv-x="548" 
d="M55 296v58h100c87 0 188 29 188 147v11h-288v51h276c-23 53 -80 81 -160 81h-116v54h457v-51h-164c26 -21 46 -48 57 -84h107v-51h-99v-10c0 -110 -69 -170 -160 -194l213 -308h-82l-206 297c-9 -1 -18 -1 -27 -1h-96z" />
    <glyph glyph-name="uni20BA.cap" horiz-adv-x="557" 
d="M496 264c-10 -138 -88 -264 -293 -264h-69v290l-97 -41v55l97 41v82l-97 -41v54l97 41v217h67v-189l141 59v-54l-141 -59v-82l141 59v-55l-141 -59v-260c145 0 218 70 233 206h62z" />
    <glyph glyph-name="uni20BD.cap" horiz-adv-x="570" 
d="M115 0v194h-81v54h81v81h-81v58h81v311h179c136 0 219 -67 219 -182c0 -128 -87 -187 -218 -187h-109v-81h191v-54h-191v-194h-71zM186 638v-251h111c103 0 143 44 143 127c0 78 -52 124 -146 124h-108z" />
    <glyph glyph-name="at.cap" horiz-adv-x="932" 
d="M680 -5l18 -52c-50 -36 -128 -65 -247 -65c-225 0 -384 154 -384 399c0 248 165 442 430 442c202 0 368 -126 368 -347c0 -181 -94 -291 -216 -291c-57 0 -96 24 -95 84c-33 -53 -75 -84 -145 -84c-79 0 -141 58 -141 175c0 153 90 272 206 272c86 0 116 -50 124 -85
l18 75h62l-61 -287c-17 -70 5 -92 43 -92c83 0 141 90 141 229c0 179 -123 294 -308 294c-220 0 -358 -161 -359 -385c-1 -194 124 -339 320 -339c82 0 160 16 226 57zM478 471c-90 0 -142 -100 -142 -210c0 -80 32 -122 87 -122c67 0 117 44 143 162c25 111 -5 170 -88 170
z" />
    <glyph glyph-name="emdash.cap" horiz-adv-x="854" 
d="M59 387h736v-62h-736v62z" />
    <glyph glyph-name="endash.cap" horiz-adv-x="525" 
d="M59 387h407v-62h-407v62z" />
    <glyph glyph-name="hyphen.cap" horiz-adv-x="375" 
d="M59 387h257v-63h-257v63z" />
    <glyph glyph-name="uni00AD.cap" horiz-adv-x="375" 
d="M59 387h257v-63h-257v63z" />
    <glyph glyph-name="exclamdown.cap" horiz-adv-x="231" 
d="M70 470h57l8 -347v-123h-73v124zM66 699h67v-127h-67v127z" />
    <glyph glyph-name="questiondown.cap" horiz-adv-x="430" 
d="M20 134c0 73 24 122 97 187c53 48 70 82 70 132v8h68v-14c0 -49 -13 -97 -93 -168c-65 -59 -75 -101 -75 -144c0 -54 39 -117 124 -117c79 0 124 38 138 124h61c-4 -63 -40 -182 -204 -182c-124 0 -186 86 -186 174zM187 669h68v-127h-68v127z" />
    <glyph glyph-name="guillemotleft.cap" horiz-adv-x="526" 
d="M282 548l-152 -192l153 -194h-69l-155 194l155 192h68zM466 548l-154 -192l155 -194h-71l-154 194l154 192h70z" />
    <glyph glyph-name="guillemotright.cap" horiz-adv-x="526" 
d="M244 170l151 192l-152 194h69l155 -194l-155 -192h-68zM59 170l155 192l-155 194h70l155 -194l-155 -192h-70z" />
    <glyph glyph-name="guilsinglleft.cap" horiz-adv-x="361" 
d="M301 548l-169 -192l170 -194h-72l-171 194l171 192h71z" />
    <glyph glyph-name="guilsinglright.cap" horiz-adv-x="361" 
d="M59 162l170 192l-170 194h71l172 -194l-172 -192h-71z" />
    <glyph glyph-name="parenleft.cap" horiz-adv-x="324" 
d="M212 792h72c-90 -115 -160 -262 -160 -448c0 -170 57 -324 160 -459h-72c-73 97 -152 255 -152 460c0 201 80 355 152 447z" />
    <glyph glyph-name="parenright.cap" horiz-adv-x="324" 
d="M112 -114h-72c89 116 159 262 159 448c0 170 -56 325 -159 459h72c73 -96 152 -255 152 -460c0 -200 -80 -355 -152 -447z" />
    <glyph glyph-name="braceleft.cap" horiz-adv-x="364" 
d="M28 310v58c97 0 111 49 111 118v135c0 114 68 171 168 171h17v-54h-17c-71 0 -103 -42 -103 -118v-133c0 -82 -30 -133 -93 -147c64 -16 93 -61 93 -149v-131c0 -82 45 -122 105 -122h15v-54h-17c-86 0 -168 47 -168 172v137c0 64 -10 117 -111 117z" />
    <glyph glyph-name="braceright.cap" horiz-adv-x="364" 
d="M324 367v-58c-97 0 -111 -49 -111 -117v-136c0 -114 -68 -171 -168 -171h-17v54h17c71 0 103 42 103 119v132c0 82 30 134 93 147c-64 17 -93 61 -93 149v131c0 82 -45 122 -105 122h-15v54h17c85 0 168 -47 168 -172v-137c0 -64 10 -116 111 -117z" />
    <glyph glyph-name="bracketleft.cap" horiz-adv-x="336" 
d="M296 -115h-207v907h207v-57h-145v-793h145v-57z" />
    <glyph glyph-name="bracketright.cap" horiz-adv-x="336" 
d="M40 792h207v-907h-207v57h145v793h-145v57z" />
    <glyph glyph-name="bullet.cap" horiz-adv-x="358" 
d="M90 444h178v-186h-178v186z" />
    <glyph glyph-name="periodcentered.cap" horiz-adv-x="185" 
d="M127 288h-69v137h69v-137z" />
    <glyph glyph-name="bulletoperator.cap" horiz-adv-x="185" 
d="M127 288h-69v137h69v-137z" />
    <glyph glyph-name="fraction" unicode="&#x2044;" horiz-adv-x="185" 
d="M-92 0h-61l435 658h60z" />
    <glyph glyph-name="uni2215" unicode="&#x2215;" horiz-adv-x="185" 
d="M-92 0h-61l435 658h60z" />
    <glyph glyph-name="slash.frac" horiz-adv-x="185" 
d="M-92 0h-61l435 658h60z" />
    <glyph glyph-name="percent" unicode="%" horiz-adv-x="860" 
d="M203 670c103 0 164 -73 164 -186c0 -104 -54 -189 -166 -189c-104 0 -160 78 -160 187c0 100 54 188 162 188zM202 615c-60 0 -100 -47 -100 -131c0 -79 35 -134 103 -134c64 0 102 52 102 134c0 80 -38 131 -105 131zM250 0h-65l437 658h64zM666 362
c104 0 164 -73 164 -187c0 -103 -54 -186 -166 -188c-106 0 -161 82 -161 187c0 100 54 188 163 188zM665 307c-59 0 -101 -51 -101 -132c0 -77 36 -133 104 -133c64 0 101 52 101 133s-38 132 -104 132z" />
    <glyph glyph-name="percent.alt" horiz-adv-x="515" 
d="M121 401c-59 0 -96 52 -96 119c0 66 37 118 96 118c66 0 98 -52 98 -118c0 -67 -35 -119 -98 -119zM121 598c-31 0 -55 -25 -55 -78c0 -45 23 -79 57 -79s55 32 55 79c0 48 -22 78 -57 78zM98 226l278 406h42l-277 -406h-43zM390 218c-58 0 -96 52 -96 120
c0 65 38 117 96 117c66 0 98 -52 98 -117c0 -68 -35 -120 -98 -120zM390 415c-31 0 -54 -25 -54 -77c0 -46 23 -80 56 -80c35 0 55 33 55 80c0 48 -22 77 -57 77z" />
    <glyph glyph-name="perthousand" unicode="&#x2030;" horiz-adv-x="1240" 
d="M1036 362c104 0 164 -75 164 -187c0 -100 -54 -186 -166 -188c-106 0 -161 81 -161 187c0 97 54 188 163 188zM1035 308c-59 0 -101 -47 -101 -133c0 -77 36 -133 103 -133c65 0 102 51 102 133c0 81 -38 133 -104 133zM203 670c103 0 164 -73 164 -186
c0 -104 -54 -189 -166 -189c-104 0 -160 78 -160 187c0 100 54 188 162 188zM202 615c-60 0 -100 -47 -100 -131c0 -79 35 -134 103 -134c64 0 102 52 102 134c0 80 -38 131 -105 131zM250 0h-65l437 658h64zM666 362c104 0 164 -73 164 -187c0 -103 -54 -186 -166 -188
c-106 0 -161 82 -161 187c0 100 54 188 163 188zM665 307c-59 0 -101 -51 -101 -132c0 -77 36 -133 104 -133c64 0 101 52 101 133s-38 132 -104 132z" />
    <glyph glyph-name="onequarter" unicode="&#xbc;" horiz-adv-x="759" 
d="M166 2h-61l435 658h60zM178 261h-57v328c-23 -15 -71 -26 -88 -26v45c44 9 82 33 106 56h39v-403zM672 0h-54v107h-201v46l188 242h67v-241h61l-5 -47h-56v-107zM479 154h139v93c0 21 1 74 2 97c-15 -26 -100 -134 -141 -190z" />
    <glyph glyph-name="onehalf" unicode="&#xbd;" horiz-adv-x="798" 
d="M163 0h-61l435 658h60zM181 261h-57v328c-23 -15 -71 -26 -88 -26v45c44 9 82 33 106 56h39v-403zM754 0h-283v4c0 66 40 126 134 184c69 43 82 58 82 93c0 44 -27 72 -76 72c-44 0 -76 -23 -86 -79h-55c9 80 64 128 144 128c98 0 133 -69 133 -118
c0 -65 -38 -91 -105 -131c-51 -30 -92 -65 -104 -103h226z" />
    <glyph glyph-name="threequarters" unicode="&#xbe;" horiz-adv-x="840" 
d="M275 2h-61l435 658h60zM759 0h-54v107h-201v46l188 242h67v-241h61l-5 -47h-56v-107zM566 154h139v93c0 21 1 74 2 97c-15 -26 -100 -134 -141 -190zM161 448v50h34c52 0 72 24 72 56c0 30 -18 62 -74 62c-58 0 -75 -36 -83 -62h-53c4 34 34 109 138 109
c86 0 130 -47 130 -107c0 -43 -31 -71 -58 -80c42 -13 74 -47 74 -96c0 -62 -43 -123 -147 -123c-112 0 -141 77 -146 115h55c7 -36 43 -68 94 -68c57 0 84 30 84 73c0 48 -32 71 -83 71h-37z" />
    <glyph glyph-name="onethird" unicode="&#x2153;" horiz-adv-x="806" 
d="M168 2h-61l435 658h60zM176 261h-57v328c-23 -15 -71 -26 -88 -26v45c44 9 82 33 106 56h39v-403zM582 185v50h34c52 0 72 24 72 56c0 30 -18 62 -74 62c-58 0 -75 -36 -83 -62h-53c4 34 34 109 138 109c86 0 130 -47 130 -107c0 -43 -31 -71 -58 -80
c42 -13 74 -47 74 -96c0 -62 -43 -123 -147 -123c-112 0 -141 77 -146 115h55c7 -36 43 -68 94 -68c57 0 84 30 84 73c0 48 -32 71 -83 71h-37z" />
    <glyph glyph-name="twothirds" unicode="&#x2154;" horiz-adv-x="904" 
d="M281 2h-61l435 658h60zM324 262h-283v4c0 66 40 126 134 184c69 43 82 58 82 93c0 44 -27 72 -76 72c-44 0 -76 -23 -86 -79h-55c9 80 64 128 144 128c98 0 133 -69 133 -118c0 -65 -38 -91 -105 -131c-51 -30 -92 -65 -104 -103h226zM686 185v50h34c52 0 72 24 72 56
c0 30 -18 62 -74 62c-58 0 -75 -36 -83 -62h-53c4 34 34 109 138 109c86 0 130 -47 130 -107c0 -43 -31 -71 -58 -80c42 -13 74 -47 74 -96c0 -62 -43 -123 -147 -123c-112 0 -141 77 -146 115h55c7 -36 43 -68 94 -68c57 0 84 30 84 73c0 48 -32 71 -83 71h-37z" />
    <glyph glyph-name="oneeighth" unicode="&#x215b;" horiz-adv-x="757" 
d="M146 2h-61l435 658h60zM175 261h-57v328c-23 -15 -71 -26 -88 -26v45c44 9 82 33 106 56h39v-403zM569 -24c-97 0 -145 58 -145 116c0 55 33 86 70 101c-34 16 -54 48 -54 83c0 58 41 107 134 107c88 0 126 -53 126 -104c0 -37 -18 -69 -54 -83c43 -17 72 -50 72 -101
c0 -69 -61 -119 -149 -119zM570 21c63 0 89 32 89 73c0 50 -30 76 -89 76c-65 0 -88 -31 -88 -74c0 -41 29 -75 88 -75zM572 338c-49 0 -75 -22 -75 -59c0 -41 25 -64 76 -64c42 0 70 20 70 63c0 36 -23 60 -71 60z" />
    <glyph glyph-name="threeeighths" unicode="&#x215c;" horiz-adv-x="873" 
d="M255 2h-61l435 658h60zM686 -5c-97 0 -145 58 -145 116c0 55 33 86 70 101c-34 16 -54 48 -54 83c0 58 41 107 134 107c88 0 126 -53 126 -104c0 -37 -18 -69 -54 -83c43 -17 72 -50 72 -101c0 -69 -61 -119 -149 -119zM687 40c63 0 89 32 89 73c0 50 -30 76 -89 76
c-65 0 -88 -31 -88 -74c0 -41 29 -75 88 -75zM689 357c-49 0 -75 -22 -75 -59c0 -41 25 -64 76 -64c42 0 70 20 70 63c0 36 -23 60 -71 60zM155 448v50h34c52 0 72 24 72 56c0 30 -18 62 -74 62c-58 0 -75 -36 -83 -62h-53c4 34 34 109 138 109c86 0 130 -47 130 -107
c0 -43 -31 -71 -58 -80c42 -13 74 -47 74 -96c0 -62 -43 -123 -147 -123c-112 0 -141 77 -146 115h55c7 -36 43 -68 94 -68c57 0 84 30 84 73c0 48 -32 71 -83 71h-37z" />
    <glyph glyph-name="fiveeighths" unicode="&#x215d;" horiz-adv-x="884" 
d="M263 2h-61l435 658h60zM333 658l-8 -51h-189c-5 -37 -13 -83 -18 -111c20 17 45 32 96 32c81 0 134 -53 134 -130c0 -81 -58 -141 -149 -141c-93 0 -142 57 -150 114h57c11 -37 39 -66 94 -66c57 0 88 37 88 89c0 47 -24 86 -87 86c-51 0 -75 -21 -89 -46l-51 10
c8 54 25 158 31 214h241zM693 -6c-97 0 -145 58 -145 116c0 55 33 86 70 101c-34 16 -54 48 -54 83c0 58 41 107 134 107c88 0 126 -53 126 -104c0 -37 -18 -69 -54 -83c43 -17 72 -50 72 -101c0 -69 -61 -119 -149 -119zM694 39c63 0 89 32 89 73c0 50 -30 76 -89 76
c-65 0 -88 -31 -88 -74c0 -41 29 -75 88 -75zM696 356c-49 0 -75 -22 -75 -59c0 -41 25 -64 76 -64c42 0 70 20 70 63c0 36 -23 60 -71 60z" />
    </font>
</defs>
</svg>
