<?xml version="1.0" encoding="UTF-8"?>
<svg width="54px" height="54px" viewBox="0 0 54 54" version="1.1" xmlns="http://www.w3.org/2000/svg" xmlns:xlink="http://www.w3.org/1999/xlink">
    <!-- Generator: Sketch 52.1 (67048) - http://www.bohemiancoding.com/sketch -->
    <title>Checkmark</title>
    <desc>Created with Sketch.</desc>
    <g id="Checkout-experience" stroke="none" stroke-width="1" fill="none" fill-rule="evenodd">
        <g id="7.-Success" transform="translate(-485.000000, -168.000000)" fill="#85CE8E" stroke="#FFFFFF" stroke-width="2.3">
            <g id="Box" transform="translate(245.000000, 62.000000)">
                <g id="Action" transform="translate(71.000000, 108.000000)">
                    <g id="Checkmark" transform="translate(171.000000, 0.000000)">
                        <path d="M24.9999998,50 C11.2160003,50 0,38.7855147 0,25.0000006 C0,11.2139816 11.2165051,0 24.9999998,0 C38.7860185,0 50,11.2144864 50,25.0000006 C50,38.7860195 38.7855137,50 24.9999998,50 Z M24.9999998,3.43072923 C13.1070409,3.43072923 3.43072777,13.1070415 3.43072777,25.0000006 C3.43072777,36.8944741 13.1070409,46.5692719 24.9999998,46.5692719 C36.8929587,46.5692719 46.5692708,36.8949789 46.5692708,25.0000006 C46.5692708,13.1070415 36.8929587,3.43072923 24.9999998,3.43072923 Z" id="Fill-1"></path>
                        <path d="M21.9874008,33.8235294 C21.5335367,33.8235294 21.0993292,33.6381074 20.7790782,33.3095972 L14.4701285,26.8380415 C13.8040748,26.154821 13.8040748,25.0442911 14.4701285,24.3590585 C15.1381438,23.6738258 16.2207702,23.6738258 16.8868239,24.3590585 L21.987602,29.5892395 L33.846999,17.42418 C34.5130526,16.7409596 35.5956791,16.7409596 36.2636944,17.42418 C36.9317097,18.1094127 36.9317097,19.2199426 36.2636944,19.9051752 L23.1961257,33.3095456 C22.8758647,33.638061 22.4416472,33.8234778 21.9878032,33.8234778" id="Fill-2"></path>
                    </g>
                </g>
            </g>
        </g>
    </g>
</svg>