<?xml version="1.0" encoding="UTF-8"?>
<svg width="28px" height="28px" viewBox="0 0 28 28" version="1.1" xmlns="http://www.w3.org/2000/svg" xmlns:xlink="http://www.w3.org/1999/xlink">
    <!-- Generator: Sketch 52.1 (67048) - http://www.bohemiancoding.com/sketch -->
    <title>3</title>
    <desc>Created with Sketch.</desc>
    <g id="Page-1" stroke="none" stroke-width="1" fill="none" fill-rule="evenodd">
        <g id="0.3-Modal" transform="translate(-710.000000, -426.000000)" stroke="#56B462" stroke-width="1.5">
            <g id="Modal" transform="translate(165.000000, 223.000000)">
                <g id="3" transform="translate(546.000000, 204.000000)">
                    <circle id="Oval" cx="13" cy="13" r="13"></circle>
                    <path d="M16.9565217,7.34782609 C17.0130435,5.2 15.3173913,3.44782609 13.1695652,3.39130435 C13.1130435,3.39130435 13.0565217,3.39130435 13,3.39130435 C10.8521739,3.33478261 9.1,5.03043478 9.04347826,7.17826087 C9.04347826,7.23478261 9.04347826,7.29130435 9.04347826,7.34782609 C9.04347826,7.8 9.49565217,10.0043478 9.49565217,10.0043478 C9.83478261,11.926087 11.0782609,13.5652174 13,13.5652174 C14.9217391,13.5652174 16.1652174,11.9826087 16.5043478,10.0043478 C16.5043478,10.0043478 16.9565217,7.8 16.9565217,7.34782609 Z" id="Shape"></path>
                    <path d="M3.39130435,21.7608696 L3.39130435,21.3652174 C3.39130435,19.6130435 4.69130435,18.3130435 6.44347826,17.8608696 L13,16.673913 L19.6130435,17.9173913 C21.3086957,18.426087 22.6086957,19.6130435 22.6086957,21.4217391 L22.6086957,21.8173913" id="Shape"></path>
                </g>
            </g>
        </g>
    </g>
</svg>