<?xml version="1.0" encoding="UTF-8"?>
<svg width="16px" height="19px" viewBox="0 0 16 19" version="1.1" xmlns="http://www.w3.org/2000/svg" xmlns:xlink="http://www.w3.org/1999/xlink">
    <!-- Generator: Sketch 52.1 (67048) - http://www.bohemiancoding.com/sketch -->
    <title>Lock</title>
    <desc>Created with Sketch.</desc>
    <g id="Symbols" stroke="none" stroke-width="1" fill="none" fill-rule="evenodd">
        <g id="UI/Security" transform="translate(-454.000000, -12.000000)" stroke="#8C95A8">
            <g id="Group-3">
                <g id="Lock" transform="translate(455.000000, 13.000000)">
                    <path d="M12.9737336,17 L1,17 C0.44771525,17 6.76353751e-17,16.5522847 0,16 L0,7.65217391 C-6.76353751e-17,7.09988916 0.44771525,6.65217391 1,6.65217391 L12.9737336,6.65217391 C13.5260183,6.65217391 13.9737336,7.09988916 13.9737336,7.65217391 L13.9737336,16 C13.9737336,16.5522847 13.5260183,17 12.9737336,17 Z" id="Shape"></path>
                    <path d="M2.87694515,6.65217391 L2.87694515,3.69565217 C2.87694515,1.65459984 4.71701975,3.28239851e-16 6.98686679,0 C9.25671384,8.20599627e-17 11.0967884,1.65459984 11.0967884,3.69565217 L11.0967884,6.65217391" id="Shape"></path>
                </g>
            </g>
        </g>
    </g>
</svg>