<?xml version="1.0" encoding="UTF-8"?>
<svg width="31px" height="20px" viewBox="0 0 31 20" version="1.1" xmlns="http://www.w3.org/2000/svg" xmlns:xlink="http://www.w3.org/1999/xlink">
    <!-- Generator: Sketch 52.1 (67048) - http://www.bohemiancoding.com/sketch -->
    <title>img-fi-mastercard</title>
    <desc>Created with Sketch.</desc>
    <defs>
        <polygon id="path-1" points="0 14.1230013 17.9515056 14.1230013 17.9515056 6.2341234e-05 0 6.2341234e-05"></polygon>
    </defs>
    <g id="LimePay-Checkout" stroke="none" stroke-width="1" fill="none" fill-rule="evenodd">
        <g id="New-card-option" transform="translate(-648.000000, -165.000000)">
            <g id="Box" transform="translate(245.000000, 62.000000)">
                <g id="Inputs" transform="translate(54.000000, 90.000000)">
                    <g id="Card">
                        <g transform="translate(319.000000, 13.000000)">
                            <g id="Cards">
                                <g id="img-fi-mastercard" transform="translate(31.667491, 1.000000)">
                                    <rect id="Rectangle" stroke="#000000" fill="#303030" x="-0.5" y="-0.5" width="29" height="19" rx="1"></rect>
                                    <g id="Mastercard-logo" transform="translate(4.829502, 1.468788)">
                                        <mask id="mask-2" fill="white">
                                            <use xlink:href="#path-1"></use>
                                        </mask>
                                        <g id="Clip-5"></g>
                                        <polygon id="Fill-4" fill="#FF5F00" mask="url(#mask-2)" points="6.3056031 11.8514426 11.6460566 11.8514426 11.6460566 3.0292229 6.3056031 3.0292229"></polygon>
                                        <g id="Group-3" mask="url(#mask-2)">
                                            <g transform="translate(0.000000, 1.829559)">
                                                <path d="M6.85687721,5.61069547 C6.85687721,3.82087864 7.68549122,2.22696914 8.97579902,1.19958561 C8.03206977,0.448217887 6.84146687,-1.55853085e-05 5.54730648,-1.55853085e-05 C2.4835767,-1.55853085e-05 4.62310213e-05,2.51202444 4.62310213e-05,5.61069547 C4.62310213e-05,8.7093665 2.4835767,11.2214065 5.54730648,11.2214065 C6.84146687,11.2214065 8.03206977,10.7731731 8.97579902,10.0218053 C7.68549122,8.9944218 6.85687721,7.4005123 6.85687721,5.61069547" id="Fill-6" fill="#EB001B"></path>
                                                <path d="M17.7783396,9.14243547 L17.7783396,8.86969257 L17.7220918,8.86969257 L17.6573684,9.05731314 L17.5927991,8.86969257 L17.5365513,8.86969257 L17.5365513,9.14243547 L17.5761559,9.14243547 L17.5761559,8.93665808 L17.6368727,9.11412644 L17.6780183,9.11412644 L17.7385809,8.93626761 L17.7385809,9.14243547 L17.7783396,9.14243547 Z M17.4222066,9.14243547 L17.4222066,8.91615844 L17.494327,8.91615844 L17.494327,8.87008304 L17.310944,8.87008304 L17.310944,8.91615844 L17.3829103,8.91615844 L17.3829103,9.14243547 L17.4222066,9.14243547 Z" id="Fill-7" fill="#F79E1B"></path>
                                                <path d="M17.9515518,5.61069547 C17.9515518,8.7093665 15.4678672,11.2214065 12.4042916,11.2214065 C11.1101312,11.2214065 9.91937417,10.7731731 8.97579902,10.0218053 C10.2661068,8.9944218 11.0947208,7.4005123 11.0947208,5.61069547 C11.0947208,3.82087864 10.2661068,2.22696914 8.97579902,1.19958561 C9.91937417,0.448217887 11.1101312,-1.55853085e-05 12.4042916,-1.55853085e-05 C15.4678672,-1.55853085e-05 17.9515518,2.51202444 17.9515518,5.61069547" id="Fill-8" fill="#F79E1B"></path>
                                            </g>
                                        </g>
                                    </g>
                                </g>
                            </g>
                        </g>
                    </g>
                </g>
            </g>
        </g>
    </g>
</svg>