<?xml version="1.0" encoding="UTF-8"?>
<svg width="30px" height="20px" viewBox="0 0 30 20" version="1.1" xmlns="http://www.w3.org/2000/svg" xmlns:xlink="http://www.w3.org/1999/xlink">
    <!-- Generator: Sketch 52.1 (67048) - http://www.bohemiancoding.com/sketch -->
    <title>img-fi-visa</title>
    <desc>Created with Sketch.</desc>
    <g id="LimePay-Checkout" stroke="none" stroke-width="1" fill="none" fill-rule="evenodd">
        <g id="New-card-option" transform="translate(-617.000000, -165.000000)">
            <g id="Box" transform="translate(245.000000, 62.000000)">
                <g id="Inputs" transform="translate(54.000000, 90.000000)">
                    <g id="Card">
                        <g transform="translate(319.000000, 13.000000)">
                            <g id="Cards">
                                <g id="img-fi-visa" transform="translate(0.000000, 1.000000)">
                                    <rect id="Rectangle" stroke="#CED2DB" fill="#FFFFFF" x="-0.5" y="-0.5" width="29" height="19" rx="1.48441366"></rect>
                                    <g id="Visa" transform="translate(2.000000, 5.000000)" fill="#16216A">
                                        <path d="M16.8204112,0.663559998 C16.4672669,0.531133131 15.9144435,0.388251512 15.2229782,0.388251512 C13.4633604,0.388251512 12.2225595,1.27342057 12.212096,2.54280178 C12.2016324,3.4802446 13.0971366,4.00385346 13.7729066,4.31662481 C14.4661158,4.63636599 14.7006734,4.84023367 14.6971856,5.12599691 C14.6919538,5.56335406 14.1426182,5.76286559 13.629905,5.76286559 C12.9183846,5.76286559 12.5399534,5.66354544 11.9539954,5.42047244 L11.7246696,5.31766737 L11.4744167,6.77871905 C11.8894703,6.96080599 12.6594121,7.11849851 13.4590006,7.12633958 C15.3319734,7.12633958 16.5474874,6.25162527 16.5614387,4.89599235 C16.5675425,4.15457614 16.0940675,3.58914827 15.0660252,3.12304055 C14.4425729,2.82072395 14.0615258,2.61946997 14.0641417,2.31366845 C14.0641417,2.04271611 14.3885113,1.75259673 15.0852083,1.75259673 C15.6676784,1.74301321 16.0905797,1.8702127 16.4184371,2.00176833 L16.578006,2.07756529 L16.8204112,0.663559998" id="Fill-3"></path>
                                        <path d="M21.3877443,0.508481167 L20.0117895,0.508481167 C19.5854004,0.508481167 19.2662626,0.625225905 19.0796629,1.04951462 L16.4332604,7.03137557 L18.3044893,7.03137557 C18.3044893,7.03137557 18.6096757,6.22723085 18.6794327,6.05124251 C18.8834716,6.05124251 20.7006389,6.0538562 20.9604833,6.0538562 C21.013673,6.2821183 21.1776017,7.03137557 21.1776017,7.03137557 L22.8308402,7.03137557 L21.3877443,0.508481167 L21.3877443,0.508481167 Z M19.1912739,4.7165191 C19.3395073,4.33927677 19.9010504,2.89042231 19.9010504,2.89042231 C19.8914588,2.90871812 20.0475399,2.51317998 20.1364799,2.2674933 L20.2576825,2.83030748 C20.2576825,2.83030748 20.5994914,4.38893685 20.6709922,4.7165191 L19.1912739,4.7165191 L19.1912739,4.7165191 Z" id="Fill-4"></path>
                                        <path d="M7.08321979,0.506738708 L5.33929726,4.95784964 L5.15269755,4.05351353 C4.82919992,3.01152319 3.8168529,1.88066745 2.68591914,1.31523958 L4.27986433,7.02353451 L6.16504458,7.02179205 L8.97014397,0.506738708 L7.08321979,0.506738708" id="Fill-5"></path>
                                        <path d="M3.72093716,0.503253791 L0.846952828,0.503253791 L0.825153797,0.638294345 C3.05999052,1.17845656 4.53970878,2.48530064 5.15269755,4.05351353 L4.52837329,1.05387076 C4.42025009,0.640036804 4.10808796,0.51806469 3.72093716,0.503253791" id="Fill-6"></path>
                                        <polyline id="Fill-7" points="8.5777614 7.02876188 9.69125594 0.502382561 11.4735448 0.502382561 10.3574343 7.02876188 8.5777614 7.02876188"></polyline>
                                    </g>
                                </g>
                            </g>
                        </g>
                    </g>
                </g>
            </g>
        </g>
    </g>
</svg>