<?xml version="1.0" encoding="UTF-8"?>
<svg width="14px" height="24px" viewBox="0 0 14 24" version="1.1" xmlns="http://www.w3.org/2000/svg" xmlns:xlink="http://www.w3.org/1999/xlink">
    <!-- Generator: Sketch 52.6 (67491) - http://www.bohemiancoding.com/sketch -->
    <title>Icon 1</title>
    <desc>Created with Sketch.</desc>
    <g id="1.-Checkout-Updates-2.0" stroke="none" stroke-width="1" fill="none" fill-rule="evenodd" stroke-linecap="round" stroke-linejoin="round">
        <g id="2.-Card-payment-(hover)" transform="translate(-365.000000, -453.000000)">
            <g id="Tooltip" transform="translate(290.000000, 403.000000)">
                <g id="Group-4" transform="translate(17.000000, 38.000000)">
                    <g id="Icon-1" transform="translate(58.000000, 12.000000)">
                        <path d="M7,21.25 C7.13807119,21.25 7.25,21.3619288 7.25,21.5 C7.25,21.6380712 7.13807119,21.75 7,21.75 C6.86192881,21.75 6.75,21.6380712 6.75,21.5 C6.75,21.3619288 6.86192881,21.25 7,21.25" id="Shape" stroke="#BABABA"></path>
                        <path d="M2.5,0.5 L11.5,0.5 C12.6045695,0.5 13.5,1.3954305 13.5,2.5 L13.5,4 L13.5,11 L13.5,21.5 C13.5,22.6045695 12.6045695,23.5 11.5,23.5 L2.5,23.5 C1.3954305,23.5 0.5,22.6045695 0.5,21.5 L0.5,16 L0.5,9 L0.5,2.5 C0.5,1.3954305 1.3954305,0.5 2.5,0.5 Z" id="Rectangle-path" stroke="#FFFFFF"></path>
                    </g>
                </g>
            </g>
        </g>
    </g>
</svg>