<?xml version="1.0" encoding="UTF-8"?>
<svg width="27px" height="22px" viewBox="0 0 27 22" version="1.1" xmlns="http://www.w3.org/2000/svg" xmlns:xlink="http://www.w3.org/1999/xlink">
    <!-- Generator: Sketch 52.6 (67491) - http://www.bohemiancoding.com/sketch -->
    <title>Icon 2</title>
    <desc>Created with Sketch.</desc>
    <g id="1.-Checkout-Updates-2.0" stroke="none" stroke-width="1" fill="none" fill-rule="evenodd">
        <g id="2.-Card-payment-(hover)" transform="translate(-500.000000, -454.000000)">
            <g id="Tooltip" transform="translate(290.000000, 403.000000)">
                <g id="Group-4" transform="translate(17.000000, 38.000000)">
                    <g id="Icon-2" transform="translate(193.000000, 14.000000)">
                        <g id="credit-card" stroke-linecap="round" stroke-linejoin="round">
                            <rect id="Rectangle-path" stroke="#FFFFFF" x="0.6048" y="3.6" width="22.8" height="16.8" rx="2.4"></rect>
                            <path d="M5.4,0 L7,0 L23.4,4.4408921e-16 C24.7254834,2.00601859e-16 25.8,1.0745166 25.8,2.4 L25.8,14 L25.8,14.4" id="Rectangle-path" stroke="#BABABA"></path>
                        </g>
                        <g id="Visa" transform="translate(2.000000, 9.000000)" fill="#FFFFFF">
                            <path d="M13.8951223,0.580614998 C13.6033944,0.46474149 13.1467142,0.339720073 12.5755037,0.339720073 C11.1219064,0.339720073 10.096897,1.114243 10.0882532,2.22495156 C10.0796094,3.04521402 10.8193737,3.50337178 11.3776185,3.77704671 C11.9502696,4.05682024 12.1440345,4.23520446 12.1411533,4.48524729 C12.1368314,4.8679348 11.6830324,5.04250739 11.2594867,5.04250739 C10.671709,5.04250739 10.3590919,4.95560226 9.87503969,4.74291339 L9.68559663,4.65295895 L9.47886599,5.93137917 C9.82173632,6.09070524 10.4577752,6.2286862 11.1183048,6.23554713 C12.6655432,6.23554713 13.6696635,5.47017211 13.6811885,4.28399331 C13.6862307,3.63525413 13.2950992,3.14050474 12.4458469,2.73266048 C11.9308211,2.46813346 11.616043,2.29203622 11.618204,2.0244599 C11.618204,1.7873766 11.8861615,1.53352214 12.4616938,1.53352214 C12.9428648,1.52513655 13.292218,1.63643611 13.5630567,1.75154729 L13.6948745,1.81786963 L13.8951223,0.580614998" id="Fill-3"></path>
                            <path d="M17.6681366,0.444921021 L16.5314783,0.444921021 C16.1792438,0.444921021 15.9156082,0.547072667 15.7614606,0.918325288 L13.5753021,6.15245363 L15.1210999,6.15245363 C15.1210999,6.15245363 15.3732104,5.44882699 15.4308357,5.2948372 C15.5993896,5.2948372 17.1005278,5.29712418 17.3151819,5.29712418 C17.3591211,5.49685351 17.4945405,6.15245363 17.4945405,6.15245363 L18.8602593,6.15245363 L17.6681366,0.444921021 L17.6681366,0.444921021 Z M15.8536611,4.12695421 C15.9761147,3.79686718 16.4399981,2.52911952 16.4399981,2.52911952 C16.4320747,2.54512836 16.5610112,2.19903248 16.6344834,1.98405663 L16.7346073,2.47651904 C16.7346073,2.47651904 17.0169711,3.84031974 17.076037,4.12695421 L15.8536611,4.12695421 L15.8536611,4.12695421 Z" id="Fill-4"></path>
                            <path d="M5.85135548,0.44339637 L4.41072383,4.33811843 L4.25657624,3.54682434 C3.98933907,2.63508279 3.15305239,1.64558402 2.21880276,1.15083463 L3.5355401,6.14559269 L5.09286291,6.14406804 L7.41011893,0.44339637 L5.85135548,0.44339637" id="Fill-5"></path>
                            <path d="M3.07381765,0.440347067 L0.699656684,0.440347067 L0.681648789,0.558507552 C2.52781825,1.03114949 3.75019421,2.17463806 4.25657624,3.54682434 L3.74083011,0.922136917 C3.65151094,0.560032204 3.39363788,0.453306604 3.07381765,0.440347067" id="Fill-6"></path>
                            <polyline id="Fill-7" points="7.08597681 6.15016665 8.00582012 0.439584741 9.47814567 0.439584741 8.55614141 6.15016665 7.08597681 6.15016665"></polyline>
                        </g>
                    </g>
                </g>
            </g>
        </g>
    </g>
</svg>